<svg width="385" height="822" viewBox="0 0 385 822" fill="none" xmlns="http://www.w3.org/2000/svg">
    <g clip-path="url(#clip0_127_433)">
        <rect x="5" y="5" width="375" height="812" rx="30" fill="white"/>
        <path d="M183.001 280.5L165.501 263L157.806 284.211C157.593 284.767 157.546 285.374 157.671 285.956C157.795 286.539 158.085 287.073 158.507 287.495C158.928 287.916 159.462 288.206 160.045 288.331C160.628 288.455 161.234 288.408 161.79 288.195L183.001 280.5Z" fill="#2B735D"/>
        <path opacity="0.2" d="M172.999 242.375L203.624 273L219.639 267.18C220.134 267 220.576 266.698 220.923 266.302C221.27 265.905 221.511 265.428 221.624 264.913C221.737 264.399 221.718 263.864 221.569 263.359C221.42 262.854 221.146 262.395 220.772 262.024L183.975 225.227C183.605 224.853 183.145 224.579 182.64 224.43C182.135 224.281 181.6 224.262 181.086 224.375C180.571 224.488 180.094 224.729 179.697 225.076C179.301 225.423 178.999 225.865 178.819 226.36L172.999 242.375Z" fill="#2B735D"/>
        <path d="M157.806 284.211L178.822 226.36C179.002 225.865 179.304 225.423 179.7 225.076C180.096 224.729 180.574 224.488 181.088 224.375C181.603 224.262 182.137 224.281 182.643 224.43C183.148 224.579 183.607 224.853 183.978 225.227L220.775 262.024C221.149 262.395 221.423 262.854 221.572 263.359C221.721 263.864 221.74 264.399 221.627 264.913C221.514 265.428 221.273 265.905 220.926 266.302C220.579 266.698 220.137 267 219.642 267.18L161.79 288.196C161.234 288.408 160.628 288.455 160.045 288.331C159.462 288.207 158.928 287.916 158.507 287.495C158.085 287.074 157.795 286.54 157.671 285.957C157.546 285.374 157.593 284.768 157.806 284.211V284.211Z" stroke="#2B735D" stroke-width="2" stroke-linecap="round" stroke-linejoin="round"/>
        <path d="M208.625 231.125C208.625 231.125 208.625 221.75 218 221.75C227.375 221.75 227.375 212.375 227.375 212.375" stroke="#2B735D" stroke-width="2" stroke-linecap="round" stroke-linejoin="round"/>
        <path d="M183.001 280.5L165.501 263" stroke="#2B735D" stroke-width="2" stroke-linecap="round" stroke-linejoin="round"/>
        <path d="M199.25 209.25V218.625" stroke="#2B735D" stroke-width="2" stroke-linecap="round" stroke-linejoin="round"/>
        <path d="M227.375 246.75L233.625 253" stroke="#2B735D" stroke-width="2" stroke-linecap="round" stroke-linejoin="round"/>
        <path d="M227.375 234.25L236.75 231.125" stroke="#2B735D" stroke-width="2" stroke-linecap="round" stroke-linejoin="round"/>
        <path d="M172.999 242.375L203.624 273" stroke="#2B735D" stroke-width="2" stroke-linecap="round" stroke-linejoin="round"/>
        <path d="M170.424 337.2C169.331 337.2 168.324 337.027 167.404 336.68C166.497 336.32 165.704 335.82 165.024 335.18C164.344 334.527 163.817 333.76 163.444 332.88C163.071 332 162.884 331.04 162.884 330C162.884 328.96 163.071 328 163.444 327.12C163.817 326.24 164.344 325.48 165.024 324.84C165.717 324.187 166.524 323.687 167.444 323.34C168.364 322.98 169.371 322.8 170.464 322.8C171.651 322.8 172.717 322.993 173.664 323.38C174.624 323.767 175.431 324.333 176.084 325.08L174.444 326.68C173.897 326.133 173.304 325.733 172.664 325.48C172.037 325.213 171.344 325.08 170.584 325.08C169.851 325.08 169.171 325.2 168.544 325.44C167.917 325.68 167.377 326.02 166.924 326.46C166.471 326.9 166.117 327.42 165.864 328.02C165.624 328.62 165.504 329.28 165.504 330C165.504 330.707 165.624 331.36 165.864 331.96C166.117 332.56 166.471 333.087 166.924 333.54C167.377 333.98 167.911 334.32 168.524 334.56C169.137 334.8 169.817 334.92 170.564 334.92C171.257 334.92 171.924 334.813 172.564 334.6C173.217 334.373 173.837 334 174.424 333.48L175.904 335.42C175.171 336.007 174.317 336.453 173.344 336.76C172.384 337.053 171.411 337.2 170.424 337.2ZM173.444 335.08V329.84H175.904V335.42L173.444 335.08ZM179.093 337V326.32H181.473V329.26L181.193 328.4C181.513 327.68 182.013 327.133 182.693 326.76C183.386 326.387 184.246 326.2 185.273 326.2V328.58C185.166 328.553 185.066 328.54 184.973 328.54C184.88 328.527 184.786 328.52 184.693 328.52C183.746 328.52 182.993 328.8 182.433 329.36C181.873 329.907 181.593 330.727 181.593 331.82V337H179.093ZM192.316 337.14C191.13 337.14 190.09 336.907 189.196 336.44C188.316 335.96 187.63 335.307 187.136 334.48C186.656 333.653 186.416 332.713 186.416 331.66C186.416 330.593 186.65 329.653 187.116 328.84C187.596 328.013 188.25 327.367 189.076 326.9C189.916 326.433 190.87 326.2 191.936 326.2C192.976 326.2 193.903 326.427 194.716 326.88C195.53 327.333 196.17 327.973 196.636 328.8C197.103 329.627 197.336 330.6 197.336 331.72C197.336 331.827 197.33 331.947 197.316 332.08C197.316 332.213 197.31 332.34 197.296 332.46H188.396V330.8H195.976L194.996 331.32C195.01 330.707 194.883 330.167 194.616 329.7C194.35 329.233 193.983 328.867 193.516 328.6C193.063 328.333 192.536 328.2 191.936 328.2C191.323 328.2 190.783 328.333 190.316 328.6C189.863 328.867 189.503 329.24 189.236 329.72C188.983 330.187 188.856 330.74 188.856 331.38V331.78C188.856 332.42 189.003 332.987 189.296 333.48C189.59 333.973 190.003 334.353 190.536 334.62C191.07 334.887 191.683 335.02 192.376 335.02C192.976 335.02 193.516 334.927 193.996 334.74C194.476 334.553 194.903 334.26 195.276 333.86L196.616 335.4C196.136 335.96 195.53 336.393 194.796 336.7C194.076 336.993 193.25 337.14 192.316 337.14ZM206.025 337V334.84L205.885 334.38V330.6C205.885 329.867 205.665 329.3 205.225 328.9C204.785 328.487 204.118 328.28 203.225 328.28C202.625 328.28 202.031 328.373 201.445 328.56C200.871 328.747 200.385 329.007 199.985 329.34L199.005 327.52C199.578 327.08 200.258 326.753 201.045 326.54C201.845 326.313 202.671 326.2 203.525 326.2C205.071 326.2 206.265 326.573 207.105 327.32C207.958 328.053 208.385 329.193 208.385 330.74V337H206.025ZM202.665 337.14C201.865 337.14 201.165 337.007 200.565 336.74C199.965 336.46 199.498 336.08 199.165 335.6C198.845 335.107 198.685 334.553 198.685 333.94C198.685 333.34 198.825 332.8 199.105 332.32C199.398 331.84 199.871 331.46 200.525 331.18C201.178 330.9 202.045 330.76 203.125 330.76H206.225V332.42H203.305C202.451 332.42 201.878 332.56 201.585 332.84C201.291 333.107 201.145 333.44 201.145 333.84C201.145 334.293 201.325 334.653 201.685 334.92C202.045 335.187 202.545 335.32 203.185 335.32C203.798 335.32 204.345 335.18 204.825 334.9C205.318 334.62 205.671 334.207 205.885 333.66L206.305 335.16C206.065 335.787 205.631 336.273 205.005 336.62C204.391 336.967 203.611 337.14 202.665 337.14ZM215.613 337.14C214.44 337.14 213.533 336.84 212.893 336.24C212.253 335.627 211.933 334.727 211.933 333.54V323.96H214.433V333.48C214.433 333.987 214.56 334.38 214.813 334.66C215.08 334.94 215.446 335.08 215.913 335.08C216.473 335.08 216.94 334.933 217.313 334.64L218.013 336.42C217.72 336.66 217.36 336.84 216.933 336.96C216.506 337.08 216.066 337.14 215.613 337.14ZM210.173 328.4V326.4H217.293V328.4H210.173ZM220.23 332.36L219.75 323H222.71L222.21 332.36H220.23ZM221.23 337.14C220.763 337.14 220.376 336.987 220.07 336.68C219.763 336.373 219.61 336.007 219.61 335.58C219.61 335.153 219.763 334.793 220.07 334.5C220.376 334.193 220.763 334.04 221.23 334.04C221.696 334.04 222.076 334.193 222.37 334.5C222.663 334.793 222.81 335.153 222.81 335.58C222.81 336.007 222.663 336.373 222.37 336.68C222.076 336.987 221.696 337.14 221.23 337.14Z" fill="#202223"/>
        <path d="M102.296 355.2H100.91L97.7596 360.366L94.6236 355.2H93.1256L97.0176 361.584V365H98.4036V361.612L102.296 355.2ZM105.864 365.084C108.09 365.084 109.714 363.502 109.714 361.29C109.714 359.078 108.09 357.51 105.864 357.51C103.638 357.51 102 359.078 102 361.29C102 363.502 103.638 365.084 105.864 365.084ZM105.864 363.908C104.436 363.908 103.358 362.872 103.358 361.29C103.358 359.708 104.436 358.686 105.864 358.686C107.292 358.686 108.356 359.708 108.356 361.29C108.356 362.872 107.292 363.908 105.864 363.908ZM117.145 357.58V361.416C117.145 363.012 116.249 363.88 114.849 363.88C113.575 363.88 112.847 363.152 112.847 361.696V357.58H111.503V361.85C111.503 364.034 112.777 365.084 114.695 365.084C115.745 365.084 116.669 364.65 117.215 363.88V365H118.489V357.58H117.145ZM130.519 357.58V358.756C129.917 357.93 128.965 357.51 127.873 357.51C125.703 357.51 124.121 359.022 124.121 361.29C124.121 363.572 125.703 365.084 127.873 365.084C128.923 365.084 129.847 364.678 130.463 363.88V367.716H131.807V357.58H130.519ZM127.985 363.908C126.557 363.908 125.479 362.872 125.479 361.29C125.479 359.722 126.557 358.686 127.985 358.686C129.399 358.686 130.477 359.722 130.477 361.29C130.477 362.872 129.399 363.908 127.985 363.908ZM139.922 357.58V361.416C139.922 363.012 139.026 363.88 137.626 363.88C136.352 363.88 135.624 363.152 135.624 361.696V357.58H134.28V361.85C134.28 364.034 135.554 365.084 137.472 365.084C138.522 365.084 139.446 364.65 139.992 363.88V365H141.266V357.58H139.922ZM146.527 357.51C145.337 357.51 144.231 357.846 143.461 358.462L144.021 359.47C144.595 358.98 145.491 358.672 146.373 358.672C147.703 358.672 148.361 359.33 148.361 360.464V360.73H146.233C144.021 360.73 143.251 361.71 143.251 362.9C143.251 364.188 144.315 365.084 145.995 365.084C147.157 365.084 147.983 364.692 148.431 364.02V365H149.705V360.52C149.705 358.49 148.557 357.51 146.527 357.51ZM146.219 364.048C145.197 364.048 144.581 363.586 144.581 362.844C144.581 362.214 144.959 361.696 146.289 361.696H148.361V362.732C148.025 363.586 147.227 364.048 146.219 364.048ZM152.192 365H153.536V354.612H152.192V365ZM156.774 356.152C157.306 356.152 157.684 355.76 157.684 355.256C157.684 354.78 157.292 354.402 156.774 354.402C156.256 354.402 155.864 354.794 155.864 355.284C155.864 355.774 156.256 356.152 156.774 356.152ZM156.102 365H157.446V357.58H156.102V365ZM162.728 355.634C163.12 355.634 163.484 355.774 163.764 355.984L164.17 354.962C163.792 354.668 163.232 354.528 162.658 354.528C161.076 354.528 160.208 355.48 160.208 356.922V357.58H158.948V358.686H160.208V365H161.552V358.686H163.68V357.58H161.524V356.936C161.524 356.082 161.93 355.634 162.728 355.634ZM166.741 356.152C167.273 356.152 167.651 355.76 167.651 355.256C167.651 354.78 167.259 354.402 166.741 354.402C166.223 354.402 165.831 354.794 165.831 355.284C165.831 355.774 166.223 356.152 166.741 356.152ZM166.069 365H167.413V357.58H166.069V365ZM176.685 361.332C176.685 359.05 175.159 357.51 173.017 357.51C170.875 357.51 169.293 359.092 169.293 361.29C169.293 363.502 170.889 365.084 173.283 365.084C174.515 365.084 175.537 364.664 176.209 363.88L175.467 363.012C174.921 363.614 174.193 363.908 173.325 363.908C171.855 363.908 170.805 363.04 170.637 361.738H176.657C176.671 361.612 176.685 361.444 176.685 361.332ZM173.017 358.644C174.319 358.644 175.257 359.526 175.397 360.772H170.637C170.777 359.512 171.729 358.644 173.017 358.644ZM184.207 354.612V358.7C183.591 357.902 182.667 357.51 181.617 357.51C179.447 357.51 177.865 359.022 177.865 361.29C177.865 363.558 179.447 365.084 181.617 365.084C182.709 365.084 183.661 364.664 184.263 363.824V365H185.551V354.612H184.207ZM181.729 363.908C180.301 363.908 179.223 362.872 179.223 361.29C179.223 359.708 180.301 358.686 181.729 358.686C183.143 358.686 184.221 359.708 184.221 361.29C184.221 362.872 183.143 363.908 181.729 363.908ZM194.57 355.634C194.962 355.634 195.326 355.774 195.606 355.984L196.012 354.962C195.634 354.668 195.074 354.528 194.5 354.528C192.918 354.528 192.05 355.48 192.05 356.922V357.58H190.79V358.686H192.05V365H193.394V358.686H195.522V357.58H193.366V356.936C193.366 356.082 193.772 355.634 194.57 355.634ZM199.858 365.084C202.084 365.084 203.708 363.502 203.708 361.29C203.708 359.078 202.084 357.51 199.858 357.51C197.632 357.51 195.994 359.078 195.994 361.29C195.994 363.502 197.632 365.084 199.858 365.084ZM199.858 363.908C198.43 363.908 197.352 362.872 197.352 361.29C197.352 359.708 198.43 358.686 199.858 358.686C201.286 358.686 202.35 359.708 202.35 361.29C202.35 362.872 201.286 363.908 199.858 363.908ZM206.855 358.826V357.58H205.567V365H206.911V361.304C206.911 359.68 207.807 358.798 209.249 358.798C209.347 358.798 209.445 358.798 209.557 358.812V357.51C208.255 357.51 207.331 357.958 206.855 358.826ZM218.821 363.6C218.541 363.824 218.163 363.95 217.771 363.95C217.029 363.95 216.609 363.502 216.609 362.704V358.686H218.737V357.58H216.609V355.956H215.265V357.58H214.005V358.686H215.265V362.76C215.265 364.258 216.119 365.084 217.617 365.084C218.219 365.084 218.835 364.916 219.241 364.566L218.821 363.6ZM224.828 357.51C223.694 357.51 222.77 357.916 222.21 358.63V354.612H220.866V365H222.21V361.178C222.21 359.568 223.134 358.714 224.562 358.714C225.836 358.714 226.564 359.428 226.564 360.884V365H227.908V360.73C227.908 358.546 226.634 357.51 224.828 357.51ZM231.067 356.152C231.599 356.152 231.977 355.76 231.977 355.256C231.977 354.78 231.585 354.402 231.067 354.402C230.549 354.402 230.157 354.794 230.157 355.284C230.157 355.774 230.549 356.152 231.067 356.152ZM230.395 365H231.739V357.58H230.395V365ZM236.433 365.084C238.407 365.084 239.639 364.23 239.639 362.886C239.639 360.002 234.935 361.43 234.935 359.68C234.935 359.092 235.509 358.658 236.685 358.658C237.413 358.658 238.155 358.812 238.827 359.246L239.401 358.182C238.757 357.762 237.665 357.51 236.699 357.51C234.795 357.51 233.605 358.406 233.605 359.736C233.605 362.69 238.295 361.248 238.295 362.914C238.295 363.544 237.777 363.922 236.531 363.922C235.565 363.922 234.557 363.6 233.927 363.152L233.367 364.216C233.983 364.706 235.201 365.084 236.433 365.084ZM247.207 365.084C249.181 365.084 250.413 364.23 250.413 362.886C250.413 360.002 245.709 361.43 245.709 359.68C245.709 359.092 246.283 358.658 247.459 358.658C248.187 358.658 248.929 358.812 249.601 359.246L250.175 358.182C249.531 357.762 248.439 357.51 247.473 357.51C245.569 357.51 244.379 358.406 244.379 359.736C244.379 362.69 249.069 361.248 249.069 362.914C249.069 363.544 248.551 363.922 247.305 363.922C246.339 363.922 245.331 363.6 244.701 363.152L244.141 364.216C244.757 364.706 245.975 365.084 247.207 365.084ZM257.664 357.58V361.416C257.664 363.012 256.768 363.88 255.368 363.88C254.094 363.88 253.366 363.152 253.366 361.696V357.58H252.022V361.85C252.022 364.034 253.296 365.084 255.214 365.084C256.264 365.084 257.188 364.65 257.734 363.88V365H259.008V357.58H257.664ZM262.855 358.826V357.58H261.567V365H262.911V361.304C262.911 359.68 263.807 358.798 265.249 358.798C265.347 358.798 265.445 358.798 265.557 358.812V357.51C264.255 357.51 263.331 357.958 262.855 358.826ZM272.764 357.58L270.16 363.53L267.612 357.58H266.212L269.46 365H270.832L274.08 357.58H272.764ZM281.835 361.332C281.835 359.05 280.309 357.51 278.167 357.51C276.025 357.51 274.443 359.092 274.443 361.29C274.443 363.502 276.039 365.084 278.433 365.084C279.665 365.084 280.687 364.664 281.359 363.88L280.617 363.012C280.071 363.614 279.343 363.908 278.475 363.908C277.005 363.908 275.955 363.04 275.787 361.738H281.807C281.821 361.612 281.835 361.444 281.835 361.332ZM278.167 358.644C279.469 358.644 280.407 359.526 280.547 360.772H275.787C275.927 359.512 276.879 358.644 278.167 358.644ZM288.815 357.58L286.253 363.516L283.663 357.58H282.263L285.539 364.986L285.301 365.504C284.937 366.358 284.531 366.652 283.887 366.652C283.383 366.652 282.921 366.456 282.557 366.106L281.983 367.114C282.445 367.562 283.173 367.8 283.887 367.8C285.021 367.8 285.875 367.31 286.533 365.742L290.131 357.58H288.815ZM291.242 365.084C291.746 365.084 292.166 364.678 292.166 364.118C292.166 363.558 291.746 363.166 291.242 363.166C290.724 363.166 290.29 363.558 290.29 364.118C290.29 364.678 290.724 365.084 291.242 365.084ZM114.771 373.2H113.385L110.235 378.366L107.099 373.2H105.601L109.493 379.584V383H110.879V379.612L114.771 373.2ZM118.34 383.084C120.566 383.084 122.19 381.502 122.19 379.29C122.19 377.078 120.566 375.51 118.34 375.51C116.114 375.51 114.476 377.078 114.476 379.29C114.476 381.502 116.114 383.084 118.34 383.084ZM118.34 381.908C116.912 381.908 115.834 380.872 115.834 379.29C115.834 377.708 116.912 376.686 118.34 376.686C119.768 376.686 120.832 377.708 120.832 379.29C120.832 380.872 119.768 381.908 118.34 381.908ZM129.62 375.58V379.416C129.62 381.012 128.724 381.88 127.324 381.88C126.05 381.88 125.322 381.152 125.322 379.696V375.58H123.978V379.85C123.978 382.034 125.252 383.084 127.17 383.084C128.22 383.084 129.144 382.65 129.69 381.88V383H130.964V375.58H129.62ZM140.517 383.084C141.847 383.084 142.953 382.524 143.541 381.488L142.519 380.844C142.043 381.572 141.315 381.908 140.503 381.908C139.047 381.908 137.955 380.9 137.955 379.29C137.955 377.708 139.047 376.686 140.503 376.686C141.315 376.686 142.043 377.022 142.519 377.75L143.541 377.092C142.953 376.056 141.847 375.51 140.517 375.51C138.235 375.51 136.597 377.078 136.597 379.29C136.597 381.502 138.235 383.084 140.517 383.084ZM147.983 375.51C146.793 375.51 145.687 375.846 144.917 376.462L145.477 377.47C146.051 376.98 146.947 376.672 147.829 376.672C149.159 376.672 149.817 377.33 149.817 378.464V378.73H147.689C145.477 378.73 144.707 379.71 144.707 380.9C144.707 382.188 145.771 383.084 147.451 383.084C148.613 383.084 149.439 382.692 149.887 382.02V383H151.161V378.52C151.161 376.49 150.013 375.51 147.983 375.51ZM147.675 382.048C146.653 382.048 146.037 381.586 146.037 380.844C146.037 380.214 146.415 379.696 147.745 379.696H149.817V380.732C149.481 381.586 148.683 382.048 147.675 382.048ZM157.61 375.51C156.434 375.51 155.482 375.944 154.936 376.7V375.58H153.648V383H154.992V379.178C154.992 377.568 155.916 376.714 157.344 376.714C158.618 376.714 159.346 377.428 159.346 378.884V383H160.69V378.73C160.69 376.546 159.416 375.51 157.61 375.51ZM170.871 375.51C169.779 375.51 168.827 375.93 168.225 376.756V375.58H166.937V385.716H168.281V381.88C168.897 382.678 169.821 383.084 170.871 383.084C173.041 383.084 174.623 381.572 174.623 379.29C174.623 377.022 173.041 375.51 170.871 375.51ZM170.759 381.908C169.345 381.908 168.267 380.872 168.267 379.29C168.267 377.722 169.345 376.686 170.759 376.686C172.187 376.686 173.265 377.722 173.265 379.29C173.265 380.872 172.187 381.908 170.759 381.908ZM179.114 375.51C177.924 375.51 176.818 375.846 176.048 376.462L176.608 377.47C177.182 376.98 178.078 376.672 178.96 376.672C180.29 376.672 180.948 377.33 180.948 378.464V378.73H178.82C176.608 378.73 175.838 379.71 175.838 380.9C175.838 382.188 176.902 383.084 178.582 383.084C179.744 383.084 180.57 382.692 181.018 382.02V383H182.292V378.52C182.292 376.49 181.144 375.51 179.114 375.51ZM178.806 382.048C177.784 382.048 177.168 381.586 177.168 380.844C177.168 380.214 177.546 379.696 178.876 379.696H180.948V380.732C180.612 381.586 179.814 382.048 178.806 382.048ZM186.067 376.826V375.58H184.779V383H186.123V379.304C186.123 377.68 187.019 376.798 188.461 376.798C188.559 376.798 188.657 376.798 188.769 376.812V375.51C187.467 375.51 186.543 375.958 186.067 376.826ZM194.478 381.6C194.198 381.824 193.82 381.95 193.428 381.95C192.686 381.95 192.266 381.502 192.266 380.704V376.686H194.394V375.58H192.266V373.956H190.922V375.58H189.662V376.686H190.922V380.76C190.922 382.258 191.776 383.084 193.274 383.084C193.876 383.084 194.492 382.916 194.898 382.566L194.478 381.6ZM197.195 374.152C197.727 374.152 198.105 373.76 198.105 373.256C198.105 372.78 197.713 372.402 197.195 372.402C196.677 372.402 196.285 372.794 196.285 373.284C196.285 373.774 196.677 374.152 197.195 374.152ZM196.523 383H197.867V375.58H196.523V383ZM203.667 383.084C204.997 383.084 206.103 382.524 206.691 381.488L205.669 380.844C205.193 381.572 204.465 381.908 203.653 381.908C202.197 381.908 201.105 380.9 201.105 379.29C201.105 377.708 202.197 376.686 203.653 376.686C204.465 376.686 205.193 377.022 205.669 377.75L206.691 377.092C206.103 376.056 204.997 375.51 203.667 375.51C201.385 375.51 199.747 377.078 199.747 379.29C199.747 381.502 201.385 383.084 203.667 383.084ZM209.103 374.152C209.635 374.152 210.013 373.76 210.013 373.256C210.013 372.78 209.621 372.402 209.103 372.402C208.585 372.402 208.193 372.794 208.193 373.284C208.193 373.774 208.585 374.152 209.103 374.152ZM208.431 383H209.775V375.58H208.431V383ZM216.275 375.51C215.183 375.51 214.231 375.93 213.629 376.756V375.58H212.341V385.716H213.685V381.88C214.301 382.678 215.225 383.084 216.275 383.084C218.445 383.084 220.027 381.572 220.027 379.29C220.027 377.022 218.445 375.51 216.275 375.51ZM216.163 381.908C214.749 381.908 213.671 380.872 213.671 379.29C213.671 377.722 214.749 376.686 216.163 376.686C217.591 376.686 218.669 377.722 218.669 379.29C218.669 380.872 217.591 381.908 216.163 381.908ZM224.518 375.51C223.328 375.51 222.222 375.846 221.452 376.462L222.012 377.47C222.586 376.98 223.482 376.672 224.364 376.672C225.694 376.672 226.352 377.33 226.352 378.464V378.73H224.224C222.012 378.73 221.242 379.71 221.242 380.9C221.242 382.188 222.306 383.084 223.986 383.084C225.148 383.084 225.974 382.692 226.422 382.02V383H227.696V378.52C227.696 376.49 226.548 375.51 224.518 375.51ZM224.21 382.048C223.188 382.048 222.572 381.586 222.572 380.844C222.572 380.214 222.95 379.696 224.28 379.696H226.352V380.732C226.016 381.586 225.218 382.048 224.21 382.048ZM233.935 381.6C233.655 381.824 233.277 381.95 232.885 381.95C232.143 381.95 231.723 381.502 231.723 380.704V376.686H233.851V375.58H231.723V373.956H230.379V375.58H229.119V376.686H230.379V380.76C230.379 382.258 231.233 383.084 232.731 383.084C233.333 383.084 233.949 382.916 234.355 382.566L233.935 381.6ZM242.44 379.332C242.44 377.05 240.914 375.51 238.772 375.51C236.63 375.51 235.048 377.092 235.048 379.29C235.048 381.502 236.644 383.084 239.038 383.084C240.27 383.084 241.292 382.664 241.964 381.88L241.222 381.012C240.676 381.614 239.948 381.908 239.08 381.908C237.61 381.908 236.56 381.04 236.392 379.738H242.412C242.426 379.612 242.44 379.444 242.44 379.332ZM238.772 376.644C240.074 376.644 241.012 377.526 241.152 378.772H236.392C236.532 377.512 237.484 376.644 238.772 376.644ZM252.028 375.51C250.852 375.51 249.9 375.944 249.354 376.7V375.58H248.066V383H249.41V379.178C249.41 377.568 250.334 376.714 251.762 376.714C253.036 376.714 253.764 377.428 253.764 378.884V383H255.108V378.73C255.108 376.546 253.834 375.51 252.028 375.51ZM260.814 383.084C263.04 383.084 264.664 381.502 264.664 379.29C264.664 377.078 263.04 375.51 260.814 375.51C258.588 375.51 256.95 377.078 256.95 379.29C256.95 381.502 258.588 383.084 260.814 383.084ZM260.814 381.908C259.386 381.908 258.308 380.872 258.308 379.29C258.308 377.708 259.386 376.686 260.814 376.686C262.242 376.686 263.306 377.708 263.306 379.29C263.306 380.872 262.242 381.908 260.814 381.908ZM276.342 375.58L274.13 381.516L271.932 375.58H270.798L268.558 381.488L266.402 375.58H265.128L267.886 383H269.174L271.344 377.372L273.486 383H274.774L277.546 375.58H276.342ZM278.767 383.084C279.271 383.084 279.691 382.678 279.691 382.118C279.691 381.558 279.271 381.166 278.767 381.166C278.249 381.166 277.815 381.558 277.815 382.118C277.815 382.678 278.249 383.084 278.767 383.084Z" fill="#757575"/>
        <g filter="url(#filter0_d_127_433)">
            <rect x="23" y="411" width="340" height="44" rx="8" fill="url(#paint0_linear_127_433)" shape-rendering="crispEdges"/>
            <path d="M165.212 438.668C166.92 438.668 168.334 438.052 169.258 436.918L167.802 435.574C167.144 436.344 166.318 436.736 165.338 436.736C163.504 436.736 162.202 435.448 162.202 433.6C162.202 431.752 163.504 430.464 165.338 430.464C166.318 430.464 167.144 430.856 167.802 431.612L169.258 430.268C168.334 429.148 166.92 428.532 165.226 428.532C162.174 428.532 159.906 430.646 159.906 433.6C159.906 436.554 162.174 438.668 165.212 438.668ZM173.96 438.612C176.354 438.612 178.09 437.002 178.09 434.734C178.09 432.466 176.354 430.856 173.96 430.856C171.566 430.856 169.816 432.466 169.816 434.734C169.816 437.002 171.566 438.612 173.96 438.612ZM173.96 436.82C172.868 436.82 172.028 436.036 172.028 434.734C172.028 433.432 172.868 432.648 173.96 432.648C175.052 432.648 175.878 433.432 175.878 434.734C175.878 436.036 175.052 436.82 173.96 436.82ZM184.128 430.856C183.106 430.856 182.224 431.206 181.636 431.85V430.968H179.55V438.5H181.734V434.776C181.734 433.39 182.49 432.746 183.54 432.746C184.506 432.746 185.066 433.306 185.066 434.524V438.5H187.25V434.188C187.25 431.892 185.906 430.856 184.128 430.856ZM193.5 436.596C193.262 436.778 192.94 436.876 192.618 436.876C192.03 436.876 191.68 436.526 191.68 435.882V432.816H193.556V431.136H191.68V429.302H189.496V431.136H188.334V432.816H189.496V435.91C189.496 437.702 190.532 438.612 192.31 438.612C192.982 438.612 193.64 438.458 194.088 438.136L193.5 436.596ZM196.406 429.918C197.218 429.918 197.764 429.386 197.764 428.658C197.764 427.986 197.218 427.482 196.406 427.482C195.594 427.482 195.048 428.014 195.048 428.7C195.048 429.386 195.594 429.918 196.406 429.918ZM195.314 438.5H197.498V430.968H195.314V438.5ZM204.103 430.856C203.081 430.856 202.199 431.206 201.611 431.85V430.968H199.525V438.5H201.709V434.776C201.709 433.39 202.465 432.746 203.515 432.746C204.481 432.746 205.041 433.306 205.041 434.524V438.5H207.225V434.188C207.225 431.892 205.881 430.856 204.103 430.856ZM214.608 430.968V434.692C214.608 436.078 213.88 436.722 212.872 436.722C211.906 436.722 211.346 436.162 211.346 434.902V430.968H209.162V435.224C209.162 437.548 210.492 438.612 212.382 438.612C213.306 438.612 214.146 438.262 214.72 437.604V438.5H216.792V430.968H214.608ZM226.194 434.762C226.194 432.34 224.486 430.856 222.274 430.856C219.978 430.856 218.256 432.48 218.256 434.734C218.256 436.974 219.95 438.612 222.554 438.612C223.912 438.612 224.962 438.192 225.662 437.394L224.5 436.134C223.982 436.624 223.408 436.862 222.61 436.862C221.462 436.862 220.664 436.288 220.454 435.35H226.152C226.166 435.168 226.194 434.93 226.194 434.762ZM222.288 432.508C223.268 432.508 223.982 433.124 224.136 434.076H220.426C220.58 433.11 221.294 432.508 222.288 432.508Z" fill="white"/>
        </g>
        <rect x="23" y="479" width="340" height="1" fill="#F5F5F5"/>
        <path d="M90.876 517.096C93.096 517.096 94.128 515.992 94.128 514.708C94.128 511.624 89.04 512.908 89.04 510.856C89.04 510.124 89.652 509.524 91.08 509.524C91.824 509.524 92.652 509.74 93.384 510.208L93.78 509.248C93.084 508.768 92.064 508.504 91.08 508.504C88.872 508.504 87.864 509.608 87.864 510.904C87.864 514.024 92.952 512.728 92.952 514.78C92.952 515.512 92.328 516.076 90.876 516.076C89.796 516.076 88.728 515.668 88.104 515.104L87.66 516.04C88.332 516.664 89.592 517.096 90.876 517.096ZM100.489 510.64V513.928C100.489 515.296 99.7211 516.04 98.5211 516.04C97.4291 516.04 96.8051 515.416 96.8051 514.168V510.64H95.6531V514.3C95.6531 516.172 96.7451 517.072 98.3891 517.072C99.2891 517.072 100.081 516.7 100.549 516.04V517H101.641V510.64H100.489ZM104.938 511.708V510.64H103.834V517H104.986V513.832C104.986 512.44 105.754 511.684 106.99 511.684C107.074 511.684 107.158 511.684 107.254 511.696V510.58C106.138 510.58 105.346 510.964 104.938 511.708ZM113.432 510.64L111.2 515.74L109.016 510.64H107.816L110.6 517H111.776L114.56 510.64H113.432ZM121.207 513.856C121.207 511.9 119.899 510.58 118.063 510.58C116.227 510.58 114.871 511.936 114.871 513.82C114.871 515.716 116.239 517.072 118.291 517.072C119.347 517.072 120.223 516.712 120.799 516.04L120.163 515.296C119.695 515.812 119.071 516.064 118.327 516.064C117.067 516.064 116.167 515.32 116.023 514.204H121.183C121.195 514.096 121.207 513.952 121.207 513.856ZM118.063 511.552C119.179 511.552 119.983 512.308 120.103 513.376H116.023C116.143 512.296 116.959 511.552 118.063 511.552ZM127.19 510.64L124.994 515.728L122.774 510.64H121.574L124.382 516.988L124.178 517.432C123.866 518.164 123.518 518.416 122.966 518.416C122.534 518.416 122.138 518.248 121.826 517.948L121.334 518.812C121.73 519.196 122.354 519.4 122.966 519.4C123.938 519.4 124.67 518.98 125.234 517.636L128.318 510.64H127.19ZM141.207 510.64L139.311 515.728L137.427 510.64H136.455L134.535 515.704L132.687 510.64H131.595L133.959 517H135.063L136.923 512.176L138.759 517H139.863L142.239 510.64H141.207ZM143.984 509.416C144.44 509.416 144.764 509.08 144.764 508.648C144.764 508.24 144.428 507.916 143.984 507.916C143.54 507.916 143.204 508.252 143.204 508.672C143.204 509.092 143.54 509.416 143.984 509.416ZM143.408 517H144.56V510.64H143.408V517ZM146.76 517H147.912V508.096H146.76V517ZM150.112 517H151.264V508.096H150.112V517ZM159.902 515.8C159.662 515.992 159.338 516.1 159.002 516.1C158.366 516.1 158.006 515.716 158.006 515.032V511.588H159.83V510.64H158.006V509.248H156.854V510.64H155.774V511.588H156.854V515.08C156.854 516.364 157.586 517.072 158.87 517.072C159.386 517.072 159.914 516.928 160.262 516.628L159.902 515.8ZM163.971 510.58C162.951 510.58 162.003 510.868 161.343 511.396L161.823 512.26C162.315 511.84 163.083 511.576 163.839 511.576C164.979 511.576 165.543 512.14 165.543 513.112V513.34H163.719C161.823 513.34 161.163 514.18 161.163 515.2C161.163 516.304 162.075 517.072 163.515 517.072C164.511 517.072 165.219 516.736 165.603 516.16V517H166.695V513.16C166.695 511.42 165.711 510.58 163.971 510.58ZM163.707 516.184C162.831 516.184 162.303 515.788 162.303 515.152C162.303 514.612 162.627 514.168 163.767 514.168H165.543V515.056C165.255 515.788 164.571 516.184 163.707 516.184ZM173.686 517H175.102L172.162 513.268L174.838 510.64H173.446L169.978 513.808V508.096H168.826V517H169.978V515.26L171.298 514.036L173.686 517ZM181.699 513.856C181.699 511.9 180.391 510.58 178.555 510.58C176.719 510.58 175.363 511.936 175.363 513.82C175.363 515.716 176.731 517.072 178.783 517.072C179.839 517.072 180.715 516.712 181.291 516.04L180.655 515.296C180.187 515.812 179.563 516.064 178.819 516.064C177.559 516.064 176.659 515.32 176.515 514.204H181.675C181.687 514.096 181.699 513.952 181.699 513.856ZM178.555 511.552C179.671 511.552 180.475 512.308 180.595 513.376H176.515C176.635 512.296 177.451 511.552 178.555 511.552ZM188.838 510.58C187.818 510.58 186.87 510.868 186.21 511.396L186.69 512.26C187.182 511.84 187.95 511.576 188.706 511.576C189.846 511.576 190.41 512.14 190.41 513.112V513.34H188.586C186.69 513.34 186.03 514.18 186.03 515.2C186.03 516.304 186.942 517.072 188.382 517.072C189.378 517.072 190.086 516.736 190.47 516.16V517H191.562V513.16C191.562 511.42 190.578 510.58 188.838 510.58ZM188.574 516.184C187.698 516.184 187.17 515.788 187.17 515.152C187.17 514.612 187.494 514.168 188.634 514.168H190.41V515.056C190.122 515.788 189.438 516.184 188.574 516.184ZM194.798 511.708V510.64H193.694V517H194.846V513.832C194.846 512.44 195.614 511.684 196.85 511.684C196.934 511.684 197.018 511.684 197.114 511.696V510.58C195.998 510.58 195.206 510.964 194.798 511.708ZM201.199 517.072C203.107 517.072 204.499 515.716 204.499 513.82C204.499 511.924 203.107 510.58 201.199 510.58C199.291 510.58 197.887 511.924 197.887 513.82C197.887 515.716 199.291 517.072 201.199 517.072ZM201.199 516.064C199.975 516.064 199.051 515.176 199.051 513.82C199.051 512.464 199.975 511.588 201.199 511.588C202.423 511.588 203.335 512.464 203.335 513.82C203.335 515.176 202.423 516.064 201.199 516.064ZM210.868 510.64V513.928C210.868 515.296 210.1 516.04 208.9 516.04C207.808 516.04 207.184 515.416 207.184 514.168V510.64H206.032V514.3C206.032 516.172 207.124 517.072 208.768 517.072C209.668 517.072 210.46 516.7 210.928 516.04V517H212.02V510.64H210.868ZM217.609 510.58C216.601 510.58 215.785 510.952 215.317 511.6V510.64H214.213V517H215.365V513.724C215.365 512.344 216.157 511.612 217.381 511.612C218.473 511.612 219.097 512.224 219.097 513.472V517H220.249V513.34C220.249 511.468 219.157 510.58 217.609 510.58ZM227.264 508.096V511.6C226.736 510.916 225.944 510.58 225.044 510.58C223.184 510.58 221.828 511.876 221.828 513.82C221.828 515.764 223.184 517.072 225.044 517.072C225.98 517.072 226.796 516.712 227.312 515.992V517H228.416V508.096H227.264ZM225.14 516.064C223.916 516.064 222.992 515.176 222.992 513.82C222.992 512.464 223.916 511.588 225.14 511.588C226.352 511.588 227.276 512.464 227.276 513.82C227.276 515.176 226.352 516.064 225.14 516.064ZM232.823 508.6V509.644H234.719V517H235.907V508.6H232.823ZM241.176 517.096C243.132 517.096 244.596 515.536 244.596 512.8C244.596 510.064 243.132 508.504 241.176 508.504C239.208 508.504 237.744 510.064 237.744 512.8C237.744 515.536 239.208 517.096 241.176 517.096ZM241.176 516.028C239.856 516.028 238.944 514.948 238.944 512.8C238.944 510.652 239.856 509.572 241.176 509.572C242.484 509.572 243.396 510.652 243.396 512.8C243.396 514.948 242.484 516.028 241.176 516.028ZM257.443 510.58C256.363 510.58 255.475 511.036 254.995 511.756C254.575 510.964 253.759 510.58 252.787 510.58C251.827 510.58 251.047 510.94 250.591 511.588V510.64H249.487V517H250.639V513.724C250.639 512.344 251.395 511.612 252.547 511.612C253.591 511.612 254.191 512.224 254.191 513.472V517H255.343V513.724C255.343 512.344 256.099 511.612 257.251 511.612C258.295 511.612 258.895 512.224 258.895 513.472V517H260.047V513.34C260.047 511.468 258.991 510.58 257.443 510.58ZM262.742 509.416C263.198 509.416 263.522 509.08 263.522 508.648C263.522 508.24 263.186 507.916 262.742 507.916C262.298 507.916 261.962 508.252 261.962 508.672C261.962 509.092 262.298 509.416 262.742 509.416ZM262.166 517H263.318V510.64H262.166V517ZM268.914 510.58C267.906 510.58 267.09 510.952 266.622 511.6V510.64H265.518V517H266.67V513.724C266.67 512.344 267.462 511.612 268.686 511.612C269.778 511.612 270.402 512.224 270.402 513.472V517H271.554V513.34C271.554 511.468 270.462 510.58 268.914 510.58ZM278.462 510.64V513.928C278.462 515.296 277.694 516.04 276.494 516.04C275.402 516.04 274.778 515.416 274.778 514.168V510.64H273.626V514.3C273.626 516.172 274.718 517.072 276.362 517.072C277.262 517.072 278.054 516.7 278.522 516.04V517H279.614V510.64H278.462ZM285.023 515.8C284.783 515.992 284.459 516.1 284.123 516.1C283.487 516.1 283.127 515.716 283.127 515.032V511.588H284.951V510.64H283.127V509.248H281.975V510.64H280.895V511.588H281.975V515.08C281.975 516.364 282.707 517.072 283.991 517.072C284.507 517.072 285.035 516.928 285.383 516.628L285.023 515.8ZM292.313 513.856C292.313 511.9 291.005 510.58 289.169 510.58C287.333 510.58 285.977 511.936 285.977 513.82C285.977 515.716 287.345 517.072 289.397 517.072C290.453 517.072 291.329 516.712 291.905 516.04L291.269 515.296C290.801 515.812 290.177 516.064 289.433 516.064C288.173 516.064 287.273 515.32 287.129 514.204H292.289C292.301 514.096 292.313 513.952 292.313 513.856ZM289.169 511.552C290.285 511.552 291.089 512.308 291.209 513.376H287.129C287.249 512.296 288.065 511.552 289.169 511.552ZM295.736 517.072C297.428 517.072 298.484 516.34 298.484 515.188C298.484 512.716 294.452 513.94 294.452 512.44C294.452 511.936 294.944 511.564 295.952 511.564C296.576 511.564 297.212 511.696 297.788 512.068L298.28 511.156C297.728 510.796 296.792 510.58 295.964 510.58C294.332 510.58 293.312 511.348 293.312 512.488C293.312 515.02 297.332 513.784 297.332 515.212C297.332 515.752 296.888 516.076 295.82 516.076C294.992 516.076 294.128 515.8 293.588 515.416L293.108 516.328C293.636 516.748 294.68 517.072 295.736 517.072Z" fill="#757575"/>
        <path d="M301.5 37.5H302.5C303.052 37.5 303.5 37.9477 303.5 38.5V40.5C303.5 41.0523 303.052 41.5 302.5 41.5H301.5C300.948 41.5 300.5 41.0523 300.5 40.5V38.5C300.5 37.9477 300.948 37.5 301.5 37.5Z" fill="black"/>
        <path d="M306 35.5H307C307.552 35.5 308 35.9477 308 36.5V40.5C308 41.0523 307.552 41.5 307 41.5H306C305.448 41.5 305 41.0523 305 40.5V36.5C305 35.9477 305.448 35.5 306 35.5Z" fill="black"/>
        <path d="M310.5 33.5H311.5C312.052 33.5 312.5 33.9298 312.5 34.46V40.54C312.5 41.0702 312.052 41.5 311.5 41.5H310.5C309.948 41.5 309.5 41.0702 309.5 40.54V34.46C309.5 33.9298 309.948 33.5 310.5 33.5Z" fill="black"/>
        <path d="M315 30.5H316C316.552 30.5 317 30.9617 317 31.5312V40.4688C317 41.0383 316.552 41.5 316 41.5H315C314.448 41.5 314 41.0383 314 40.4688V31.5312C314 30.9617 314.448 30.5 315 30.5V30.5Z" fill="black" fill-opacity="0.2"/>
        <path fill-rule="evenodd" clip-rule="evenodd" d="M329.5 32.7845C331.677 32.7846 333.77 33.6387 335.347 35.1703C335.466 35.2885 335.656 35.287 335.773 35.1669L336.908 33.9966C336.967 33.9357 337 33.8532 337 33.7673C337 33.6815 336.966 33.5994 336.906 33.5392C332.766 29.4869 326.234 29.4869 322.095 33.5392C322.035 33.5993 322.001 33.6814 322 33.7673C321.999 33.8531 322.032 33.9356 322.092 33.9966L323.227 35.1669C323.344 35.2872 323.534 35.2887 323.653 35.1703C325.23 33.6386 327.324 32.7845 329.5 32.7845ZM329.5 36.592C330.696 36.5919 331.849 37.0459 332.736 37.8657C332.856 37.982 333.044 37.9795 333.161 37.86L334.295 36.6897C334.355 36.6283 334.388 36.545 334.387 36.4585C334.387 36.3719 334.352 36.2893 334.291 36.2292C331.592 33.6648 327.412 33.6648 324.712 36.2292C324.651 36.2893 324.617 36.372 324.616 36.4585C324.615 36.5451 324.648 36.6284 324.708 36.6897L325.842 37.86C325.959 37.9795 326.148 37.982 326.267 37.8657C327.153 37.0464 328.305 36.5925 329.5 36.592ZM331.772 39.1539C331.774 39.2407 331.74 39.3243 331.68 39.3851L329.718 41.4071C329.661 41.4665 329.582 41.5 329.5 41.5C329.419 41.5 329.34 41.4665 329.283 41.4071L327.321 39.3851C327.26 39.3243 327.227 39.2406 327.228 39.1538C327.23 39.067 327.267 38.9849 327.33 38.9267C328.583 37.8444 330.418 37.8444 331.671 38.9267C331.734 38.9849 331.77 39.0671 331.772 39.1539Z" fill="black"/>
        <rect x="342.5" y="30.5" width="21.6077" height="11" rx="2.16667" stroke="black" stroke-opacity="0.6"/>
        <path d="M365.635 33.8823V38.1176C366.462 37.7589 367 36.9245 367 36C367 35.0755 366.462 34.241 365.635 33.8823Z" fill="black" fill-opacity="0.6"/>
        <rect x="344.055" y="32.1177" width="18.4972" height="7.76471" rx="1.33333" fill="black"/>
        <path d="M36.2414 41.2637C38.7536 41.2637 40.277 39.1323 40.277 35.7192V35.7046C40.277 32.2915 38.7536 30.1675 36.2414 30.1675C33.7292 30.1675 32.2204 32.2915 32.2204 35.7046V35.7192C32.2204 39.1323 33.7292 41.2637 36.2414 41.2637ZM36.2414 39.7329C34.8937 39.7329 34.1247 38.2241 34.1247 35.7192V35.7046C34.1247 33.1997 34.8937 31.7056 36.2414 31.7056C37.589 31.7056 38.3727 33.1997 38.3727 35.7046V35.7192C38.3727 38.2241 37.589 39.7329 36.2414 39.7329ZM45.9224 30.1675C43.63 30.1675 41.9967 31.7349 41.9967 33.8809V33.8955C41.9967 35.9023 43.4176 37.3818 45.4464 37.3818C46.8966 37.3818 47.8194 36.6421 48.2076 35.8071H48.3541C48.3541 35.8877 48.3468 35.9683 48.3468 36.0488C48.2662 38.0703 47.5557 39.7109 45.8785 39.7109C44.9483 39.7109 44.2965 39.2275 44.0181 38.4878L43.9962 38.4146H42.1358L42.1505 38.4951C42.4874 40.1138 43.9376 41.2637 45.8785 41.2637C48.5372 41.2637 50.1412 39.1543 50.1412 35.5947V35.5801C50.1412 31.7715 48.1783 30.1675 45.9224 30.1675ZM45.9151 35.9316C44.7139 35.9316 43.8424 35.0527 43.8424 33.8296V33.8149C43.8424 32.6357 44.7725 31.7056 45.9371 31.7056C47.109 31.7056 48.0245 32.6504 48.0245 33.8589V33.8735C48.0245 35.0674 47.109 35.9316 45.9151 35.9316ZM53.2964 34.1519C53.9702 34.1519 54.4609 33.6392 54.4609 32.9946C54.4609 32.3428 53.9702 31.8374 53.2964 31.8374C52.6299 31.8374 52.1318 32.3428 52.1318 32.9946C52.1318 33.6392 52.6299 34.1519 53.2964 34.1519ZM53.2964 39.5864C53.9702 39.5864 54.4609 39.0811 54.4609 38.4292C54.4609 37.7773 53.9702 37.272 53.2964 37.272C52.6299 37.272 52.1318 37.7773 52.1318 38.4292C52.1318 39.0811 52.6299 39.5864 53.2964 39.5864ZM61.5785 41H63.3876V38.9712H64.8085V37.4111H63.3876V30.4312H60.7143C59.2787 32.6138 57.7773 35.0454 56.4076 37.4258V38.9712H61.5785V41ZM58.1654 37.4551V37.3452C59.1908 35.5508 60.414 33.5952 61.498 31.9399H61.6078V37.4551H58.1654ZM69.0184 41H70.908V30.4312H69.0257L66.2645 32.3721V34.1519L68.8939 32.2915H69.0184V41Z" fill="black"/>
        <rect x="135" y="799" width="114" height="4" rx="2" fill="#202223"/>
    </g>
    <rect x="2.5" y="2.5" width="380" height="817" rx="32.5" stroke="#202223" stroke-width="5"/>
    <defs>
        <filter id="filter0_d_127_433" x="23" y="411" width="340" height="45" filterUnits="userSpaceOnUse" color-interpolation-filters="sRGB">
            <feFlood flood-opacity="0" result="BackgroundImageFix"/>
            <feColorMatrix in="SourceAlpha" type="matrix" values="0 0 0 0 0 0 0 0 0 0 0 0 0 0 0 0 0 0 127 0" result="hardAlpha"/>
            <feOffset dy="1"/>
            <feComposite in2="hardAlpha" operator="out"/>
            <feColorMatrix type="matrix" values="0 0 0 0 0 0 0 0 0 0 0 0 0 0 0 0 0 0 0.05 0"/>
            <feBlend mode="normal" in2="BackgroundImageFix" result="effect1_dropShadow_127_433"/>
            <feBlend mode="normal" in="SourceGraphic" in2="effect1_dropShadow_127_433" result="shape"/>
        </filter>
        <linearGradient id="paint0_linear_127_433" x1="23" y1="423.774" x2="415.964" y2="548.674" gradientUnits="userSpaceOnUse">
            <stop stop-color="#2B735D"/>
            <stop offset="1" stop-color="#85B0A3"/>
        </linearGradient>
        <clipPath id="clip0_127_433">
            <rect x="5" y="5" width="375" height="812" rx="30" fill="white"/>
        </clipPath>
    </defs>
</svg>