<svg width="385" height="822" viewBox="0 0 385 822" fill="none" xmlns="http://www.w3.org/2000/svg">
    <g clip-path="url(#clip0_127_538)">
        <rect x="5" y="5" width="375" height="812" rx="30" fill="white"/>
        <path d="M183.001 280.5L165.501 263L157.806 284.211C157.593 284.767 157.546 285.374 157.671 285.956C157.795 286.539 158.085 287.073 158.507 287.495C158.928 287.916 159.462 288.206 160.045 288.331C160.628 288.455 161.234 288.408 161.79 288.195L183.001 280.5Z" fill="#2B735D"/>
        <path opacity="0.2" d="M172.999 242.375L203.624 273L219.639 267.18C220.134 267 220.576 266.698 220.923 266.302C221.27 265.905 221.511 265.428 221.624 264.913C221.737 264.399 221.718 263.864 221.569 263.359C221.42 262.854 221.146 262.395 220.772 262.024L183.975 225.227C183.605 224.853 183.145 224.579 182.64 224.43C182.135 224.281 181.6 224.262 181.086 224.375C180.571 224.488 180.094 224.729 179.697 225.076C179.301 225.423 178.999 225.865 178.819 226.36L172.999 242.375Z" fill="#2B735D"/>
        <path d="M157.806 284.211L178.822 226.36C179.002 225.865 179.304 225.423 179.7 225.076C180.096 224.729 180.574 224.488 181.088 224.375C181.603 224.262 182.137 224.281 182.643 224.43C183.148 224.579 183.607 224.853 183.978 225.227L220.775 262.024C221.149 262.395 221.423 262.854 221.572 263.359C221.721 263.864 221.74 264.399 221.627 264.913C221.514 265.428 221.273 265.905 220.926 266.302C220.579 266.698 220.137 267 219.642 267.18L161.79 288.196C161.234 288.408 160.628 288.455 160.045 288.331C159.462 288.207 158.928 287.916 158.507 287.495C158.085 287.074 157.795 286.54 157.671 285.957C157.546 285.374 157.593 284.768 157.806 284.211V284.211Z" stroke="#2B735D" stroke-width="2" stroke-linecap="round" stroke-linejoin="round"/>
        <path d="M208.625 231.125C208.625 231.125 208.625 221.75 218 221.75C227.375 221.75 227.375 212.375 227.375 212.375" stroke="#2B735D" stroke-width="2" stroke-linecap="round" stroke-linejoin="round"/>
        <path d="M183.001 280.5L165.501 263" stroke="#2B735D" stroke-width="2" stroke-linecap="round" stroke-linejoin="round"/>
        <path d="M199.25 209.25V218.625" stroke="#2B735D" stroke-width="2" stroke-linecap="round" stroke-linejoin="round"/>
        <path d="M227.375 246.75L233.625 253" stroke="#2B735D" stroke-width="2" stroke-linecap="round" stroke-linejoin="round"/>
        <path d="M227.375 234.25L236.75 231.125" stroke="#2B735D" stroke-width="2" stroke-linecap="round" stroke-linejoin="round"/>
        <path d="M172.999 242.375L203.624 273" stroke="#2B735D" stroke-width="2" stroke-linecap="round" stroke-linejoin="round"/>
        <path d="M166.066 337.2C164.972 337.2 163.926 337.047 162.926 336.74C161.926 336.42 161.132 336.013 160.546 335.52L161.446 333.5C162.006 333.94 162.699 334.307 163.526 334.6C164.352 334.893 165.199 335.04 166.066 335.04C166.799 335.04 167.392 334.96 167.846 334.8C168.299 334.64 168.632 334.427 168.846 334.16C169.059 333.88 169.166 333.567 169.166 333.22C169.166 332.793 169.012 332.453 168.706 332.2C168.399 331.933 167.999 331.727 167.506 331.58C167.026 331.42 166.486 331.273 165.886 331.14C165.299 331.007 164.706 330.853 164.106 330.68C163.519 330.493 162.979 330.26 162.486 329.98C162.006 329.687 161.612 329.3 161.306 328.82C160.999 328.34 160.846 327.727 160.846 326.98C160.846 326.22 161.046 325.527 161.446 324.9C161.859 324.26 162.479 323.753 163.306 323.38C164.146 322.993 165.206 322.8 166.486 322.8C167.326 322.8 168.159 322.907 168.986 323.12C169.812 323.333 170.532 323.64 171.146 324.04L170.326 326.06C169.699 325.687 169.052 325.413 168.386 325.24C167.719 325.053 167.079 324.96 166.466 324.96C165.746 324.96 165.159 325.047 164.706 325.22C164.266 325.393 163.939 325.62 163.726 325.9C163.526 326.18 163.426 326.5 163.426 326.86C163.426 327.287 163.572 327.633 163.866 327.9C164.172 328.153 164.566 328.353 165.046 328.5C165.539 328.647 166.086 328.793 166.686 328.94C167.286 329.073 167.879 329.227 168.466 329.4C169.066 329.573 169.606 329.8 170.086 330.08C170.579 330.36 170.972 330.74 171.266 331.22C171.572 331.7 171.726 332.307 171.726 333.04C171.726 333.787 171.519 334.48 171.106 335.12C170.706 335.747 170.086 336.253 169.246 336.64C168.406 337.013 167.346 337.2 166.066 337.2ZM178.584 337.14C177.677 337.14 176.877 336.973 176.184 336.64C175.49 336.293 174.95 335.773 174.564 335.08C174.177 334.373 173.984 333.487 173.984 332.42V326.32H176.484V332.08C176.484 333.04 176.697 333.76 177.124 334.24C177.564 334.707 178.184 334.94 178.984 334.94C179.57 334.94 180.077 334.82 180.504 334.58C180.944 334.34 181.284 333.98 181.524 333.5C181.777 333.02 181.904 332.427 181.904 331.72V326.32H184.404V337H182.024V334.12L182.444 335C182.084 335.693 181.557 336.227 180.864 336.6C180.17 336.96 179.41 337.14 178.584 337.14ZM193.597 337.14C192.73 337.14 191.937 336.94 191.217 336.54C190.51 336.14 189.944 335.54 189.517 334.74C189.104 333.927 188.897 332.9 188.897 331.66C188.897 330.407 189.097 329.38 189.497 328.58C189.91 327.78 190.47 327.187 191.177 326.8C191.884 326.4 192.69 326.2 193.597 326.2C194.65 326.2 195.577 326.427 196.377 326.88C197.19 327.333 197.83 327.967 198.297 328.78C198.777 329.593 199.017 330.553 199.017 331.66C199.017 332.767 198.777 333.733 198.297 334.56C197.83 335.373 197.19 336.007 196.377 336.46C195.577 336.913 194.65 337.14 193.597 337.14ZM187.677 340.88V326.32H190.057V328.84L189.977 331.68L190.177 334.52V340.88H187.677ZM193.317 335C193.917 335 194.45 334.867 194.917 334.6C195.397 334.333 195.777 333.947 196.057 333.44C196.337 332.933 196.477 332.34 196.477 331.66C196.477 330.967 196.337 330.373 196.057 329.88C195.777 329.373 195.397 328.987 194.917 328.72C194.45 328.453 193.917 328.32 193.317 328.32C192.717 328.32 192.177 328.453 191.697 328.72C191.217 328.987 190.837 329.373 190.557 329.88C190.277 330.373 190.137 330.967 190.137 331.66C190.137 332.34 190.277 332.933 190.557 333.44C190.837 333.947 191.217 334.333 191.697 334.6C192.177 334.867 192.717 335 193.317 335ZM206.408 337.14C205.221 337.14 204.181 336.907 203.288 336.44C202.408 335.96 201.721 335.307 201.228 334.48C200.748 333.653 200.508 332.713 200.508 331.66C200.508 330.593 200.741 329.653 201.208 328.84C201.688 328.013 202.341 327.367 203.168 326.9C204.008 326.433 204.961 326.2 206.028 326.2C207.068 326.2 207.995 326.427 208.808 326.88C209.621 327.333 210.261 327.973 210.728 328.8C211.195 329.627 211.428 330.6 211.428 331.72C211.428 331.827 211.421 331.947 211.408 332.08C211.408 332.213 211.401 332.34 211.388 332.46H202.488V330.8H210.068L209.088 331.32C209.101 330.707 208.975 330.167 208.708 329.7C208.441 329.233 208.075 328.867 207.608 328.6C207.155 328.333 206.628 328.2 206.028 328.2C205.415 328.2 204.875 328.333 204.408 328.6C203.955 328.867 203.595 329.24 203.328 329.72C203.075 330.187 202.948 330.74 202.948 331.38V331.78C202.948 332.42 203.095 332.987 203.388 333.48C203.681 333.973 204.095 334.353 204.628 334.62C205.161 334.887 205.775 335.02 206.468 335.02C207.068 335.02 207.608 334.927 208.088 334.74C208.568 334.553 208.995 334.26 209.368 333.86L210.708 335.4C210.228 335.96 209.621 336.393 208.888 336.7C208.168 336.993 207.341 337.14 206.408 337.14ZM213.829 337V326.32H216.209V329.26L215.929 328.4C216.249 327.68 216.749 327.133 217.429 326.76C218.123 326.387 218.983 326.2 220.009 326.2V328.58C219.903 328.553 219.803 328.54 219.709 328.54C219.616 328.527 219.523 328.52 219.429 328.52C218.483 328.52 217.729 328.8 217.169 329.36C216.609 329.907 216.329 330.727 216.329 331.82V337H213.829ZM222.388 332.36L221.908 323H224.868L224.368 332.36H222.388ZM223.388 337.14C222.921 337.14 222.535 336.987 222.228 336.68C221.921 336.373 221.768 336.007 221.768 335.58C221.768 335.153 221.921 334.793 222.228 334.5C222.535 334.193 222.921 334.04 223.388 334.04C223.855 334.04 224.235 334.193 224.528 334.5C224.821 334.793 224.968 335.153 224.968 335.58C224.968 336.007 224.821 336.373 224.528 336.68C224.235 336.987 223.855 337.14 223.388 337.14Z" fill="#202223"/>
        <path d="M66.7295 355.2L63.1735 363.25L59.6455 355.2H58.1335L62.4455 365H63.8315L68.1295 355.2H66.7295ZM71.8006 365.084C74.0266 365.084 75.6506 363.502 75.6506 361.29C75.6506 359.078 74.0266 357.51 71.8006 357.51C69.5746 357.51 67.9366 359.078 67.9366 361.29C67.9366 363.502 69.5746 365.084 71.8006 365.084ZM71.8006 363.908C70.3726 363.908 69.2946 362.872 69.2946 361.29C69.2946 359.708 70.3726 358.686 71.8006 358.686C73.2286 358.686 74.2926 359.708 74.2926 361.29C74.2926 362.872 73.2286 363.908 71.8006 363.908ZM83.0814 357.58V361.416C83.0814 363.012 82.1854 363.88 80.7854 363.88C79.5114 363.88 78.7834 363.152 78.7834 361.696V357.58H77.4394V361.85C77.4394 364.034 78.7134 365.084 80.6314 365.084C81.6814 365.084 82.6054 364.65 83.1514 363.88V365H84.4254V357.58H83.0814ZM89.112 365.084C91.086 365.084 92.318 364.23 92.318 362.886C92.318 360.002 87.614 361.43 87.614 359.68C87.614 359.092 88.188 358.658 89.364 358.658C90.092 358.658 90.834 358.812 91.506 359.246L92.08 358.182C91.436 357.762 90.344 357.51 89.378 357.51C87.474 357.51 86.284 358.406 86.284 359.736C86.284 362.69 90.974 361.248 90.974 362.914C90.974 363.544 90.456 363.922 89.21 363.922C88.244 363.922 87.236 363.6 86.606 363.152L86.046 364.216C86.662 364.706 87.88 365.084 89.112 365.084ZM100.781 355.424L102.069 356.502H103.287L101.425 354.682H100.137L98.2754 356.502H99.4934L100.781 355.424ZM104.463 361.332C104.463 359.05 102.937 357.51 100.795 357.51C98.6534 357.51 97.0714 359.092 97.0714 361.29C97.0714 363.502 98.6674 365.084 101.061 365.084C102.293 365.084 103.315 364.664 103.987 363.88L103.245 363.012C102.699 363.614 101.971 363.908 101.103 363.908C99.6334 363.908 98.5834 363.04 98.4154 361.738H104.435C104.449 361.612 104.463 361.444 104.463 361.332ZM100.795 358.644C102.097 358.644 103.035 359.526 103.175 360.772H98.4154C98.5554 359.512 99.5074 358.644 100.795 358.644ZM110.082 363.6C109.802 363.824 109.424 363.95 109.032 363.95C108.29 363.95 107.87 363.502 107.87 362.704V358.686H109.998V357.58H107.87V355.956H106.526V357.58H105.266V358.686H106.526V362.76C106.526 364.258 107.38 365.084 108.878 365.084C109.48 365.084 110.096 364.916 110.502 364.566L110.082 363.6ZM118.586 361.332C118.586 359.05 117.06 357.51 114.918 357.51C112.776 357.51 111.194 359.092 111.194 361.29C111.194 363.502 112.79 365.084 115.184 365.084C116.416 365.084 117.438 364.664 118.11 363.88L117.368 363.012C116.822 363.614 116.094 363.908 115.226 363.908C113.756 363.908 112.706 363.04 112.538 361.738H118.558C118.572 361.612 118.586 361.444 118.586 361.332ZM114.918 358.644C116.22 358.644 117.158 359.526 117.298 360.772H112.538C112.678 359.512 113.63 358.644 114.918 358.644ZM122.581 365.084C124.555 365.084 125.787 364.23 125.787 362.886C125.787 360.002 121.083 361.43 121.083 359.68C121.083 359.092 121.657 358.658 122.833 358.658C123.561 358.658 124.303 358.812 124.975 359.246L125.549 358.182C124.905 357.762 123.813 357.51 122.847 357.51C120.943 357.51 119.753 358.406 119.753 359.736C119.753 362.69 124.443 361.248 124.443 362.914C124.443 363.544 123.925 363.922 122.679 363.922C121.713 363.922 120.705 363.6 120.075 363.152L119.515 364.216C120.131 364.706 121.349 365.084 122.581 365.084ZM136.938 357.58V358.756C136.336 357.93 135.384 357.51 134.292 357.51C132.122 357.51 130.54 359.022 130.54 361.29C130.54 363.572 132.122 365.084 134.292 365.084C135.342 365.084 136.266 364.678 136.882 363.88V367.716H138.226V357.58H136.938ZM134.404 363.908C132.976 363.908 131.898 362.872 131.898 361.29C131.898 359.722 132.976 358.686 134.404 358.686C135.818 358.686 136.896 359.722 136.896 361.29C136.896 362.872 135.818 363.908 134.404 363.908ZM146.341 357.58V361.416C146.341 363.012 145.445 363.88 144.045 363.88C142.771 363.88 142.043 363.152 142.043 361.696V357.58H140.699V361.85C140.699 364.034 141.973 365.084 143.891 365.084C144.941 365.084 145.865 364.65 146.411 363.88V365H147.685V357.58H146.341ZM152.946 357.51C151.756 357.51 150.65 357.846 149.88 358.462L150.44 359.47C151.014 358.98 151.91 358.672 152.792 358.672C154.122 358.672 154.78 359.33 154.78 360.464V360.73H152.652C150.44 360.73 149.67 361.71 149.67 362.9C149.67 364.188 150.734 365.084 152.414 365.084C153.576 365.084 154.402 364.692 154.85 364.02V365H156.124V360.52C156.124 358.49 154.976 357.51 152.946 357.51ZM152.638 364.048C151.616 364.048 151 363.586 151 362.844C151 362.214 151.378 361.696 152.708 361.696H154.78V362.732C154.444 363.586 153.646 364.048 152.638 364.048ZM158.611 365H159.955V354.612H158.611V365ZM163.193 356.152C163.725 356.152 164.103 355.76 164.103 355.256C164.103 354.78 163.711 354.402 163.193 354.402C162.675 354.402 162.283 354.794 162.283 355.284C162.283 355.774 162.675 356.152 163.193 356.152ZM162.521 365H163.865V357.58H162.521V365ZM169.147 355.634C169.539 355.634 169.903 355.774 170.183 355.984L170.589 354.962C170.211 354.668 169.651 354.528 169.077 354.528C167.495 354.528 166.627 355.48 166.627 356.922V357.58H165.367V358.686H166.627V365H167.971V358.686H170.099V357.58H167.943V356.936C167.943 356.082 168.349 355.634 169.147 355.634ZM173.16 356.152C173.692 356.152 174.07 355.76 174.07 355.256C174.07 354.78 173.678 354.402 173.16 354.402C172.642 354.402 172.25 354.794 172.25 355.284C172.25 355.774 172.642 356.152 173.16 356.152ZM172.488 365H173.832V357.58H172.488V365ZM181.984 354.682H180.276L178.372 356.502H179.632L181.984 354.682ZM183.104 361.332C183.104 359.05 181.578 357.51 179.436 357.51C177.294 357.51 175.712 359.092 175.712 361.29C175.712 363.502 177.308 365.084 179.702 365.084C180.934 365.084 181.956 364.664 182.628 363.88L181.886 363.012C181.34 363.614 180.612 363.908 179.744 363.908C178.274 363.908 177.224 363.04 177.056 361.738H183.076C183.09 361.612 183.104 361.444 183.104 361.332ZM179.436 358.644C180.738 358.644 181.676 359.526 181.816 360.772H177.056C177.196 359.512 178.148 358.644 179.436 358.644ZM192.664 357.51C191.572 357.51 190.62 357.93 190.018 358.756V357.58H188.73V367.716H190.074V363.88C190.69 364.678 191.614 365.084 192.664 365.084C194.834 365.084 196.416 363.572 196.416 361.29C196.416 359.022 194.834 357.51 192.664 357.51ZM192.552 363.908C191.138 363.908 190.06 362.872 190.06 361.29C190.06 359.722 191.138 358.686 192.552 358.686C193.98 358.686 195.058 359.722 195.058 361.29C195.058 362.872 193.98 363.908 192.552 363.908ZM201.451 365.084C203.677 365.084 205.301 363.502 205.301 361.29C205.301 359.078 203.677 357.51 201.451 357.51C199.225 357.51 197.587 359.078 197.587 361.29C197.587 363.502 199.225 365.084 201.451 365.084ZM201.451 363.908C200.023 363.908 198.945 362.872 198.945 361.29C198.945 359.708 200.023 358.686 201.451 358.686C202.879 358.686 203.943 359.708 203.943 361.29C203.943 362.872 202.879 363.908 201.451 363.908ZM212.732 357.58V361.416C212.732 363.012 211.836 363.88 210.436 363.88C209.162 363.88 208.434 363.152 208.434 361.696V357.58H207.09V361.85C207.09 364.034 208.364 365.084 210.282 365.084C211.332 365.084 212.256 364.65 212.802 363.88V365H214.076V357.58H212.732ZM217.922 358.826V357.58H216.634V365H217.978V361.304C217.978 359.68 218.874 358.798 220.316 358.798C220.414 358.798 220.512 358.798 220.624 358.812V357.51C219.322 357.51 218.398 357.958 217.922 358.826ZM229.37 365.084C230.7 365.084 231.806 364.524 232.394 363.488L231.372 362.844C230.896 363.572 230.168 363.908 229.356 363.908C227.9 363.908 226.808 362.9 226.808 361.29C226.808 359.708 227.9 358.686 229.356 358.686C230.168 358.686 230.896 359.022 231.372 359.75L232.394 359.092C231.806 358.056 230.7 357.51 229.37 357.51C227.088 357.51 225.45 359.078 225.45 361.29C225.45 363.502 227.088 365.084 229.37 365.084ZM240.731 361.332C240.731 359.05 239.205 357.51 237.063 357.51C234.921 357.51 233.339 359.092 233.339 361.29C233.339 363.502 234.935 365.084 237.329 365.084C238.561 365.084 239.583 364.664 240.255 363.88L239.513 363.012C238.967 363.614 238.239 363.908 237.371 363.908C235.901 363.908 234.851 363.04 234.683 361.738H240.703C240.717 361.612 240.731 361.444 240.731 361.332ZM237.063 358.644C238.365 358.644 239.303 359.526 239.443 360.772H234.683C234.823 359.512 235.775 358.644 237.063 358.644ZM246.349 363.6C246.069 363.824 245.691 363.95 245.299 363.95C244.557 363.95 244.137 363.502 244.137 362.704V358.686H246.265V357.58H244.137V355.956H242.793V357.58H241.533V358.686H242.793V362.76C242.793 364.258 243.647 365.084 245.145 365.084C245.747 365.084 246.363 364.916 246.769 364.566L246.349 363.6ZM251.968 363.6C251.688 363.824 251.31 363.95 250.918 363.95C250.176 363.95 249.756 363.502 249.756 362.704V358.686H251.884V357.58H249.756V355.956H248.412V357.58H247.152V358.686H248.412V362.76C248.412 364.258 249.266 365.084 250.764 365.084C251.366 365.084 251.982 364.916 252.388 364.566L251.968 363.6ZM260.473 361.332C260.473 359.05 258.947 357.51 256.805 357.51C254.663 357.51 253.081 359.092 253.081 361.29C253.081 363.502 254.677 365.084 257.071 365.084C258.303 365.084 259.325 364.664 259.997 363.88L259.255 363.012C258.709 363.614 257.981 363.908 257.113 363.908C255.643 363.908 254.593 363.04 254.425 361.738H260.445C260.459 361.612 260.473 361.444 260.473 361.332ZM256.805 358.644C258.107 358.644 259.045 359.526 259.185 360.772H254.425C254.565 359.512 255.517 358.644 256.805 358.644ZM272.805 361.332C272.805 359.05 271.279 357.51 269.137 357.51C266.995 357.51 265.413 359.092 265.413 361.29C265.413 363.502 267.009 365.084 269.403 365.084C270.635 365.084 271.657 364.664 272.329 363.88L271.587 363.012C271.041 363.614 270.313 363.908 269.445 363.908C267.975 363.908 266.925 363.04 266.757 361.738H272.777C272.791 361.612 272.805 361.444 272.805 361.332ZM269.137 358.644C270.439 358.644 271.377 359.526 271.517 360.772H266.757C266.897 359.512 267.849 358.644 269.137 358.644ZM278.633 357.51C277.457 357.51 276.505 357.944 275.959 358.7V357.58H274.671V365H276.015V361.178C276.015 359.568 276.939 358.714 278.367 358.714C279.641 358.714 280.369 359.428 280.369 360.884V365H281.713V360.73C281.713 358.546 280.439 357.51 278.633 357.51ZM289.954 357.58V358.756C289.352 357.93 288.4 357.51 287.308 357.51C285.138 357.51 283.556 359.022 283.556 361.29C283.556 363.572 285.138 365.084 287.308 365.084C288.358 365.084 289.282 364.678 289.898 363.88V367.716H291.242V357.58H289.954ZM287.42 363.908C285.992 363.908 284.914 362.872 284.914 361.29C284.914 359.722 285.992 358.686 287.42 358.686C288.834 358.686 289.912 359.722 289.912 361.29C289.912 362.872 288.834 363.908 287.42 363.908ZM299.357 357.58V361.416C299.357 363.012 298.461 363.88 297.061 363.88C295.787 363.88 295.059 363.152 295.059 361.696V357.58H293.715V361.85C293.715 364.034 294.989 365.084 296.907 365.084C297.957 365.084 298.881 364.65 299.427 363.88V365H300.701V357.58H299.357ZM306.283 355.424L307.571 356.502H308.789L306.927 354.682H305.639L303.777 356.502H304.995L306.283 355.424ZM309.965 361.332C309.965 359.05 308.439 357.51 306.297 357.51C304.155 357.51 302.573 359.092 302.573 361.29C302.573 363.502 304.169 365.084 306.563 365.084C307.795 365.084 308.817 364.664 309.489 363.88L308.747 363.012C308.201 363.614 307.473 363.908 306.605 363.908C305.135 363.908 304.085 363.04 303.917 361.738H309.937C309.951 361.612 309.965 361.444 309.965 361.332ZM306.297 358.644C307.599 358.644 308.537 359.526 308.677 360.772H303.917C304.057 359.512 305.009 358.644 306.297 358.644ZM315.584 363.6C315.304 363.824 314.926 363.95 314.534 363.95C313.792 363.95 313.372 363.502 313.372 362.704V358.686H315.5V357.58H313.372V355.956H312.028V357.58H310.768V358.686H312.028V362.76C312.028 364.258 312.882 365.084 314.38 365.084C314.982 365.084 315.598 364.916 316.004 364.566L315.584 363.6ZM324.088 361.332C324.088 359.05 322.562 357.51 320.42 357.51C318.278 357.51 316.696 359.092 316.696 361.29C316.696 363.502 318.292 365.084 320.686 365.084C321.918 365.084 322.94 364.664 323.612 363.88L322.87 363.012C322.324 363.614 321.596 363.908 320.728 363.908C319.258 363.908 318.208 363.04 318.04 361.738H324.06C324.074 361.612 324.088 361.444 324.088 361.332ZM320.42 358.644C321.722 358.644 322.66 359.526 322.8 360.772H318.04C318.18 359.512 319.132 358.644 320.42 358.644ZM326.277 365.084C326.781 365.084 327.201 364.678 327.201 364.118C327.201 363.558 326.781 363.166 326.277 363.166C325.759 363.166 325.325 363.558 325.325 364.118C325.325 364.678 325.759 365.084 326.277 365.084ZM60.29 373.2L56.734 381.25L53.206 373.2H51.694L56.006 383H57.392L61.69 373.2H60.29ZM65.3612 383.084C67.5872 383.084 69.2112 381.502 69.2112 379.29C69.2112 377.078 67.5872 375.51 65.3612 375.51C63.1352 375.51 61.4972 377.078 61.4972 379.29C61.4972 381.502 63.1352 383.084 65.3612 383.084ZM65.3612 381.908C63.9332 381.908 62.8552 380.872 62.8552 379.29C62.8552 377.708 63.9332 376.686 65.3612 376.686C66.7892 376.686 67.8532 377.708 67.8532 379.29C67.8532 380.872 66.7892 381.908 65.3612 381.908ZM76.6419 375.58V379.416C76.6419 381.012 75.7459 381.88 74.3459 381.88C73.0719 381.88 72.3439 381.152 72.3439 379.696V375.58H70.9999V379.85C70.9999 382.034 72.2739 383.084 74.1919 383.084C75.2419 383.084 76.1659 382.65 76.7119 381.88V383H77.9859V375.58H76.6419ZM82.6725 383.084C84.6465 383.084 85.8785 382.23 85.8785 380.886C85.8785 378.002 81.1745 379.43 81.1745 377.68C81.1745 377.092 81.7485 376.658 82.9245 376.658C83.6525 376.658 84.3945 376.812 85.0665 377.246L85.6405 376.182C84.9965 375.762 83.9045 375.51 82.9385 375.51C81.0345 375.51 79.8445 376.406 79.8445 377.736C79.8445 380.69 84.5345 379.248 84.5345 380.914C84.5345 381.544 84.0165 381.922 82.7705 381.922C81.8045 381.922 80.7965 381.6 80.1665 381.152L79.6065 382.216C80.2225 382.706 81.4405 383.084 82.6725 383.084ZM95.2519 375.51C94.1599 375.51 93.2079 375.93 92.6059 376.756V375.58H91.3179V385.716H92.6619V381.88C93.2779 382.678 94.2019 383.084 95.2519 383.084C97.4219 383.084 99.0039 381.572 99.0039 379.29C99.0039 377.022 97.4219 375.51 95.2519 375.51ZM95.1399 381.908C93.7259 381.908 92.6479 380.872 92.6479 379.29C92.6479 377.722 93.7259 376.686 95.1399 376.686C96.5679 376.686 97.6459 377.722 97.6459 379.29C97.6459 380.872 96.5679 381.908 95.1399 381.908ZM104.039 383.084C106.265 383.084 107.889 381.502 107.889 379.29C107.889 377.078 106.265 375.51 104.039 375.51C101.813 375.51 100.175 377.078 100.175 379.29C100.175 381.502 101.813 383.084 104.039 383.084ZM104.039 381.908C102.611 381.908 101.533 380.872 101.533 379.29C101.533 377.708 102.611 376.686 104.039 376.686C105.467 376.686 106.531 377.708 106.531 379.29C106.531 380.872 105.467 381.908 104.039 381.908ZM115.32 375.58V379.416C115.32 381.012 114.424 381.88 113.024 381.88C111.75 381.88 111.022 381.152 111.022 379.696V375.58H109.678V379.85C109.678 382.034 110.952 383.084 112.87 383.084C113.92 383.084 114.844 382.65 115.39 381.88V383H116.664V375.58H115.32ZM124.472 375.58L121.868 381.53L119.32 375.58H117.92L121.168 383H122.54L125.788 375.58H124.472ZM133.543 379.332C133.543 377.05 132.017 375.51 129.875 375.51C127.733 375.51 126.151 377.092 126.151 379.29C126.151 381.502 127.747 383.084 130.141 383.084C131.373 383.084 132.395 382.664 133.067 381.88L132.325 381.012C131.779 381.614 131.051 381.908 130.183 381.908C128.713 381.908 127.663 381.04 127.495 379.738H133.515C133.529 379.612 133.543 379.444 133.543 379.332ZM129.875 376.644C131.177 376.644 132.115 377.526 132.255 378.772H127.495C127.635 377.512 128.587 376.644 129.875 376.644ZM136.349 381.894L140.731 376.462V375.58H134.711V376.686H139.009L134.627 382.132V383H140.843V381.894H136.349ZM150.336 375.51C149.244 375.51 148.292 375.93 147.69 376.756V375.58H146.402V385.716H147.746V381.88C148.362 382.678 149.286 383.084 150.336 383.084C152.506 383.084 154.088 381.572 154.088 379.29C154.088 377.022 152.506 375.51 150.336 375.51ZM150.224 381.908C148.81 381.908 147.732 380.872 147.732 379.29C147.732 377.722 148.81 376.686 150.224 376.686C151.652 376.686 152.73 377.722 152.73 379.29C152.73 380.872 151.652 381.908 150.224 381.908ZM158.579 375.51C157.389 375.51 156.283 375.846 155.513 376.462L156.073 377.47C156.647 376.98 157.543 376.672 158.425 376.672C159.755 376.672 160.413 377.33 160.413 378.464V378.73H158.285C156.073 378.73 155.303 379.71 155.303 380.9C155.303 382.188 156.367 383.084 158.047 383.084C159.209 383.084 160.035 382.692 160.483 382.02V383H161.757V378.52C161.757 376.49 160.609 375.51 158.579 375.51ZM158.271 382.048C157.249 382.048 156.633 381.586 156.633 380.844C156.633 380.214 157.011 379.696 158.341 379.696H160.413V380.732C160.077 381.586 159.279 382.048 158.271 382.048ZM165.532 376.826V375.58H164.244V383H165.588V379.304C165.588 377.68 166.484 376.798 167.926 376.798C168.024 376.798 168.122 376.798 168.234 376.812V375.51C166.932 375.51 166.008 375.958 165.532 376.826ZM173.943 381.6C173.663 381.824 173.285 381.95 172.893 381.95C172.151 381.95 171.731 381.502 171.731 380.704V376.686H173.859V375.58H171.731V373.956H170.387V375.58H169.127V376.686H170.387V380.76C170.387 382.258 171.241 383.084 172.739 383.084C173.341 383.084 173.957 382.916 174.363 382.566L173.943 381.6ZM176.66 374.152C177.192 374.152 177.57 373.76 177.57 373.256C177.57 372.78 177.178 372.402 176.66 372.402C176.142 372.402 175.75 372.794 175.75 373.284C175.75 373.774 176.142 374.152 176.66 374.152ZM175.988 383H177.332V375.58H175.988V383ZM183.132 383.084C184.462 383.084 185.568 382.524 186.156 381.488L185.134 380.844C184.658 381.572 183.93 381.908 183.118 381.908C181.662 381.908 180.57 380.9 180.57 379.29C180.57 377.708 181.662 376.686 183.118 376.686C183.93 376.686 184.658 377.022 185.134 377.75L186.156 377.092C185.568 376.056 184.462 375.51 183.132 375.51C180.85 375.51 179.212 377.078 179.212 379.29C179.212 381.502 180.85 383.084 183.132 383.084ZM188.568 374.152C189.1 374.152 189.478 373.76 189.478 373.256C189.478 372.78 189.086 372.402 188.568 372.402C188.05 372.402 187.658 372.794 187.658 373.284C187.658 373.774 188.05 374.152 188.568 374.152ZM187.896 383H189.24V375.58H187.896V383ZM195.74 375.51C194.648 375.51 193.696 375.93 193.094 376.756V375.58H191.806V385.716H193.15V381.88C193.766 382.678 194.69 383.084 195.74 383.084C197.91 383.084 199.492 381.572 199.492 379.29C199.492 377.022 197.91 375.51 195.74 375.51ZM195.628 381.908C194.214 381.908 193.136 380.872 193.136 379.29C193.136 377.722 194.214 376.686 195.628 376.686C197.056 376.686 198.134 377.722 198.134 379.29C198.134 380.872 197.056 381.908 195.628 381.908ZM208.055 379.332C208.055 377.05 206.529 375.51 204.387 375.51C202.245 375.51 200.663 377.092 200.663 379.29C200.663 381.502 202.259 383.084 204.653 383.084C205.885 383.084 206.907 382.664 207.579 381.88L206.837 381.012C206.291 381.614 205.563 381.908 204.695 381.908C203.225 381.908 202.175 381.04 202.007 379.738H208.027C208.041 379.612 208.055 379.444 208.055 379.332ZM204.387 376.644C205.689 376.644 206.627 377.526 206.767 378.772H202.007C202.147 377.512 203.099 376.644 204.387 376.644ZM211.209 376.826V375.58H209.921V383H211.265V379.304C211.265 377.68 212.161 376.798 213.603 376.798C213.701 376.798 213.799 376.798 213.911 376.812V375.51C212.609 375.51 211.685 375.958 211.209 376.826ZM225.079 372.612V376.7C224.463 375.902 223.539 375.51 222.489 375.51C220.319 375.51 218.737 377.022 218.737 379.29C218.737 381.558 220.319 383.084 222.489 383.084C223.581 383.084 224.533 382.664 225.135 381.824V383H226.423V372.612H225.079ZM222.601 381.908C221.173 381.908 220.095 380.872 220.095 379.29C220.095 377.708 221.173 376.686 222.601 376.686C224.015 376.686 225.093 377.708 225.093 379.29C225.093 380.872 224.015 381.908 222.601 381.908ZM233.04 374.502L231.136 372.682H229.428L231.78 374.502H233.04ZM235.672 379.332C235.672 377.05 234.146 375.51 232.004 375.51C229.862 375.51 228.28 377.092 228.28 379.29C228.28 381.502 229.876 383.084 232.27 383.084C233.502 383.084 234.524 382.664 235.196 381.88L234.454 381.012C233.908 381.614 233.18 381.908 232.312 381.908C230.842 381.908 229.792 381.04 229.624 379.738H235.644C235.658 379.612 235.672 379.444 235.672 379.332ZM232.004 376.644C233.306 376.644 234.244 377.526 234.384 378.772H229.624C229.764 377.512 230.716 376.644 232.004 376.644ZM239.667 383.084C241.641 383.084 242.873 382.23 242.873 380.886C242.873 378.002 238.169 379.43 238.169 377.68C238.169 377.092 238.743 376.658 239.919 376.658C240.647 376.658 241.389 376.812 242.061 377.246L242.635 376.182C241.991 375.762 240.899 375.51 239.933 375.51C238.029 375.51 236.839 376.406 236.839 377.736C236.839 380.69 241.529 379.248 241.529 380.914C241.529 381.544 241.011 381.922 239.765 381.922C238.799 381.922 237.791 381.6 237.161 381.152L236.601 382.216C237.217 382.706 238.435 383.084 239.667 383.084ZM257.594 375.51C256.334 375.51 255.298 376.042 254.738 376.882C254.248 375.958 253.296 375.51 252.162 375.51C251.042 375.51 250.132 375.93 249.6 376.686V375.58H248.312V383H249.656V379.178C249.656 377.568 250.538 376.714 251.882 376.714C253.1 376.714 253.8 377.428 253.8 378.884V383H255.144V379.178C255.144 377.568 256.026 376.714 257.37 376.714C258.588 376.714 259.288 377.428 259.288 378.884V383H260.632V378.73C260.632 376.546 259.4 375.51 257.594 375.51ZM265.807 375.51C264.617 375.51 263.511 375.846 262.741 376.462L263.301 377.47C263.875 376.98 264.771 376.672 265.653 376.672C266.983 376.672 267.641 377.33 267.641 378.464V378.73H265.513C263.301 378.73 262.531 379.71 262.531 380.9C262.531 382.188 263.595 383.084 265.275 383.084C266.437 383.084 267.263 382.692 267.711 382.02V383H268.985V378.52C268.985 376.49 267.837 375.51 265.807 375.51ZM265.499 382.048C264.477 382.048 263.861 381.586 263.861 380.844C263.861 380.214 264.239 379.696 265.569 379.696H267.641V380.732C267.305 381.586 266.507 382.048 265.499 382.048ZM272.144 374.152C272.676 374.152 273.054 373.76 273.054 373.256C273.054 372.78 272.662 372.402 272.144 372.402C271.626 372.402 271.234 372.794 271.234 373.284C271.234 373.774 271.626 374.152 272.144 374.152ZM271.472 383H272.816V375.58H271.472V383ZM279.344 375.51C278.168 375.51 277.216 375.944 276.67 376.7V375.58H275.382V383H276.726V379.178C276.726 377.568 277.65 376.714 279.078 376.714C280.352 376.714 281.08 377.428 281.08 378.884V383H282.424V378.73C282.424 376.546 281.15 375.51 279.344 375.51ZM288.664 381.6C288.384 381.824 288.006 381.95 287.614 381.95C286.872 381.95 286.452 381.502 286.452 380.704V376.686H288.58V375.58H286.452V373.956H285.108V375.58H283.848V376.686H285.108V380.76C285.108 382.258 285.962 383.084 287.46 383.084C288.062 383.084 288.678 382.916 289.084 382.566L288.664 381.6ZM297.168 379.332C297.168 377.05 295.642 375.51 293.5 375.51C291.358 375.51 289.776 377.092 289.776 379.29C289.776 381.502 291.372 383.084 293.766 383.084C294.998 383.084 296.02 382.664 296.692 381.88L295.95 381.012C295.404 381.614 294.676 381.908 293.808 381.908C292.338 381.908 291.288 381.04 291.12 379.738H297.14C297.154 379.612 297.168 379.444 297.168 379.332ZM293.5 376.644C294.802 376.644 295.74 377.526 295.88 378.772H291.12C291.26 377.512 292.212 376.644 293.5 376.644ZM302.997 375.51C301.821 375.51 300.869 375.944 300.323 376.7V375.58H299.035V383H300.379V379.178C300.379 377.568 301.303 376.714 302.731 376.714C304.005 376.714 304.733 377.428 304.733 378.884V383H306.077V378.73C306.077 376.546 304.803 375.51 302.997 375.51ZM311.266 375.51C310.076 375.51 308.97 375.846 308.2 376.462L308.76 377.47C309.334 376.98 310.23 376.672 311.112 376.672C312.442 376.672 313.1 377.33 313.1 378.464V378.73H310.972C308.76 378.73 307.99 379.71 307.99 380.9C307.99 382.188 309.054 383.084 310.734 383.084C311.896 383.084 312.722 382.692 313.17 382.02V383H314.444V378.52C314.444 376.49 313.296 375.51 311.266 375.51ZM310.958 382.048C309.936 382.048 309.32 381.586 309.32 380.844C309.32 380.214 309.698 379.696 311.028 379.696H313.1V380.732C312.764 381.586 311.966 382.048 310.958 382.048ZM320.893 375.51C319.717 375.51 318.765 375.944 318.219 376.7V375.58H316.931V383H318.275V379.178C318.275 377.568 319.199 376.714 320.627 376.714C321.901 376.714 322.629 377.428 322.629 378.884V383H323.973V378.73C323.973 376.546 322.699 375.51 320.893 375.51ZM330.213 381.6C329.933 381.824 329.555 381.95 329.163 381.95C328.421 381.95 328.001 381.502 328.001 380.704V376.686H330.129V375.58H328.001V373.956H326.657V375.58H325.397V376.686H326.657V380.76C326.657 382.258 327.511 383.084 329.009 383.084C329.611 383.084 330.227 382.916 330.633 382.566L330.213 381.6ZM332.716 383.084C333.22 383.084 333.64 382.678 333.64 382.118C333.64 381.558 333.22 381.166 332.716 381.166C332.198 381.166 331.764 381.558 331.764 382.118C331.764 382.678 332.198 383.084 332.716 383.084Z" fill="#757575"/>
        <g filter="url(#filter0_d_127_538)">
            <rect x="23" y="411" width="340" height="44" rx="8" fill="url(#paint0_linear_127_538)" shape-rendering="crispEdges"/>
            <path d="M162.198 438.668C163.906 438.668 165.32 438.052 166.244 436.918L164.788 435.574C164.13 436.344 163.304 436.736 162.324 436.736C160.49 436.736 159.188 435.448 159.188 433.6C159.188 431.752 160.49 430.464 162.324 430.464C163.304 430.464 164.13 430.856 164.788 431.612L166.244 430.268C165.32 429.148 163.906 428.532 162.212 428.532C159.16 428.532 156.892 430.646 156.892 433.6C156.892 436.554 159.16 438.668 162.198 438.668ZM170.946 438.612C173.34 438.612 175.076 437.002 175.076 434.734C175.076 432.466 173.34 430.856 170.946 430.856C168.552 430.856 166.802 432.466 166.802 434.734C166.802 437.002 168.552 438.612 170.946 438.612ZM170.946 436.82C169.854 436.82 169.014 436.036 169.014 434.734C169.014 433.432 169.854 432.648 170.946 432.648C172.038 432.648 172.864 433.432 172.864 434.734C172.864 436.036 172.038 436.82 170.946 436.82ZM181.113 430.856C180.091 430.856 179.209 431.206 178.621 431.85V430.968H176.535V438.5H178.719V434.776C178.719 433.39 179.475 432.746 180.525 432.746C181.491 432.746 182.051 433.306 182.051 434.524V438.5H184.235V434.188C184.235 431.892 182.891 430.856 181.113 430.856ZM190.485 436.596C190.247 436.778 189.925 436.876 189.603 436.876C189.015 436.876 188.665 436.526 188.665 435.882V432.816H190.541V431.136H188.665V429.302H186.481V431.136H185.319V432.816H186.481V435.91C186.481 437.702 187.517 438.612 189.295 438.612C189.967 438.612 190.625 438.458 191.073 438.136L190.485 436.596ZM193.391 429.918C194.203 429.918 194.749 429.386 194.749 428.658C194.749 427.986 194.203 427.482 193.391 427.482C192.579 427.482 192.033 428.014 192.033 428.7C192.033 429.386 192.579 429.918 193.391 429.918ZM192.299 438.5H194.483V430.968H192.299V438.5ZM201.088 430.856C200.066 430.856 199.184 431.206 198.596 431.85V430.968H196.51V438.5H198.694V434.776C198.694 433.39 199.45 432.746 200.5 432.746C201.466 432.746 202.026 433.306 202.026 434.524V438.5H204.21V434.188C204.21 431.892 202.866 430.856 201.088 430.856ZM211.594 430.968V434.692C211.594 436.078 210.866 436.722 209.858 436.722C208.892 436.722 208.332 436.162 208.332 434.902V430.968H206.148V435.224C206.148 437.548 207.478 438.612 209.368 438.612C210.292 438.612 211.132 438.262 211.706 437.604V438.5H213.778V430.968H211.594ZM223.179 434.762C223.179 432.34 221.471 430.856 219.259 430.856C216.963 430.856 215.241 432.48 215.241 434.734C215.241 436.974 216.935 438.612 219.539 438.612C220.897 438.612 221.947 438.192 222.647 437.394L221.485 436.134C220.967 436.624 220.393 436.862 219.595 436.862C218.447 436.862 217.649 436.288 217.439 435.35H223.137C223.151 435.168 223.179 434.93 223.179 434.762ZM219.273 432.508C220.253 432.508 220.967 433.124 221.121 434.076H217.411C217.565 433.11 218.279 432.508 219.273 432.508ZM226.719 431.962V430.968H224.633V438.5H226.817V434.944C226.817 433.502 227.615 432.844 228.819 432.844C228.987 432.844 229.127 432.858 229.309 432.872V430.856C228.147 430.856 227.251 431.234 226.719 431.962Z" fill="white"/>
        </g>
        <rect x="23" y="479" width="340" height="1" fill="#F5F5F5"/>
        <path d="M78.5432 517H84.2912V515.956H79.7432V508.6H78.5432V517ZM85.2362 511.84H86.0882L86.1722 508.6H85.1642L85.2362 511.84ZM93.7677 513.856C93.7677 511.9 92.4597 510.58 90.6237 510.58C88.7877 510.58 87.4317 511.936 87.4317 513.82C87.4317 515.716 88.7997 517.072 90.8517 517.072C91.9077 517.072 92.7837 516.712 93.3597 516.04L92.7237 515.296C92.2557 515.812 91.6317 516.064 90.8877 516.064C89.6277 516.064 88.7277 515.32 88.5837 514.204H93.7437C93.7557 514.096 93.7677 513.952 93.7677 513.856ZM90.6237 511.552C91.7397 511.552 92.5437 512.308 92.6637 513.376H88.5837C88.7037 512.296 89.5197 511.552 90.6237 511.552ZM98.7634 510.58C97.7554 510.58 96.9394 510.952 96.4714 511.6V510.64H95.3674V517H96.5194V513.724C96.5194 512.344 97.3114 511.612 98.5354 511.612C99.6274 511.612 100.251 512.224 100.251 513.472V517H101.403V513.34C101.403 511.468 100.311 510.58 98.7634 510.58ZM108.467 510.64V511.648C107.951 510.94 107.135 510.58 106.199 510.58C104.339 510.58 102.983 511.876 102.983 513.82C102.983 515.776 104.339 517.072 106.199 517.072C107.099 517.072 107.891 516.724 108.419 516.04V519.328H109.571V510.64H108.467ZM106.295 516.064C105.071 516.064 104.147 515.176 104.147 513.82C104.147 512.476 105.071 511.588 106.295 511.588C107.507 511.588 108.431 512.476 108.431 513.82C108.431 515.176 107.507 516.064 106.295 516.064ZM116.526 510.64V513.928C116.526 515.296 115.758 516.04 114.558 516.04C113.466 516.04 112.842 515.416 112.842 514.168V510.64H111.69V514.3C111.69 516.172 112.782 517.072 114.426 517.072C115.326 517.072 116.118 516.7 116.586 516.04V517H117.678V510.64H116.526ZM122.463 508.792L123.567 509.716H124.611L123.015 508.156H121.911L120.315 509.716H121.359L122.463 508.792ZM125.619 513.856C125.619 511.9 124.311 510.58 122.475 510.58C120.639 510.58 119.283 511.936 119.283 513.82C119.283 515.716 120.651 517.072 122.703 517.072C123.759 517.072 124.635 516.712 125.211 516.04L124.575 515.296C124.107 515.812 123.483 516.064 122.739 516.064C121.479 516.064 120.579 515.32 120.435 514.204H125.595C125.607 514.096 125.619 513.952 125.619 513.856ZM122.475 511.552C123.591 511.552 124.395 512.308 124.515 513.376H120.435C120.555 512.296 121.371 511.552 122.475 511.552ZM130.435 515.8C130.195 515.992 129.871 516.1 129.535 516.1C128.899 516.1 128.539 515.716 128.539 515.032V511.588H130.363V510.64H128.539V509.248H127.387V510.64H126.307V511.588H127.387V515.08C127.387 516.364 128.119 517.072 129.403 517.072C129.919 517.072 130.447 516.928 130.795 516.628L130.435 515.8ZM137.725 513.856C137.725 511.9 136.417 510.58 134.581 510.58C132.745 510.58 131.389 511.936 131.389 513.82C131.389 515.716 132.757 517.072 134.809 517.072C135.865 517.072 136.741 516.712 137.317 516.04L136.681 515.296C136.213 515.812 135.589 516.064 134.845 516.064C133.585 516.064 132.685 515.32 132.541 514.204H137.701C137.713 514.096 137.725 513.952 137.725 513.856ZM134.581 511.552C135.697 511.552 136.501 512.308 136.621 513.376H132.541C132.661 512.296 133.477 511.552 134.581 511.552ZM145.919 510.58C144.983 510.58 144.167 510.94 143.651 511.648V510.64H142.547V519.328H143.699V516.04C144.227 516.724 145.019 517.072 145.919 517.072C147.779 517.072 149.135 515.776 149.135 513.82C149.135 511.876 147.779 510.58 145.919 510.58ZM145.823 516.064C144.611 516.064 143.687 515.176 143.687 513.82C143.687 512.476 144.611 511.588 145.823 511.588C147.047 511.588 147.971 512.476 147.971 513.82C147.971 515.176 147.047 516.064 145.823 516.064ZM151.831 511.708V510.64H150.727V517H151.879V513.832C151.879 512.44 152.647 511.684 153.883 511.684C153.967 511.684 154.051 511.684 154.147 511.696V510.58C153.031 510.58 152.239 510.964 151.831 511.708ZM161.256 513.856C161.256 511.9 159.948 510.58 158.112 510.58C156.276 510.58 154.92 511.936 154.92 513.82C154.92 515.716 156.288 517.072 158.34 517.072C159.396 517.072 160.272 516.712 160.848 516.04L160.212 515.296C159.744 515.812 159.12 516.064 158.376 516.064C157.116 516.064 156.216 515.32 156.072 514.204H161.232C161.244 514.096 161.256 513.952 161.256 513.856ZM158.112 511.552C159.228 511.552 160.032 512.308 160.152 513.376H156.072C156.192 512.296 157.008 511.552 158.112 511.552ZM166.252 510.58C165.244 510.58 164.428 510.952 163.96 511.6V510.64H162.856V517H164.008V513.724C164.008 512.344 164.8 511.612 166.024 511.612C167.116 511.612 167.74 512.224 167.74 513.472V517H168.892V513.34C168.892 511.468 167.8 510.58 166.252 510.58ZM175.907 508.096V511.6C175.379 510.916 174.587 510.58 173.687 510.58C171.827 510.58 170.471 511.876 170.471 513.82C170.471 515.764 171.827 517.072 173.687 517.072C174.623 517.072 175.439 516.712 175.955 515.992V517H177.059V508.096H175.907ZM173.783 516.064C172.559 516.064 171.635 515.176 171.635 513.82C171.635 512.464 172.559 511.588 173.783 511.588C174.995 511.588 175.919 512.464 175.919 513.82C175.919 515.176 174.995 516.064 173.783 516.064ZM180.342 511.708V510.64H179.238V517H180.39V513.832C180.39 512.44 181.158 511.684 182.394 511.684C182.478 511.684 182.562 511.684 182.658 511.696V510.58C181.542 510.58 180.75 510.964 180.342 511.708ZM186.383 510.58C185.363 510.58 184.415 510.868 183.755 511.396L184.235 512.26C184.727 511.84 185.495 511.576 186.251 511.576C187.391 511.576 187.955 512.14 187.955 513.112V513.34H186.131C184.235 513.34 183.575 514.18 183.575 515.2C183.575 516.304 184.487 517.072 185.927 517.072C186.923 517.072 187.631 516.736 188.015 516.16V517H189.107V513.16C189.107 511.42 188.123 510.58 186.383 510.58ZM186.119 516.184C185.243 516.184 184.715 515.788 184.715 515.152C184.715 514.612 185.039 514.168 186.179 514.168H187.955V515.056C187.667 515.788 186.983 516.184 186.119 516.184ZM200.209 513.856C200.209 511.9 198.901 510.58 197.065 510.58C195.229 510.58 193.873 511.936 193.873 513.82C193.873 515.716 195.241 517.072 197.293 517.072C198.349 517.072 199.225 516.712 199.801 516.04L199.165 515.296C198.697 515.812 198.073 516.064 197.329 516.064C196.069 516.064 195.169 515.32 195.025 514.204H200.185C200.197 514.096 200.209 513.952 200.209 513.856ZM197.065 511.552C198.181 511.552 198.985 512.308 199.105 513.376H195.025C195.145 512.296 195.961 511.552 197.065 511.552ZM205.205 510.58C204.197 510.58 203.381 510.952 202.913 511.6V510.64H201.809V517H202.961V513.724C202.961 512.344 203.753 511.612 204.977 511.612C206.069 511.612 206.693 512.224 206.693 513.472V517H207.845V513.34C207.845 511.468 206.753 510.58 205.205 510.58ZM214.36 510.64L212.128 515.74L209.944 510.64H208.744L211.528 517H212.704L215.488 510.64H214.36ZM217.139 509.416C217.595 509.416 217.919 509.08 217.919 508.648C217.919 508.24 217.583 507.916 217.139 507.916C216.695 507.916 216.359 508.252 216.359 508.672C216.359 509.092 216.695 509.416 217.139 509.416ZM216.563 517H217.715V510.64H216.563V517ZM221.018 511.708V510.64H219.914V517H221.066V513.832C221.066 512.44 221.834 511.684 223.07 511.684C223.154 511.684 223.238 511.684 223.334 511.696V510.58C222.218 510.58 221.426 510.964 221.018 511.708ZM227.42 517.072C229.328 517.072 230.72 515.716 230.72 513.82C230.72 511.924 229.328 510.58 227.42 510.58C225.512 510.58 224.108 511.924 224.108 513.82C224.108 515.716 225.512 517.072 227.42 517.072ZM227.42 516.064C226.196 516.064 225.272 515.176 225.272 513.82C225.272 512.464 226.196 511.588 227.42 511.588C228.644 511.588 229.556 512.464 229.556 513.82C229.556 515.176 228.644 516.064 227.42 516.064ZM235.709 510.58C234.701 510.58 233.885 510.952 233.417 511.6V510.64H232.313V517H233.465V513.724C233.465 512.344 234.257 511.612 235.481 511.612C236.573 511.612 237.197 512.224 237.197 513.472V517H238.349V513.34C238.349 511.468 237.257 510.58 235.709 510.58ZM242.707 508.6V509.644H244.603V517H245.791V508.6H242.707ZM251.061 517.096C253.017 517.096 254.481 515.536 254.481 512.8C254.481 510.064 253.017 508.504 251.061 508.504C249.093 508.504 247.629 510.064 247.629 512.8C247.629 515.536 249.093 517.096 251.061 517.096ZM251.061 516.028C249.741 516.028 248.829 514.948 248.829 512.8C248.829 510.652 249.741 509.572 251.061 509.572C252.369 509.572 253.281 510.652 253.281 512.8C253.281 514.948 252.369 516.028 251.061 516.028ZM267.327 510.58C266.247 510.58 265.359 511.036 264.879 511.756C264.459 510.964 263.643 510.58 262.671 510.58C261.711 510.58 260.931 510.94 260.475 511.588V510.64H259.371V517H260.523V513.724C260.523 512.344 261.279 511.612 262.431 511.612C263.475 511.612 264.075 512.224 264.075 513.472V517H265.227V513.724C265.227 512.344 265.983 511.612 267.135 511.612C268.179 511.612 268.779 512.224 268.779 513.472V517H269.931V513.34C269.931 511.468 268.875 510.58 267.327 510.58ZM272.627 509.416C273.083 509.416 273.407 509.08 273.407 508.648C273.407 508.24 273.071 507.916 272.627 507.916C272.183 507.916 271.847 508.252 271.847 508.672C271.847 509.092 272.183 509.416 272.627 509.416ZM272.051 517H273.203V510.64H272.051V517ZM278.799 510.58C277.791 510.58 276.975 510.952 276.507 511.6V510.64H275.403V517H276.555V513.724C276.555 512.344 277.347 511.612 278.571 511.612C279.663 511.612 280.287 512.224 280.287 513.472V517H281.439V513.34C281.439 511.468 280.347 510.58 278.799 510.58ZM288.347 510.64V513.928C288.347 515.296 287.579 516.04 286.379 516.04C285.287 516.04 284.663 515.416 284.663 514.168V510.64H283.511V514.3C283.511 516.172 284.603 517.072 286.247 517.072C287.147 517.072 287.939 516.7 288.407 516.04V517H289.499V510.64H288.347ZM294.908 515.8C294.668 515.992 294.344 516.1 294.008 516.1C293.372 516.1 293.012 515.716 293.012 515.032V511.588H294.836V510.64H293.012V509.248H291.86V510.64H290.78V511.588H291.86V515.08C291.86 516.364 292.592 517.072 293.876 517.072C294.392 517.072 294.92 516.928 295.268 516.628L294.908 515.8ZM302.197 513.856C302.197 511.9 300.889 510.58 299.053 510.58C297.217 510.58 295.861 511.936 295.861 513.82C295.861 515.716 297.229 517.072 299.281 517.072C300.337 517.072 301.213 516.712 301.789 516.04L301.153 515.296C300.685 515.812 300.061 516.064 299.317 516.064C298.057 516.064 297.157 515.32 297.013 514.204H302.173C302.185 514.096 302.197 513.952 302.197 513.856ZM299.053 511.552C300.169 511.552 300.973 512.308 301.093 513.376H297.013C297.133 512.296 297.949 511.552 299.053 511.552ZM305.621 517.072C307.313 517.072 308.369 516.34 308.369 515.188C308.369 512.716 304.337 513.94 304.337 512.44C304.337 511.936 304.829 511.564 305.837 511.564C306.461 511.564 307.097 511.696 307.673 512.068L308.165 511.156C307.613 510.796 306.677 510.58 305.849 510.58C304.217 510.58 303.197 511.348 303.197 512.488C303.197 515.02 307.217 513.784 307.217 515.212C307.217 515.752 306.773 516.076 305.705 516.076C304.877 516.076 304.013 515.8 303.473 515.416L302.993 516.328C303.521 516.748 304.565 517.072 305.621 517.072Z" fill="#757575"/>
        <path d="M301.5 37.5H302.5C303.052 37.5 303.5 37.9477 303.5 38.5V40.5C303.5 41.0523 303.052 41.5 302.5 41.5H301.5C300.948 41.5 300.5 41.0523 300.5 40.5V38.5C300.5 37.9477 300.948 37.5 301.5 37.5Z" fill="black"/>
        <path d="M306 35.5H307C307.552 35.5 308 35.9477 308 36.5V40.5C308 41.0523 307.552 41.5 307 41.5H306C305.448 41.5 305 41.0523 305 40.5V36.5C305 35.9477 305.448 35.5 306 35.5Z" fill="black"/>
        <path d="M310.5 33.5H311.5C312.052 33.5 312.5 33.9298 312.5 34.46V40.54C312.5 41.0702 312.052 41.5 311.5 41.5H310.5C309.948 41.5 309.5 41.0702 309.5 40.54V34.46C309.5 33.9298 309.948 33.5 310.5 33.5Z" fill="black"/>
        <path d="M315 30.5H316C316.552 30.5 317 30.9617 317 31.5312V40.4688C317 41.0383 316.552 41.5 316 41.5H315C314.448 41.5 314 41.0383 314 40.4688V31.5312C314 30.9617 314.448 30.5 315 30.5V30.5Z" fill="black" fill-opacity="0.2"/>
        <path fill-rule="evenodd" clip-rule="evenodd" d="M329.5 32.7845C331.677 32.7846 333.77 33.6387 335.347 35.1703C335.466 35.2885 335.656 35.287 335.773 35.1669L336.908 33.9966C336.967 33.9357 337 33.8532 337 33.7673C337 33.6815 336.966 33.5994 336.906 33.5392C332.766 29.4869 326.234 29.4869 322.095 33.5392C322.035 33.5993 322.001 33.6814 322 33.7673C321.999 33.8531 322.032 33.9356 322.092 33.9966L323.227 35.1669C323.344 35.2872 323.534 35.2887 323.653 35.1703C325.23 33.6386 327.324 32.7845 329.5 32.7845ZM329.5 36.592C330.696 36.5919 331.849 37.0459 332.736 37.8657C332.856 37.982 333.044 37.9795 333.161 37.86L334.295 36.6897C334.355 36.6283 334.388 36.545 334.387 36.4585C334.387 36.3719 334.352 36.2893 334.291 36.2292C331.592 33.6648 327.412 33.6648 324.712 36.2292C324.651 36.2893 324.617 36.372 324.616 36.4585C324.615 36.5451 324.648 36.6284 324.708 36.6897L325.842 37.86C325.959 37.9795 326.148 37.982 326.267 37.8657C327.153 37.0464 328.305 36.5925 329.5 36.592ZM331.772 39.1539C331.774 39.2407 331.74 39.3243 331.68 39.3851L329.718 41.4071C329.661 41.4665 329.582 41.5 329.5 41.5C329.419 41.5 329.34 41.4665 329.283 41.4071L327.321 39.3851C327.26 39.3243 327.227 39.2406 327.228 39.1538C327.23 39.067 327.267 38.9849 327.33 38.9267C328.583 37.8444 330.418 37.8444 331.671 38.9267C331.734 38.9849 331.77 39.0671 331.772 39.1539Z" fill="black"/>
        <rect x="342.5" y="30.5" width="21.6077" height="11" rx="2.16667" stroke="black" stroke-opacity="0.6"/>
        <path d="M365.635 33.8823V38.1176C366.462 37.7589 367 36.9245 367 36C367 35.0755 366.462 34.241 365.635 33.8823Z" fill="black" fill-opacity="0.6"/>
        <rect x="344.055" y="32.1177" width="18.4972" height="7.76471" rx="1.33333" fill="black"/>
        <path d="M36.2414 41.2637C38.7536 41.2637 40.277 39.1323 40.277 35.7192V35.7046C40.277 32.2915 38.7536 30.1675 36.2414 30.1675C33.7292 30.1675 32.2204 32.2915 32.2204 35.7046V35.7192C32.2204 39.1323 33.7292 41.2637 36.2414 41.2637ZM36.2414 39.7329C34.8937 39.7329 34.1247 38.2241 34.1247 35.7192V35.7046C34.1247 33.1997 34.8937 31.7056 36.2414 31.7056C37.589 31.7056 38.3727 33.1997 38.3727 35.7046V35.7192C38.3727 38.2241 37.589 39.7329 36.2414 39.7329ZM45.9224 30.1675C43.63 30.1675 41.9967 31.7349 41.9967 33.8809V33.8955C41.9967 35.9023 43.4176 37.3818 45.4464 37.3818C46.8966 37.3818 47.8194 36.6421 48.2076 35.8071H48.3541C48.3541 35.8877 48.3468 35.9683 48.3468 36.0488C48.2662 38.0703 47.5557 39.7109 45.8785 39.7109C44.9483 39.7109 44.2965 39.2275 44.0181 38.4878L43.9962 38.4146H42.1358L42.1505 38.4951C42.4874 40.1138 43.9376 41.2637 45.8785 41.2637C48.5372 41.2637 50.1412 39.1543 50.1412 35.5947V35.5801C50.1412 31.7715 48.1783 30.1675 45.9224 30.1675ZM45.9151 35.9316C44.7139 35.9316 43.8424 35.0527 43.8424 33.8296V33.8149C43.8424 32.6357 44.7725 31.7056 45.9371 31.7056C47.109 31.7056 48.0245 32.6504 48.0245 33.8589V33.8735C48.0245 35.0674 47.109 35.9316 45.9151 35.9316ZM53.2964 34.1519C53.9702 34.1519 54.4609 33.6392 54.4609 32.9946C54.4609 32.3428 53.9702 31.8374 53.2964 31.8374C52.6299 31.8374 52.1318 32.3428 52.1318 32.9946C52.1318 33.6392 52.6299 34.1519 53.2964 34.1519ZM53.2964 39.5864C53.9702 39.5864 54.4609 39.0811 54.4609 38.4292C54.4609 37.7773 53.9702 37.272 53.2964 37.272C52.6299 37.272 52.1318 37.7773 52.1318 38.4292C52.1318 39.0811 52.6299 39.5864 53.2964 39.5864ZM61.5785 41H63.3876V38.9712H64.8085V37.4111H63.3876V30.4312H60.7143C59.2787 32.6138 57.7773 35.0454 56.4076 37.4258V38.9712H61.5785V41ZM58.1654 37.4551V37.3452C59.1908 35.5508 60.414 33.5952 61.498 31.9399H61.6078V37.4551H58.1654ZM69.0184 41H70.908V30.4312H69.0257L66.2645 32.3721V34.1519L68.8939 32.2915H69.0184V41Z" fill="black"/>
        <rect x="135" y="799" width="114" height="4" rx="2" fill="#202223"/>
    </g>
    <rect x="2.5" y="2.5" width="380" height="817" rx="32.5" stroke="#202223" stroke-width="5"/>
    <defs>
        <filter id="filter0_d_127_538" x="23" y="411" width="340" height="45" filterUnits="userSpaceOnUse" color-interpolation-filters="sRGB">
            <feFlood flood-opacity="0" result="BackgroundImageFix"/>
            <feColorMatrix in="SourceAlpha" type="matrix" values="0 0 0 0 0 0 0 0 0 0 0 0 0 0 0 0 0 0 127 0" result="hardAlpha"/>
            <feOffset dy="1"/>
            <feComposite in2="hardAlpha" operator="out"/>
            <feColorMatrix type="matrix" values="0 0 0 0 0 0 0 0 0 0 0 0 0 0 0 0 0 0 0.05 0"/>
            <feBlend mode="normal" in2="BackgroundImageFix" result="effect1_dropShadow_127_538"/>
            <feBlend mode="normal" in="SourceGraphic" in2="effect1_dropShadow_127_538" result="shape"/>
        </filter>
        <linearGradient id="paint0_linear_127_538" x1="23" y1="423.774" x2="415.964" y2="548.674" gradientUnits="userSpaceOnUse">
            <stop stop-color="#2B735D"/>
            <stop offset="1" stop-color="#85B0A3"/>
        </linearGradient>
        <clipPath id="clip0_127_538">
            <rect x="5" y="5" width="375" height="812" rx="30" fill="white"/>
        </clipPath>
    </defs>
</svg>