<svg width="385" height="822" viewBox="0 0 385 822" fill="none" xmlns="http://www.w3.org/2000/svg">
    <g clip-path="url(#clip0_127_495)">
        <rect x="5" y="5" width="375" height="812" rx="30" fill="white"/>
        <path d="M183.001 280.5L165.501 263L157.806 284.211C157.593 284.767 157.546 285.374 157.671 285.956C157.795 286.539 158.085 287.073 158.507 287.495C158.928 287.916 159.462 288.206 160.045 288.331C160.628 288.455 161.234 288.408 161.79 288.195L183.001 280.5Z" fill="#2B735D"/>
        <path opacity="0.2" d="M172.999 242.375L203.624 273L219.639 267.18C220.134 267 220.576 266.698 220.923 266.302C221.27 265.905 221.511 265.428 221.624 264.913C221.737 264.399 221.718 263.864 221.569 263.359C221.42 262.854 221.146 262.395 220.772 262.024L183.975 225.227C183.605 224.853 183.145 224.579 182.64 224.43C182.135 224.281 181.6 224.262 181.086 224.375C180.571 224.488 180.094 224.729 179.697 225.076C179.301 225.423 178.999 225.865 178.819 226.36L172.999 242.375Z" fill="#2B735D"/>
        <path d="M157.806 284.211L178.822 226.36C179.002 225.865 179.304 225.423 179.7 225.076C180.096 224.729 180.574 224.488 181.088 224.375C181.603 224.262 182.137 224.281 182.643 224.43C183.148 224.579 183.607 224.853 183.978 225.227L220.775 262.024C221.149 262.395 221.423 262.854 221.572 263.359C221.721 263.864 221.74 264.399 221.627 264.913C221.514 265.428 221.273 265.905 220.926 266.302C220.579 266.698 220.137 267 219.642 267.18L161.79 288.196C161.234 288.408 160.628 288.455 160.045 288.331C159.462 288.207 158.928 287.916 158.507 287.495C158.085 287.074 157.795 286.54 157.671 285.957C157.546 285.374 157.593 284.768 157.806 284.211V284.211Z" stroke="#2B735D" stroke-width="2" stroke-linecap="round" stroke-linejoin="round"/>
        <path d="M208.625 231.125C208.625 231.125 208.625 221.75 218 221.75C227.375 221.75 227.375 212.375 227.375 212.375" stroke="#2B735D" stroke-width="2" stroke-linecap="round" stroke-linejoin="round"/>
        <path d="M183.001 280.5L165.501 263" stroke="#2B735D" stroke-width="2" stroke-linecap="round" stroke-linejoin="round"/>
        <path d="M199.25 209.25V218.625" stroke="#2B735D" stroke-width="2" stroke-linecap="round" stroke-linejoin="round"/>
        <path d="M227.375 246.75L233.625 253" stroke="#2B735D" stroke-width="2" stroke-linecap="round" stroke-linejoin="round"/>
        <path d="M227.375 234.25L236.75 231.125" stroke="#2B735D" stroke-width="2" stroke-linecap="round" stroke-linejoin="round"/>
        <path d="M172.999 242.375L203.624 273" stroke="#2B735D" stroke-width="2" stroke-linecap="round" stroke-linejoin="round"/>
        <path d="M140.852 330.96L141.352 340.08H138.392L138.872 330.96H140.852ZM139.872 326.2C140.339 326.2 140.719 326.353 141.012 326.66C141.306 326.953 141.452 327.32 141.452 327.76C141.452 328.173 141.306 328.533 141.012 328.84C140.719 329.133 140.339 329.28 139.872 329.28C139.406 329.28 139.019 329.133 138.712 328.84C138.406 328.533 138.252 328.173 138.252 327.76C138.252 327.32 138.406 326.953 138.712 326.66C139.019 326.353 139.406 326.2 139.872 326.2ZM146.919 328.82H153.879V330.96H146.919V328.82ZM147.119 334.82H155.019V337H144.519V323H154.739V325.18H147.119V334.82ZM156.041 337L160.741 330.88L160.701 332.22L156.221 326.32H159.001L162.141 330.52H161.081L164.241 326.32H166.941L162.421 332.22L162.441 330.88L167.121 337H164.301L161.001 332.54L162.041 332.68L158.801 337H156.041ZM173.515 337.14C172.395 337.14 171.395 336.907 170.515 336.44C169.648 335.96 168.968 335.307 168.475 334.48C167.981 333.653 167.735 332.713 167.735 331.66C167.735 330.593 167.981 329.653 168.475 328.84C168.968 328.013 169.648 327.367 170.515 326.9C171.395 326.433 172.395 326.2 173.515 326.2C174.555 326.2 175.468 326.413 176.255 326.84C177.055 327.253 177.661 327.867 178.075 328.68L176.155 329.8C175.835 329.293 175.441 328.92 174.975 328.68C174.521 328.44 174.028 328.32 173.495 328.32C172.881 328.32 172.328 328.453 171.835 328.72C171.341 328.987 170.955 329.373 170.675 329.88C170.395 330.373 170.255 330.967 170.255 331.66C170.255 332.353 170.395 332.953 170.675 333.46C170.955 333.953 171.341 334.333 171.835 334.6C172.328 334.867 172.881 335 173.495 335C174.028 335 174.521 334.88 174.975 334.64C175.441 334.4 175.835 334.027 176.155 333.52L178.075 334.64C177.661 335.44 177.055 336.06 176.255 336.5C175.468 336.927 174.555 337.14 173.515 337.14ZM185.099 337.14C183.913 337.14 182.873 336.907 181.979 336.44C181.099 335.96 180.413 335.307 179.919 334.48C179.439 333.653 179.199 332.713 179.199 331.66C179.199 330.593 179.433 329.653 179.899 328.84C180.379 328.013 181.033 327.367 181.859 326.9C182.699 326.433 183.653 326.2 184.719 326.2C185.759 326.2 186.686 326.427 187.499 326.88C188.313 327.333 188.953 327.973 189.419 328.8C189.886 329.627 190.119 330.6 190.119 331.72C190.119 331.827 190.113 331.947 190.099 332.08C190.099 332.213 190.093 332.34 190.079 332.46H181.179V330.8H188.759L187.779 331.32C187.793 330.707 187.666 330.167 187.399 329.7C187.133 329.233 186.766 328.867 186.299 328.6C185.846 328.333 185.319 328.2 184.719 328.2C184.106 328.2 183.566 328.333 183.099 328.6C182.646 328.867 182.286 329.24 182.019 329.72C181.766 330.187 181.639 330.74 181.639 331.38V331.78C181.639 332.42 181.786 332.987 182.079 333.48C182.373 333.973 182.786 334.353 183.319 334.62C183.853 334.887 184.466 335.02 185.159 335.02C185.759 335.02 186.299 334.927 186.779 334.74C187.259 334.553 187.686 334.26 188.059 333.86L189.399 335.4C188.919 335.96 188.313 336.393 187.579 336.7C186.859 336.993 186.033 337.14 185.099 337.14ZM192.521 337V322.16H195.021V337H192.521ZM203.322 337.14C202.135 337.14 201.095 336.907 200.202 336.44C199.322 335.96 198.635 335.307 198.142 334.48C197.662 333.653 197.422 332.713 197.422 331.66C197.422 330.593 197.655 329.653 198.122 328.84C198.602 328.013 199.255 327.367 200.082 326.9C200.922 326.433 201.875 326.2 202.942 326.2C203.982 326.2 204.909 326.427 205.722 326.88C206.535 327.333 207.175 327.973 207.642 328.8C208.109 329.627 208.342 330.6 208.342 331.72C208.342 331.827 208.335 331.947 208.322 332.08C208.322 332.213 208.315 332.34 208.302 332.46H199.402V330.8H206.982L206.002 331.32C206.015 330.707 205.889 330.167 205.622 329.7C205.355 329.233 204.989 328.867 204.522 328.6C204.069 328.333 203.542 328.2 202.942 328.2C202.329 328.2 201.789 328.333 201.322 328.6C200.869 328.867 200.509 329.24 200.242 329.72C199.989 330.187 199.862 330.74 199.862 331.38V331.78C199.862 332.42 200.009 332.987 200.302 333.48C200.595 333.973 201.009 334.353 201.542 334.62C202.075 334.887 202.689 335.02 203.382 335.02C203.982 335.02 204.522 334.927 205.002 334.74C205.482 334.553 205.909 334.26 206.282 333.86L207.622 335.4C207.142 335.96 206.535 336.393 205.802 336.7C205.082 336.993 204.255 337.14 203.322 337.14ZM216.804 326.2C217.657 326.2 218.417 326.367 219.084 326.7C219.764 327.033 220.297 327.547 220.684 328.24C221.07 328.92 221.264 329.8 221.264 330.88V337H218.764V331.2C218.764 330.253 218.537 329.547 218.084 329.08C217.644 328.613 217.024 328.38 216.224 328.38C215.637 328.38 215.117 328.5 214.664 328.74C214.21 328.98 213.857 329.34 213.604 329.82C213.364 330.287 213.244 330.88 213.244 331.6V337H210.744V326.32H213.124V329.2L212.704 328.32C213.077 327.64 213.617 327.12 214.324 326.76C215.044 326.387 215.87 326.2 216.804 326.2ZM228.455 337.14C227.282 337.14 226.375 336.84 225.735 336.24C225.095 335.627 224.775 334.727 224.775 333.54V323.96H227.275V333.48C227.275 333.987 227.402 334.38 227.655 334.66C227.922 334.94 228.288 335.08 228.755 335.08C229.315 335.08 229.782 334.933 230.155 334.64L230.855 336.42C230.562 336.66 230.202 336.84 229.775 336.96C229.348 337.08 228.908 337.14 228.455 337.14ZM223.015 328.4V326.4H230.135V328.4H223.015ZM237.58 337.14C236.393 337.14 235.353 336.907 234.46 336.44C233.58 335.96 232.893 335.307 232.4 334.48C231.92 333.653 231.68 332.713 231.68 331.66C231.68 330.593 231.913 329.653 232.38 328.84C232.86 328.013 233.513 327.367 234.34 326.9C235.18 326.433 236.133 326.2 237.2 326.2C238.24 326.2 239.167 326.427 239.98 326.88C240.793 327.333 241.433 327.973 241.9 328.8C242.367 329.627 242.6 330.6 242.6 331.72C242.6 331.827 242.593 331.947 242.58 332.08C242.58 332.213 242.573 332.34 242.56 332.46H233.66V330.8H241.24L240.26 331.32C240.273 330.707 240.147 330.167 239.88 329.7C239.613 329.233 239.247 328.867 238.78 328.6C238.327 328.333 237.8 328.2 237.2 328.2C236.587 328.2 236.047 328.333 235.58 328.6C235.127 328.867 234.767 329.24 234.5 329.72C234.247 330.187 234.12 330.74 234.12 331.38V331.78C234.12 332.42 234.267 332.987 234.56 333.48C234.853 333.973 235.267 334.353 235.8 334.62C236.333 334.887 236.947 335.02 237.64 335.02C238.24 335.02 238.78 334.927 239.26 334.74C239.74 334.553 240.167 334.26 240.54 333.86L241.88 335.4C241.4 335.96 240.793 336.393 240.06 336.7C239.34 336.993 238.513 337.14 237.58 337.14ZM245.161 332.36L244.681 323H247.641L247.141 332.36H245.161ZM246.161 337.14C245.695 337.14 245.308 336.987 245.001 336.68C244.695 336.373 244.541 336.007 244.541 335.58C244.541 335.153 244.695 334.793 245.001 334.5C245.308 334.193 245.695 334.04 246.161 334.04C246.628 334.04 247.008 334.193 247.301 334.5C247.595 334.793 247.741 335.153 247.741 335.58C247.741 336.007 247.595 336.373 247.301 336.68C247.008 336.987 246.628 337.14 246.161 337.14Z" fill="#202223"/>
        <path d="M79.6052 365.112C82.1952 365.112 83.7492 363.614 83.7492 360.772V355.2H82.3912V360.716C82.3912 362.886 81.3832 363.866 79.6192 363.866C77.8552 363.866 76.8612 362.886 76.8612 360.716V355.2H75.4612V360.772C75.4612 363.614 77.0292 365.112 79.6052 365.112ZM88.5514 365.084C90.5254 365.084 91.7574 364.23 91.7574 362.886C91.7574 360.002 87.0534 361.43 87.0534 359.68C87.0534 359.092 87.6274 358.658 88.8034 358.658C89.5314 358.658 90.2734 358.812 90.9454 359.246L91.5194 358.182C90.8754 357.762 89.7834 357.51 88.8174 357.51C86.9134 357.51 85.7234 358.406 85.7234 359.736C85.7234 362.69 90.4134 361.248 90.4134 362.914C90.4134 363.544 89.8954 363.922 88.6494 363.922C87.6834 363.922 86.6754 363.6 86.0454 363.152L85.4854 364.216C86.1014 364.706 87.3194 365.084 88.5514 365.084ZM97.1891 363.6C96.9091 363.824 96.5311 363.95 96.1391 363.95C95.3971 363.95 94.9771 363.502 94.9771 362.704V358.686H97.1051V357.58H94.9771V355.956H93.6331V357.58H92.3731V358.686H93.6331V362.76C93.6331 364.258 94.4871 365.084 95.9851 365.084C96.5871 365.084 97.2031 364.916 97.6091 364.566L97.1891 363.6ZM105.694 361.332C105.694 359.05 104.168 357.51 102.026 357.51C99.8839 357.51 98.3019 359.092 98.3019 361.29C98.3019 363.502 99.8979 365.084 102.292 365.084C103.524 365.084 104.546 364.664 105.218 363.88L104.476 363.012C103.93 363.614 103.202 363.908 102.334 363.908C100.864 363.908 99.8139 363.04 99.6459 361.738H105.666C105.68 361.612 105.694 361.444 105.694 361.332ZM102.026 358.644C103.328 358.644 104.266 359.526 104.406 360.772H99.6459C99.7859 359.512 100.738 358.644 102.026 358.644ZM113.216 354.612V358.7C112.6 357.902 111.676 357.51 110.626 357.51C108.456 357.51 106.874 359.022 106.874 361.29C106.874 363.558 108.456 365.084 110.626 365.084C111.718 365.084 112.67 364.664 113.272 363.824V365H114.56V354.612H113.216ZM110.738 363.908C109.31 363.908 108.232 362.872 108.232 361.29C108.232 359.708 109.31 358.686 110.738 358.686C112.152 358.686 113.23 359.708 113.23 361.29C113.23 362.872 112.152 363.908 110.738 363.908ZM124.097 365.084C125.427 365.084 126.533 364.524 127.121 363.488L126.099 362.844C125.623 363.572 124.895 363.908 124.083 363.908C122.627 363.908 121.535 362.9 121.535 361.29C121.535 359.708 122.627 358.686 124.083 358.686C124.895 358.686 125.623 359.022 126.099 359.75L127.121 359.092C126.533 358.056 125.427 357.51 124.097 357.51C121.815 357.51 120.177 359.078 120.177 361.29C120.177 363.502 121.815 365.084 124.097 365.084ZM131.563 357.51C130.373 357.51 129.267 357.846 128.497 358.462L129.057 359.47C129.631 358.98 130.527 358.672 131.409 358.672C132.739 358.672 133.397 359.33 133.397 360.464V360.73H131.269C129.057 360.73 128.287 361.71 128.287 362.9C128.287 364.188 129.351 365.084 131.031 365.084C132.193 365.084 133.019 364.692 133.467 364.02V365H134.741V360.52C134.741 358.49 133.593 357.51 131.563 357.51ZM131.255 364.048C130.233 364.048 129.617 363.586 129.617 362.844C129.617 362.214 129.995 361.696 131.325 361.696H133.397V362.732C133.061 363.586 132.263 364.048 131.255 364.048ZM137.228 365H138.572V354.612H137.228V365ZM141.81 356.152C142.342 356.152 142.72 355.76 142.72 355.256C142.72 354.78 142.328 354.402 141.81 354.402C141.292 354.402 140.9 354.794 140.9 355.284C140.9 355.774 141.292 356.152 141.81 356.152ZM141.138 365H142.482V357.58H141.138V365ZM147.764 355.634C148.156 355.634 148.52 355.774 148.8 355.984L149.206 354.962C148.828 354.668 148.268 354.528 147.694 354.528C146.112 354.528 145.244 355.48 145.244 356.922V357.58H143.984V358.686H145.244V365H146.588V358.686H148.716V357.58H146.56V356.936C146.56 356.082 146.966 355.634 147.764 355.634ZM151.777 356.152C152.309 356.152 152.687 355.76 152.687 355.256C152.687 354.78 152.295 354.402 151.777 354.402C151.259 354.402 150.867 354.794 150.867 355.284C150.867 355.774 151.259 356.152 151.777 356.152ZM151.105 365H152.449V357.58H151.105V365ZM158.249 365.084C159.579 365.084 160.685 364.524 161.273 363.488L160.251 362.844C159.775 363.572 159.047 363.908 158.235 363.908C156.779 363.908 155.687 362.9 155.687 361.29C155.687 359.708 156.779 358.686 158.235 358.686C159.047 358.686 159.775 359.022 160.251 359.75L161.273 359.092C160.685 358.056 159.579 357.51 158.249 357.51C155.967 357.51 154.329 359.078 154.329 361.29C154.329 363.502 155.967 365.084 158.249 365.084ZM165.018 356.502H166.278L168.63 354.682H166.922L165.018 356.502ZM166.082 365.084C168.308 365.084 169.932 363.502 169.932 361.29C169.932 359.078 168.308 357.51 166.082 357.51C163.856 357.51 162.218 359.078 162.218 361.29C162.218 363.502 163.856 365.084 166.082 365.084ZM166.082 363.908C164.654 363.908 163.576 362.872 163.576 361.29C163.576 359.708 164.654 358.686 166.082 358.686C167.51 358.686 168.574 359.708 168.574 361.29C168.574 362.872 167.51 363.908 166.082 363.908ZM179.484 357.51C178.392 357.51 177.44 357.93 176.838 358.756V357.58H175.55V367.716H176.894V363.88C177.51 364.678 178.434 365.084 179.484 365.084C181.654 365.084 183.236 363.572 183.236 361.29C183.236 359.022 181.654 357.51 179.484 357.51ZM179.372 363.908C177.958 363.908 176.88 362.872 176.88 361.29C176.88 359.722 177.958 358.686 179.372 358.686C180.8 358.686 181.878 359.722 181.878 361.29C181.878 362.872 180.8 363.908 179.372 363.908ZM187.727 357.51C186.537 357.51 185.431 357.846 184.661 358.462L185.221 359.47C185.795 358.98 186.691 358.672 187.573 358.672C188.903 358.672 189.561 359.33 189.561 360.464V360.73H187.433C185.221 360.73 184.451 361.71 184.451 362.9C184.451 364.188 185.515 365.084 187.195 365.084C188.357 365.084 189.183 364.692 189.631 364.02V365H190.905V360.52C190.905 358.49 189.757 357.51 187.727 357.51ZM187.419 364.048C186.397 364.048 185.781 363.586 185.781 362.844C185.781 362.214 186.159 361.696 187.489 361.696H189.561V362.732C189.225 363.586 188.427 364.048 187.419 364.048ZM194.68 358.826V357.58H193.392V365H194.736V361.304C194.736 359.68 195.632 358.798 197.074 358.798C197.172 358.798 197.27 358.798 197.382 358.812V357.51C196.08 357.51 195.156 357.958 194.68 358.826ZM201.727 357.51C200.537 357.51 199.431 357.846 198.661 358.462L199.221 359.47C199.795 358.98 200.691 358.672 201.573 358.672C202.903 358.672 203.561 359.33 203.561 360.464V360.73H201.433C199.221 360.73 198.451 361.71 198.451 362.9C198.451 364.188 199.515 365.084 201.195 365.084C202.357 365.084 203.183 364.692 203.631 364.02V365H204.905V360.52C204.905 358.49 203.757 357.51 201.727 357.51ZM201.419 364.048C200.397 364.048 199.781 363.586 199.781 362.844C199.781 362.214 200.159 361.696 201.489 361.696H203.561V362.732C203.225 363.586 202.427 364.048 201.419 364.048ZM217.858 361.332C217.858 359.05 216.332 357.51 214.19 357.51C212.048 357.51 210.466 359.092 210.466 361.29C210.466 363.502 212.062 365.084 214.456 365.084C215.688 365.084 216.71 364.664 217.382 363.88L216.64 363.012C216.094 363.614 215.366 363.908 214.498 363.908C213.028 363.908 211.978 363.04 211.81 361.738H217.83C217.844 361.612 217.858 361.444 217.858 361.332ZM214.19 358.644C215.492 358.644 216.43 359.526 216.57 360.772H211.81C211.95 359.512 212.902 358.644 214.19 358.644ZM221.852 365.084C223.826 365.084 225.058 364.23 225.058 362.886C225.058 360.002 220.354 361.43 220.354 359.68C220.354 359.092 220.928 358.658 222.104 358.658C222.832 358.658 223.574 358.812 224.246 359.246L224.82 358.182C224.176 357.762 223.084 357.51 222.118 357.51C220.214 357.51 219.024 358.406 219.024 359.736C219.024 362.69 223.714 361.248 223.714 362.914C223.714 363.544 223.196 363.922 221.95 363.922C220.984 363.922 219.976 363.6 219.346 363.152L218.786 364.216C219.402 364.706 220.62 365.084 221.852 365.084ZM230.49 363.6C230.21 363.824 229.832 363.95 229.44 363.95C228.698 363.95 228.278 363.502 228.278 362.704V358.686H230.406V357.58H228.278V355.956H226.934V357.58H225.674V358.686H226.934V362.76C226.934 364.258 227.788 365.084 229.286 365.084C229.888 365.084 230.504 364.916 230.91 364.566L230.49 363.6ZM235.237 357.51C234.047 357.51 232.941 357.846 232.171 358.462L232.731 359.47C233.305 358.98 234.201 358.672 235.083 358.672C236.413 358.672 237.071 359.33 237.071 360.464V360.73H234.943C232.731 360.73 231.961 361.71 231.961 362.9C231.961 364.188 233.025 365.084 234.705 365.084C235.867 365.084 236.693 364.692 237.141 364.02V365H238.415V360.52C238.415 358.49 237.267 357.51 235.237 357.51ZM234.929 364.048C233.907 364.048 233.291 363.586 233.291 362.844C233.291 362.214 233.669 361.696 234.999 361.696H237.071V362.732C236.735 363.586 235.937 364.048 234.929 364.048ZM251.368 361.332C251.368 359.05 249.842 357.51 247.7 357.51C245.558 357.51 243.976 359.092 243.976 361.29C243.976 363.502 245.572 365.084 247.966 365.084C249.198 365.084 250.22 364.664 250.892 363.88L250.15 363.012C249.604 363.614 248.876 363.908 248.008 363.908C246.538 363.908 245.488 363.04 245.32 361.738H251.34C251.354 361.612 251.368 361.444 251.368 361.332ZM247.7 358.644C249.002 358.644 249.94 359.526 250.08 360.772H245.32C245.46 359.512 246.412 358.644 247.7 358.644ZM257.196 357.51C256.02 357.51 255.068 357.944 254.522 358.7V357.58H253.234V365H254.578V361.178C254.578 359.568 255.502 358.714 256.93 358.714C258.204 358.714 258.932 359.428 258.932 360.884V365H260.276V360.73C260.276 358.546 259.002 357.51 257.196 357.51ZM266.038 365.084C267.368 365.084 268.474 364.524 269.062 363.488L268.04 362.844C267.564 363.572 266.836 363.908 266.024 363.908C264.568 363.908 263.476 362.9 263.476 361.29C263.476 359.708 264.568 358.686 266.024 358.686C266.836 358.686 267.564 359.022 268.04 359.75L269.062 359.092C268.474 358.056 267.368 357.51 266.038 357.51C263.756 357.51 262.118 359.078 262.118 361.29C262.118 363.502 263.756 365.084 266.038 365.084ZM276.374 357.58V361.416C276.374 363.012 275.478 363.88 274.078 363.88C272.804 363.88 272.076 363.152 272.076 361.696V357.58H270.732V361.85C270.732 364.034 272.006 365.084 273.924 365.084C274.974 365.084 275.898 364.65 276.444 363.88V365H277.718V357.58H276.374ZM286.983 361.332C286.983 359.05 285.457 357.51 283.315 357.51C281.173 357.51 279.591 359.092 279.591 361.29C279.591 363.502 281.187 365.084 283.581 365.084C284.813 365.084 285.835 364.664 286.507 363.88L285.765 363.012C285.219 363.614 284.491 363.908 283.623 363.908C282.153 363.908 281.103 363.04 280.935 361.738H286.955C286.969 361.612 286.983 361.444 286.983 361.332ZM283.315 358.644C284.617 358.644 285.555 359.526 285.695 360.772H280.935C281.075 359.512 282.027 358.644 283.315 358.644ZM290.977 365.084C292.951 365.084 294.183 364.23 294.183 362.886C294.183 360.002 289.479 361.43 289.479 359.68C289.479 359.092 290.053 358.658 291.229 358.658C291.957 358.658 292.699 358.812 293.371 359.246L293.945 358.182C293.301 357.762 292.209 357.51 291.243 357.51C289.339 357.51 288.149 358.406 288.149 359.736C288.149 362.69 292.839 361.248 292.839 362.914C292.839 363.544 292.321 363.922 291.075 363.922C290.109 363.922 289.101 363.6 288.471 363.152L287.911 364.216C288.527 364.706 289.745 365.084 290.977 365.084ZM299.615 363.6C299.335 363.824 298.957 363.95 298.565 363.95C297.823 363.95 297.403 363.502 297.403 362.704V358.686H299.531V357.58H297.403V355.956H296.059V357.58H294.799V358.686H296.059V362.76C296.059 364.258 296.913 365.084 298.411 365.084C299.013 365.084 299.629 364.916 300.035 364.566L299.615 363.6ZM304.362 357.51C303.172 357.51 302.066 357.846 301.296 358.462L301.856 359.47C302.43 358.98 303.326 358.672 304.208 358.672C305.538 358.672 306.196 359.33 306.196 360.464V360.73H304.068C301.856 360.73 301.086 361.71 301.086 362.9C301.086 364.188 302.15 365.084 303.83 365.084C304.992 365.084 305.818 364.692 306.266 364.02V365H307.54V360.52C307.54 358.49 306.392 357.51 304.362 357.51ZM304.054 364.048C303.032 364.048 302.416 363.586 302.416 362.844C302.416 362.214 302.794 361.696 304.124 361.696H306.196V362.732C305.86 363.586 305.062 364.048 304.054 364.048ZM310.349 365.084C310.853 365.084 311.273 364.678 311.273 364.118C311.273 363.558 310.853 363.166 310.349 363.166C309.831 363.166 309.397 363.558 309.397 364.118C309.397 364.678 309.831 365.084 310.349 365.084ZM127.725 373.2H126.339L123.189 378.366L120.053 373.2H118.555L122.447 379.584V383H123.833V379.612L127.725 373.2ZM130.736 375.51C129.546 375.51 128.44 375.846 127.67 376.462L128.23 377.47C128.804 376.98 129.7 376.672 130.582 376.672C131.912 376.672 132.57 377.33 132.57 378.464V378.73H130.442C128.23 378.73 127.46 379.71 127.46 380.9C127.46 382.188 128.524 383.084 130.204 383.084C131.366 383.084 132.192 382.692 132.64 382.02V383H133.914V378.52C133.914 376.49 132.766 375.51 130.736 375.51ZM130.428 382.048C129.406 382.048 128.79 381.586 128.79 380.844C128.79 380.214 129.168 379.696 130.498 379.696H132.57V380.732C132.234 381.586 131.436 382.048 130.428 382.048ZM144.095 375.51C143.003 375.51 142.051 375.93 141.449 376.756V375.58H140.161V385.716H141.505V381.88C142.121 382.678 143.045 383.084 144.095 383.084C146.265 383.084 147.847 381.572 147.847 379.29C147.847 377.022 146.265 375.51 144.095 375.51ZM143.983 381.908C142.569 381.908 141.491 380.872 141.491 379.29C141.491 377.722 142.569 376.686 143.983 376.686C145.411 376.686 146.489 377.722 146.489 379.29C146.489 380.872 145.411 381.908 143.983 381.908ZM155.276 375.58V379.416C155.276 381.012 154.38 381.88 152.98 381.88C151.706 381.88 150.978 381.152 150.978 379.696V375.58H149.634V379.85C149.634 382.034 150.908 383.084 152.826 383.084C153.876 383.084 154.8 382.65 155.346 381.88V383H156.62V375.58H155.276ZM165.884 379.332C165.884 377.05 164.358 375.51 162.216 375.51C160.074 375.51 158.492 377.092 158.492 379.29C158.492 381.502 160.088 383.084 162.482 383.084C163.714 383.084 164.736 382.664 165.408 381.88L164.666 381.012C164.12 381.614 163.392 381.908 162.524 381.908C161.054 381.908 160.004 381.04 159.836 379.738H165.856C165.87 379.612 165.884 379.444 165.884 379.332ZM162.216 376.644C163.518 376.644 164.456 377.526 164.596 378.772H159.836C159.976 377.512 160.928 376.644 162.216 376.644ZM173.407 372.612V376.7C172.791 375.902 171.867 375.51 170.817 375.51C168.647 375.51 167.065 377.022 167.065 379.29C167.065 381.558 168.647 383.084 170.817 383.084C171.909 383.084 172.861 382.664 173.463 381.824V383H174.751V372.612H173.407ZM170.929 381.908C169.501 381.908 168.423 380.872 168.423 379.29C168.423 377.708 169.501 376.686 170.929 376.686C172.343 376.686 173.421 377.708 173.421 379.29C173.421 380.872 172.343 381.908 170.929 381.908ZM184 379.332C184 377.05 182.474 375.51 180.332 375.51C178.19 375.51 176.608 377.092 176.608 379.29C176.608 381.502 178.204 383.084 180.598 383.084C181.83 383.084 182.852 382.664 183.524 381.88L182.782 381.012C182.236 381.614 181.508 381.908 180.64 381.908C179.17 381.908 178.12 381.04 177.952 379.738H183.972C183.986 379.612 184 379.444 184 379.332ZM180.332 376.644C181.634 376.644 182.572 377.526 182.712 378.772H177.952C178.092 377.512 179.044 376.644 180.332 376.644ZM187.994 383.084C189.968 383.084 191.2 382.23 191.2 380.886C191.2 378.002 186.496 379.43 186.496 377.68C186.496 377.092 187.07 376.658 188.246 376.658C188.974 376.658 189.716 376.812 190.388 377.246L190.962 376.182C190.318 375.762 189.226 375.51 188.26 375.51C186.356 375.51 185.166 376.406 185.166 377.736C185.166 380.69 189.856 379.248 189.856 380.914C189.856 381.544 189.338 381.922 188.092 381.922C187.126 381.922 186.118 381.6 185.488 381.152L184.928 382.216C185.544 382.706 186.762 383.084 187.994 383.084ZM200.573 375.51C199.481 375.51 198.529 375.93 197.927 376.756V375.58H196.639V385.716H197.983V381.88C198.599 382.678 199.523 383.084 200.573 383.084C202.743 383.084 204.325 381.572 204.325 379.29C204.325 377.022 202.743 375.51 200.573 375.51ZM200.461 381.908C199.047 381.908 197.969 380.872 197.969 379.29C197.969 377.722 199.047 376.686 200.461 376.686C201.889 376.686 202.967 377.722 202.967 379.29C202.967 380.872 201.889 381.908 200.461 381.908ZM208.816 375.51C207.626 375.51 206.52 375.846 205.75 376.462L206.31 377.47C206.884 376.98 207.78 376.672 208.662 376.672C209.992 376.672 210.65 377.33 210.65 378.464V378.73H208.522C206.31 378.73 205.54 379.71 205.54 380.9C205.54 382.188 206.604 383.084 208.284 383.084C209.446 383.084 210.272 382.692 210.72 382.02V383H211.994V378.52C211.994 376.49 210.846 375.51 208.816 375.51ZM208.508 382.048C207.486 382.048 206.87 381.586 206.87 380.844C206.87 380.214 207.248 379.696 208.578 379.696H210.65V380.732C210.314 381.586 209.516 382.048 208.508 382.048ZM215.769 376.826V375.58H214.481V383H215.825V379.304C215.825 377.68 216.721 376.798 218.163 376.798C218.261 376.798 218.359 376.798 218.471 376.812V375.51C217.169 375.51 216.245 375.958 215.769 376.826ZM224.18 381.6C223.9 381.824 223.522 381.95 223.13 381.95C222.388 381.95 221.968 381.502 221.968 380.704V376.686H224.096V375.58H221.968V373.956H220.624V375.58H219.364V376.686H220.624V380.76C220.624 382.258 221.478 383.084 222.976 383.084C223.578 383.084 224.194 382.916 224.6 382.566L224.18 381.6ZM226.897 374.152C227.429 374.152 227.807 373.76 227.807 373.256C227.807 372.78 227.415 372.402 226.897 372.402C226.379 372.402 225.987 372.794 225.987 373.284C225.987 373.774 226.379 374.152 226.897 374.152ZM226.225 383H227.569V375.58H226.225V383ZM233.369 383.084C234.699 383.084 235.805 382.524 236.393 381.488L235.371 380.844C234.895 381.572 234.167 381.908 233.355 381.908C231.899 381.908 230.807 380.9 230.807 379.29C230.807 377.708 231.899 376.686 233.355 376.686C234.167 376.686 234.895 377.022 235.371 377.75L236.393 377.092C235.805 376.056 234.699 375.51 233.369 375.51C231.087 375.51 229.449 377.078 229.449 379.29C229.449 381.502 231.087 383.084 233.369 383.084ZM238.805 374.152C239.337 374.152 239.715 373.76 239.715 373.256C239.715 372.78 239.323 372.402 238.805 372.402C238.287 372.402 237.895 372.794 237.895 373.284C237.895 373.774 238.287 374.152 238.805 374.152ZM238.133 383H239.477V375.58H238.133V383ZM245.978 375.51C244.886 375.51 243.934 375.93 243.332 376.756V375.58H242.044V385.716H243.388V381.88C244.004 382.678 244.928 383.084 245.978 383.084C248.148 383.084 249.73 381.572 249.73 379.29C249.73 377.022 248.148 375.51 245.978 375.51ZM245.866 381.908C244.452 381.908 243.374 380.872 243.374 379.29C243.374 377.722 244.452 376.686 245.866 376.686C247.294 376.686 248.372 377.722 248.372 379.29C248.372 380.872 247.294 381.908 245.866 381.908ZM254.22 375.51C253.03 375.51 251.924 375.846 251.154 376.462L251.714 377.47C252.288 376.98 253.184 376.672 254.066 376.672C255.396 376.672 256.054 377.33 256.054 378.464V378.73H253.926C251.714 378.73 250.944 379.71 250.944 380.9C250.944 382.188 252.008 383.084 253.688 383.084C254.85 383.084 255.676 382.692 256.124 382.02V383H257.398V378.52C257.398 376.49 256.25 375.51 254.22 375.51ZM253.912 382.048C252.89 382.048 252.274 381.586 252.274 380.844C252.274 380.214 252.652 379.696 253.982 379.696H256.054V380.732C255.718 381.586 254.92 382.048 253.912 382.048ZM261.173 376.826V375.58H259.885V383H261.229V379.304C261.229 377.68 262.125 376.798 263.567 376.798C263.665 376.798 263.763 376.798 263.875 376.812V375.51C262.573 375.51 261.649 375.958 261.173 376.826ZM265.813 383.084C266.317 383.084 266.737 382.678 266.737 382.118C266.737 381.558 266.317 381.166 265.813 381.166C265.295 381.166 264.861 381.558 264.861 382.118C264.861 382.678 265.295 383.084 265.813 383.084Z" fill="#757575"/>
        <g filter="url(#filter0_d_127_495)">
            <rect x="23" y="411" width="340" height="44" rx="8" fill="url(#paint0_linear_127_495)" shape-rendering="crispEdges"/>
            <path d="M162.293 438.668C164.001 438.668 165.415 438.052 166.339 436.918L164.883 435.574C164.225 436.344 163.399 436.736 162.419 436.736C160.585 436.736 159.283 435.448 159.283 433.6C159.283 431.752 160.585 430.464 162.419 430.464C163.399 430.464 164.225 430.856 164.883 431.612L166.339 430.268C165.415 429.148 164.001 428.532 162.307 428.532C159.255 428.532 156.987 430.646 156.987 433.6C156.987 436.554 159.255 438.668 162.293 438.668ZM171.041 438.612C173.435 438.612 175.171 437.002 175.171 434.734C175.171 432.466 173.435 430.856 171.041 430.856C168.647 430.856 166.897 432.466 166.897 434.734C166.897 437.002 168.647 438.612 171.041 438.612ZM171.041 436.82C169.949 436.82 169.109 436.036 169.109 434.734C169.109 433.432 169.949 432.648 171.041 432.648C172.133 432.648 172.959 433.432 172.959 434.734C172.959 436.036 172.133 436.82 171.041 436.82ZM181.209 430.856C180.187 430.856 179.305 431.206 178.717 431.85V430.968H176.631V438.5H178.815V434.776C178.815 433.39 179.571 432.746 180.621 432.746C181.587 432.746 182.147 433.306 182.147 434.524V438.5H184.331V434.188C184.331 431.892 182.987 430.856 181.209 430.856ZM190.581 436.596C190.343 436.778 190.021 436.876 189.699 436.876C189.111 436.876 188.761 436.526 188.761 435.882V432.816H190.637V431.136H188.761V429.302H186.577V431.136H185.415V432.816H186.577V435.91C186.577 437.702 187.613 438.612 189.391 438.612C190.063 438.612 190.721 438.458 191.169 438.136L190.581 436.596ZM193.487 429.918C194.299 429.918 194.845 429.386 194.845 428.658C194.845 427.986 194.299 427.482 193.487 427.482C192.675 427.482 192.129 428.014 192.129 428.7C192.129 429.386 192.675 429.918 193.487 429.918ZM192.395 438.5H194.579V430.968H192.395V438.5ZM201.184 430.856C200.162 430.856 199.28 431.206 198.692 431.85V430.968H196.606V438.5H198.79V434.776C198.79 433.39 199.546 432.746 200.596 432.746C201.562 432.746 202.122 433.306 202.122 434.524V438.5H204.306V434.188C204.306 431.892 202.962 430.856 201.184 430.856ZM211.689 430.968V434.692C211.689 436.078 210.961 436.722 209.953 436.722C208.987 436.722 208.427 436.162 208.427 434.902V430.968H206.243V435.224C206.243 437.548 207.573 438.612 209.463 438.612C210.387 438.612 211.227 438.262 211.801 437.604V438.5H213.873V430.968H211.689ZM218.935 430.856C217.731 430.856 216.513 431.178 215.687 431.766L216.471 433.292C217.017 432.858 217.843 432.592 218.641 432.592C219.817 432.592 220.377 433.138 220.377 434.076H218.641C216.345 434.076 215.407 435 215.407 436.33C215.407 437.632 216.457 438.612 218.221 438.612C219.327 438.612 220.111 438.248 220.517 437.562V438.5H222.561V434.202C222.561 431.92 221.231 430.856 218.935 430.856ZM218.767 437.142C217.997 437.142 217.535 436.778 217.535 436.232C217.535 435.728 217.857 435.35 218.879 435.35H220.377V436.12C220.125 436.806 219.495 437.142 218.767 437.142ZM226.623 431.962V430.968H224.537V438.5H226.721V434.944C226.721 433.502 227.519 432.844 228.723 432.844C228.891 432.844 229.031 432.858 229.213 432.872V430.856C228.051 430.856 227.155 431.234 226.623 431.962Z" fill="white"/>
        </g>
        <rect x="23" y="479" width="340" height="1" fill="#F5F5F5"/>
        <path d="M57.1506 517H62.8986V515.956H58.3506V508.6H57.1506V517ZM66.4588 510.58C65.4388 510.58 64.4908 510.868 63.8308 511.396L64.3108 512.26C64.8028 511.84 65.5708 511.576 66.3268 511.576C67.4668 511.576 68.0308 512.14 68.0308 513.112V513.34H66.2068C64.3108 513.34 63.6508 514.18 63.6508 515.2C63.6508 516.304 64.5628 517.072 66.0028 517.072C66.9988 517.072 67.7068 516.736 68.0908 516.16V517H69.1828V513.16C69.1828 511.42 68.1988 510.58 66.4588 510.58ZM66.1948 516.184C65.3188 516.184 64.7908 515.788 64.7908 515.152C64.7908 514.612 65.1148 514.168 66.2548 514.168H68.0308V515.056C67.7428 515.788 67.0588 516.184 66.1948 516.184ZM80.2853 513.856C80.2853 511.9 78.9773 510.58 77.1413 510.58C75.3053 510.58 73.9493 511.936 73.9493 513.82C73.9493 515.716 75.3173 517.072 77.3693 517.072C78.4253 517.072 79.3013 516.712 79.8773 516.04L79.2413 515.296C78.7733 515.812 78.1493 516.064 77.4053 516.064C76.1453 516.064 75.2453 515.32 75.1013 514.204H80.2613C80.2733 514.096 80.2853 513.952 80.2853 513.856ZM77.1413 511.552C78.2573 511.552 79.0613 512.308 79.1813 513.376H75.1013C75.2213 512.296 76.0373 511.552 77.1413 511.552ZM85.281 510.58C84.273 510.58 83.457 510.952 82.989 511.6V510.64H81.885V517H83.037V513.724C83.037 512.344 83.829 511.612 85.053 511.612C86.145 511.612 86.769 512.224 86.769 513.472V517H87.921V513.34C87.921 511.468 86.829 510.58 85.281 510.58ZM92.8601 517.072C94.0001 517.072 94.9481 516.592 95.4521 515.704L94.5761 515.152C94.1681 515.776 93.5441 516.064 92.8481 516.064C91.6001 516.064 90.6641 515.2 90.6641 513.82C90.6641 512.464 91.6001 511.588 92.8481 511.588C93.5441 511.588 94.1681 511.876 94.5761 512.5L95.4521 511.936C94.9481 511.048 94.0001 510.58 92.8601 510.58C90.9041 510.58 89.5001 511.924 89.5001 513.82C89.5001 515.716 90.9041 517.072 92.8601 517.072ZM101.72 510.64V513.928C101.72 515.296 100.952 516.04 99.7516 516.04C98.6596 516.04 98.0356 515.416 98.0356 514.168V510.64H96.8836V514.3C96.8836 516.172 97.9756 517.072 99.6196 517.072C100.52 517.072 101.312 516.7 101.78 516.04V517H102.872V510.64H101.72ZM110.813 513.856C110.813 511.9 109.505 510.58 107.669 510.58C105.833 510.58 104.477 511.936 104.477 513.82C104.477 515.716 105.845 517.072 107.897 517.072C108.953 517.072 109.829 516.712 110.405 516.04L109.769 515.296C109.301 515.812 108.677 516.064 107.933 516.064C106.673 516.064 105.773 515.32 105.629 514.204H110.789C110.801 514.096 110.813 513.952 110.813 513.856ZM107.669 511.552C108.785 511.552 109.589 512.308 109.709 513.376H105.629C105.749 512.296 106.565 511.552 107.669 511.552ZM114.236 517.072C115.928 517.072 116.984 516.34 116.984 515.188C116.984 512.716 112.952 513.94 112.952 512.44C112.952 511.936 113.444 511.564 114.452 511.564C115.076 511.564 115.712 511.696 116.288 512.068L116.78 511.156C116.228 510.796 115.292 510.58 114.464 510.58C112.832 510.58 111.812 511.348 111.812 512.488C111.812 515.02 115.832 513.784 115.832 515.212C115.832 515.752 115.388 516.076 114.32 516.076C113.492 516.076 112.628 515.8 112.088 515.416L111.608 516.328C112.136 516.748 113.18 517.072 114.236 517.072ZM121.64 515.8C121.4 515.992 121.076 516.1 120.74 516.1C120.104 516.1 119.744 515.716 119.744 515.032V511.588H121.568V510.64H119.744V509.248H118.592V510.64H117.512V511.588H118.592V515.08C118.592 516.364 119.324 517.072 120.608 517.072C121.124 517.072 121.652 516.928 122 516.628L121.64 515.8ZM125.709 510.58C124.689 510.58 123.741 510.868 123.081 511.396L123.561 512.26C124.053 511.84 124.821 511.576 125.577 511.576C126.717 511.576 127.281 512.14 127.281 513.112V513.34H125.457C123.561 513.34 122.901 514.18 122.901 515.2C122.901 516.304 123.813 517.072 125.253 517.072C126.249 517.072 126.957 516.736 127.341 516.16V517H128.433V513.16C128.433 511.42 127.449 510.58 125.709 510.58ZM125.445 516.184C124.569 516.184 124.041 515.788 124.041 515.152C124.041 514.612 124.365 514.168 125.505 514.168H127.281V515.056C126.993 515.788 126.309 516.184 125.445 516.184ZM137.003 515.8C136.763 515.992 136.439 516.1 136.103 516.1C135.467 516.1 135.107 515.716 135.107 515.032V511.588H136.931V510.64H135.107V509.248H133.955V510.64H132.875V511.588H133.955V515.08C133.955 516.364 134.687 517.072 135.971 517.072C136.487 517.072 137.015 516.928 137.363 516.628L137.003 515.8ZM141.269 517.072C143.177 517.072 144.569 515.716 144.569 513.82C144.569 511.924 143.177 510.58 141.269 510.58C139.361 510.58 137.957 511.924 137.957 513.82C137.957 515.716 139.361 517.072 141.269 517.072ZM141.269 516.064C140.045 516.064 139.121 515.176 139.121 513.82C139.121 512.464 140.045 511.588 141.269 511.588C142.493 511.588 143.405 512.464 143.405 513.82C143.405 515.176 142.493 516.064 141.269 516.064ZM154.118 510.58C153.038 510.58 152.15 511.036 151.67 511.756C151.25 510.964 150.434 510.58 149.462 510.58C148.502 510.58 147.722 510.94 147.266 511.588V510.64H146.162V517H147.314V513.724C147.314 512.344 148.07 511.612 149.222 511.612C150.266 511.612 150.866 512.224 150.866 513.472V517H152.018V513.724C152.018 512.344 152.774 511.612 153.926 511.612C154.97 511.612 155.57 512.224 155.57 513.472V517H156.722V513.34C156.722 511.468 155.666 510.58 154.118 510.58ZM161.158 510.58C160.138 510.58 159.19 510.868 158.53 511.396L159.01 512.26C159.502 511.84 160.27 511.576 161.026 511.576C162.166 511.576 162.73 512.14 162.73 513.112V513.34H160.906C159.01 513.34 158.35 514.18 158.35 515.2C158.35 516.304 159.262 517.072 160.702 517.072C161.698 517.072 162.406 516.736 162.79 516.16V517H163.882V513.16C163.882 511.42 162.898 510.58 161.158 510.58ZM160.894 516.184C160.018 516.184 159.49 515.788 159.49 515.152C159.49 514.612 159.814 514.168 160.954 514.168H162.73V515.056C162.442 515.788 161.758 516.184 160.894 516.184ZM167.118 511.708V510.64H166.014V517H167.166V513.832C167.166 512.44 167.934 511.684 169.17 511.684C169.254 511.684 169.338 511.684 169.434 511.696V510.58C168.318 510.58 167.526 510.964 167.118 511.708ZM175.438 508.156H173.974L172.342 509.716H173.422L175.438 508.156ZM173.158 510.58C172.138 510.58 171.19 510.868 170.53 511.396L171.01 512.26C171.502 511.84 172.27 511.576 173.026 511.576C174.166 511.576 174.73 512.14 174.73 513.112V513.34H172.906C171.01 513.34 170.35 514.18 170.35 515.2C170.35 516.304 171.262 517.072 172.702 517.072C173.698 517.072 174.406 516.736 174.79 516.16V517H175.882V513.16C175.882 511.42 174.898 510.58 173.158 510.58ZM172.894 516.184C172.018 516.184 171.49 515.788 171.49 515.152C171.49 514.612 171.814 514.168 172.954 514.168H174.73V515.056C174.442 515.788 173.758 516.184 172.894 516.184ZM183.553 510.58C182.533 510.58 181.585 510.868 180.925 511.396L181.405 512.26C181.897 511.84 182.665 511.576 183.421 511.576C184.561 511.576 185.125 512.14 185.125 513.112V513.34H183.301C181.405 513.34 180.745 514.18 180.745 515.2C180.745 516.304 181.657 517.072 183.097 517.072C184.093 517.072 184.801 516.736 185.185 516.16V517H186.277V513.16C186.277 511.42 185.293 510.58 183.553 510.58ZM183.289 516.184C182.413 516.184 181.885 515.788 181.885 515.152C181.885 514.612 182.209 514.168 183.349 514.168H185.125V515.056C184.837 515.788 184.153 516.184 183.289 516.184ZM188.408 517H189.56V508.096H188.408V517ZM192.864 511.708V510.64H191.76V517H192.912V513.832C192.912 512.44 193.68 511.684 194.916 511.684C195 511.684 195.084 511.684 195.18 511.696V510.58C194.064 510.58 193.272 510.964 192.864 511.708ZM202.289 513.856C202.289 511.9 200.981 510.58 199.145 510.58C197.309 510.58 195.953 511.936 195.953 513.82C195.953 515.716 197.321 517.072 199.373 517.072C200.429 517.072 201.305 516.712 201.881 516.04L201.245 515.296C200.777 515.812 200.153 516.064 199.409 516.064C198.149 516.064 197.249 515.32 197.105 514.204H202.265C202.277 514.096 202.289 513.952 202.289 513.856ZM199.145 511.552C200.261 511.552 201.065 512.308 201.185 513.376H197.105C197.225 512.296 198.041 511.552 199.145 511.552ZM208.737 508.096V511.6C208.209 510.916 207.417 510.58 206.517 510.58C204.657 510.58 203.301 511.876 203.301 513.82C203.301 515.764 204.657 517.072 206.517 517.072C207.453 517.072 208.269 516.712 208.785 515.992V517H209.889V508.096H208.737ZM206.613 516.064C205.389 516.064 204.465 515.176 204.465 513.82C204.465 512.464 205.389 511.588 206.613 511.588C207.825 511.588 208.749 512.464 208.749 513.82C208.749 515.176 207.825 516.064 206.613 516.064ZM217.817 513.856C217.817 511.9 216.509 510.58 214.673 510.58C212.837 510.58 211.481 511.936 211.481 513.82C211.481 515.716 212.849 517.072 214.901 517.072C215.957 517.072 216.833 516.712 217.409 516.04L216.773 515.296C216.305 515.812 215.681 516.064 214.937 516.064C213.677 516.064 212.777 515.32 212.633 514.204H217.793C217.805 514.096 217.817 513.952 217.817 513.856ZM214.673 511.552C215.789 511.552 216.593 512.308 216.713 513.376H212.633C212.753 512.296 213.569 511.552 214.673 511.552ZM224.264 508.096V511.6C223.736 510.916 222.944 510.58 222.044 510.58C220.184 510.58 218.828 511.876 218.828 513.82C218.828 515.764 220.184 517.072 222.044 517.072C222.98 517.072 223.796 516.712 224.312 515.992V517H225.416V508.096H224.264ZM222.14 516.064C220.916 516.064 219.992 515.176 219.992 513.82C219.992 512.464 220.916 511.588 222.14 511.588C223.352 511.588 224.276 512.464 224.276 513.82C224.276 515.176 223.352 516.064 222.14 516.064ZM230.32 517.072C232.228 517.072 233.62 515.716 233.62 513.82C233.62 511.924 232.228 510.58 230.32 510.58C228.412 510.58 227.008 511.924 227.008 513.82C227.008 515.716 228.412 517.072 230.32 517.072ZM230.32 516.064C229.096 516.064 228.172 515.176 228.172 513.82C228.172 512.464 229.096 511.588 230.32 511.588C231.544 511.588 232.456 512.464 232.456 513.82C232.456 515.176 231.544 516.064 230.32 516.064ZM236.317 511.708V510.64H235.213V517H236.365V513.832C236.365 512.44 237.133 511.684 238.369 511.684C238.453 511.684 238.537 511.684 238.633 511.696V510.58C237.517 510.58 236.725 510.964 236.317 511.708ZM248.206 508.096V511.6C247.678 510.916 246.886 510.58 245.986 510.58C244.126 510.58 242.77 511.876 242.77 513.82C242.77 515.764 244.126 517.072 245.986 517.072C246.922 517.072 247.738 516.712 248.254 515.992V517H249.358V508.096H248.206ZM246.082 516.064C244.858 516.064 243.934 515.176 243.934 513.82C243.934 512.464 244.858 511.588 246.082 511.588C247.294 511.588 248.218 512.464 248.218 513.82C248.218 515.176 247.294 516.064 246.082 516.064ZM257.285 513.856C257.285 511.9 255.977 510.58 254.141 510.58C252.305 510.58 250.949 511.936 250.949 513.82C250.949 515.716 252.317 517.072 254.369 517.072C255.425 517.072 256.301 516.712 256.877 516.04L256.241 515.296C255.773 515.812 255.149 516.064 254.405 516.064C253.145 516.064 252.245 515.32 252.101 514.204H257.261C257.273 514.096 257.285 513.952 257.285 513.856ZM254.141 511.552C255.257 511.552 256.061 512.308 256.181 513.376H252.101C252.221 512.296 253.037 511.552 254.141 511.552ZM261.112 508.6V509.644H263.008V517H264.196V508.6H261.112ZM269.465 517.096C271.421 517.096 272.885 515.536 272.885 512.8C272.885 510.064 271.421 508.504 269.465 508.504C267.497 508.504 266.033 510.064 266.033 512.8C266.033 515.536 267.497 517.096 269.465 517.096ZM269.465 516.028C268.145 516.028 267.233 514.948 267.233 512.8C267.233 510.652 268.145 509.572 269.465 509.572C270.773 509.572 271.685 510.652 271.685 512.8C271.685 514.948 270.773 516.028 269.465 516.028ZM285.732 510.58C284.652 510.58 283.764 511.036 283.284 511.756C282.864 510.964 282.048 510.58 281.076 510.58C280.116 510.58 279.336 510.94 278.88 511.588V510.64H277.776V517H278.928V513.724C278.928 512.344 279.684 511.612 280.836 511.612C281.88 511.612 282.48 512.224 282.48 513.472V517H283.632V513.724C283.632 512.344 284.388 511.612 285.54 511.612C286.584 511.612 287.184 512.224 287.184 513.472V517H288.336V513.34C288.336 511.468 287.28 510.58 285.732 510.58ZM291.031 509.416C291.487 509.416 291.811 509.08 291.811 508.648C291.811 508.24 291.475 507.916 291.031 507.916C290.587 507.916 290.251 508.252 290.251 508.672C290.251 509.092 290.587 509.416 291.031 509.416ZM290.455 517H291.607V510.64H290.455V517ZM297.203 510.58C296.195 510.58 295.379 510.952 294.911 511.6V510.64H293.807V517H294.959V513.724C294.959 512.344 295.751 511.612 296.975 511.612C298.067 511.612 298.691 512.224 298.691 513.472V517H299.843V513.34C299.843 511.468 298.751 510.58 297.203 510.58ZM306.751 510.64V513.928C306.751 515.296 305.983 516.04 304.783 516.04C303.691 516.04 303.067 515.416 303.067 514.168V510.64H301.915V514.3C301.915 516.172 303.007 517.072 304.651 517.072C305.551 517.072 306.343 516.7 306.811 516.04V517H307.903V510.64H306.751ZM313.312 515.8C313.072 515.992 312.748 516.1 312.412 516.1C311.776 516.1 311.416 515.716 311.416 515.032V511.588H313.24V510.64H311.416V509.248H310.264V510.64H309.184V511.588H310.264V515.08C310.264 516.364 310.996 517.072 312.28 517.072C312.796 517.072 313.324 516.928 313.672 516.628L313.312 515.8ZM317.578 517.072C319.486 517.072 320.878 515.716 320.878 513.82C320.878 511.924 319.486 510.58 317.578 510.58C315.67 510.58 314.266 511.924 314.266 513.82C314.266 515.716 315.67 517.072 317.578 517.072ZM317.578 516.064C316.354 516.064 315.43 515.176 315.43 513.82C315.43 512.464 316.354 511.588 317.578 511.588C318.802 511.588 319.714 512.464 319.714 513.82C319.714 515.176 318.802 516.064 317.578 516.064ZM324.295 517.072C325.987 517.072 327.043 516.34 327.043 515.188C327.043 512.716 323.011 513.94 323.011 512.44C323.011 511.936 323.503 511.564 324.511 511.564C325.135 511.564 325.771 511.696 326.347 512.068L326.839 511.156C326.287 510.796 325.351 510.58 324.523 510.58C322.891 510.58 321.871 511.348 321.871 512.488C321.871 515.02 325.891 513.784 325.891 515.212C325.891 515.752 325.447 516.076 324.379 516.076C323.551 516.076 322.687 515.8 322.147 515.416L321.667 516.328C322.195 516.748 323.239 517.072 324.295 517.072ZM328.759 517.072C329.191 517.072 329.551 516.724 329.551 516.244C329.551 515.764 329.191 515.428 328.759 515.428C328.315 515.428 327.943 515.764 327.943 516.244C327.943 516.724 328.315 517.072 328.759 517.072Z" fill="#757575"/>
        <path d="M301.5 37.5H302.5C303.052 37.5 303.5 37.9477 303.5 38.5V40.5C303.5 41.0523 303.052 41.5 302.5 41.5H301.5C300.948 41.5 300.5 41.0523 300.5 40.5V38.5C300.5 37.9477 300.948 37.5 301.5 37.5Z" fill="black"/>
        <path d="M306 35.5H307C307.552 35.5 308 35.9477 308 36.5V40.5C308 41.0523 307.552 41.5 307 41.5H306C305.448 41.5 305 41.0523 305 40.5V36.5C305 35.9477 305.448 35.5 306 35.5Z" fill="black"/>
        <path d="M310.5 33.5H311.5C312.052 33.5 312.5 33.9298 312.5 34.46V40.54C312.5 41.0702 312.052 41.5 311.5 41.5H310.5C309.948 41.5 309.5 41.0702 309.5 40.54V34.46C309.5 33.9298 309.948 33.5 310.5 33.5Z" fill="black"/>
        <path d="M315 30.5H316C316.552 30.5 317 30.9617 317 31.5312V40.4688C317 41.0383 316.552 41.5 316 41.5H315C314.448 41.5 314 41.0383 314 40.4688V31.5312C314 30.9617 314.448 30.5 315 30.5V30.5Z" fill="black" fill-opacity="0.2"/>
        <path fill-rule="evenodd" clip-rule="evenodd" d="M329.5 32.7845C331.677 32.7846 333.77 33.6387 335.347 35.1703C335.466 35.2885 335.656 35.287 335.773 35.1669L336.908 33.9966C336.967 33.9357 337 33.8532 337 33.7673C337 33.6815 336.966 33.5994 336.906 33.5392C332.766 29.4869 326.234 29.4869 322.095 33.5392C322.035 33.5993 322.001 33.6814 322 33.7673C321.999 33.8531 322.032 33.9356 322.092 33.9966L323.227 35.1669C323.344 35.2872 323.534 35.2887 323.653 35.1703C325.23 33.6386 327.324 32.7845 329.5 32.7845ZM329.5 36.592C330.696 36.5919 331.849 37.0459 332.736 37.8657C332.856 37.982 333.044 37.9795 333.161 37.86L334.295 36.6897C334.355 36.6283 334.388 36.545 334.387 36.4585C334.387 36.3719 334.352 36.2893 334.291 36.2292C331.592 33.6648 327.412 33.6648 324.712 36.2292C324.651 36.2893 324.617 36.372 324.616 36.4585C324.615 36.5451 324.648 36.6284 324.708 36.6897L325.842 37.86C325.959 37.9795 326.148 37.982 326.267 37.8657C327.153 37.0464 328.305 36.5925 329.5 36.592ZM331.772 39.1539C331.774 39.2407 331.74 39.3243 331.68 39.3851L329.718 41.4071C329.661 41.4665 329.582 41.5 329.5 41.5C329.419 41.5 329.34 41.4665 329.283 41.4071L327.321 39.3851C327.26 39.3243 327.227 39.2406 327.228 39.1538C327.23 39.067 327.267 38.9849 327.33 38.9267C328.583 37.8444 330.418 37.8444 331.671 38.9267C331.734 38.9849 331.77 39.0671 331.772 39.1539Z" fill="black"/>
        <rect x="342.5" y="30.5" width="21.6077" height="11" rx="2.16667" stroke="black" stroke-opacity="0.6"/>
        <path d="M365.635 33.8823V38.1176C366.462 37.7589 367 36.9245 367 36C367 35.0755 366.462 34.241 365.635 33.8823Z" fill="black" fill-opacity="0.6"/>
        <rect x="344.055" y="32.1177" width="18.4972" height="7.76471" rx="1.33333" fill="black"/>
        <path d="M36.2414 41.2637C38.7536 41.2637 40.277 39.1323 40.277 35.7192V35.7046C40.277 32.2915 38.7536 30.1675 36.2414 30.1675C33.7292 30.1675 32.2204 32.2915 32.2204 35.7046V35.7192C32.2204 39.1323 33.7292 41.2637 36.2414 41.2637ZM36.2414 39.7329C34.8937 39.7329 34.1247 38.2241 34.1247 35.7192V35.7046C34.1247 33.1997 34.8937 31.7056 36.2414 31.7056C37.589 31.7056 38.3727 33.1997 38.3727 35.7046V35.7192C38.3727 38.2241 37.589 39.7329 36.2414 39.7329ZM45.9224 30.1675C43.63 30.1675 41.9967 31.7349 41.9967 33.8809V33.8955C41.9967 35.9023 43.4176 37.3818 45.4464 37.3818C46.8966 37.3818 47.8194 36.6421 48.2076 35.8071H48.3541C48.3541 35.8877 48.3468 35.9683 48.3468 36.0488C48.2662 38.0703 47.5557 39.7109 45.8785 39.7109C44.9483 39.7109 44.2965 39.2275 44.0181 38.4878L43.9962 38.4146H42.1358L42.1505 38.4951C42.4874 40.1138 43.9376 41.2637 45.8785 41.2637C48.5372 41.2637 50.1412 39.1543 50.1412 35.5947V35.5801C50.1412 31.7715 48.1783 30.1675 45.9224 30.1675ZM45.9151 35.9316C44.7139 35.9316 43.8424 35.0527 43.8424 33.8296V33.8149C43.8424 32.6357 44.7725 31.7056 45.9371 31.7056C47.109 31.7056 48.0245 32.6504 48.0245 33.8589V33.8735C48.0245 35.0674 47.109 35.9316 45.9151 35.9316ZM53.2964 34.1519C53.9702 34.1519 54.4609 33.6392 54.4609 32.9946C54.4609 32.3428 53.9702 31.8374 53.2964 31.8374C52.6299 31.8374 52.1318 32.3428 52.1318 32.9946C52.1318 33.6392 52.6299 34.1519 53.2964 34.1519ZM53.2964 39.5864C53.9702 39.5864 54.4609 39.0811 54.4609 38.4292C54.4609 37.7773 53.9702 37.272 53.2964 37.272C52.6299 37.272 52.1318 37.7773 52.1318 38.4292C52.1318 39.0811 52.6299 39.5864 53.2964 39.5864ZM61.5785 41H63.3876V38.9712H64.8085V37.4111H63.3876V30.4312H60.7143C59.2787 32.6138 57.7773 35.0454 56.4076 37.4258V38.9712H61.5785V41ZM58.1654 37.4551V37.3452C59.1908 35.5508 60.414 33.5952 61.498 31.9399H61.6078V37.4551H58.1654ZM69.0184 41H70.908V30.4312H69.0257L66.2645 32.3721V34.1519L68.8939 32.2915H69.0184V41Z" fill="black"/>
        <rect x="135" y="799" width="114" height="4" rx="2" fill="#202223"/>
    </g>
    <rect x="2.5" y="2.5" width="380" height="817" rx="32.5" stroke="#202223" stroke-width="5"/>
    <defs>
        <filter id="filter0_d_127_495" x="23" y="411" width="340" height="45" filterUnits="userSpaceOnUse" color-interpolation-filters="sRGB">
            <feFlood flood-opacity="0" result="BackgroundImageFix"/>
            <feColorMatrix in="SourceAlpha" type="matrix" values="0 0 0 0 0 0 0 0 0 0 0 0 0 0 0 0 0 0 127 0" result="hardAlpha"/>
            <feOffset dy="1"/>
            <feComposite in2="hardAlpha" operator="out"/>
            <feColorMatrix type="matrix" values="0 0 0 0 0 0 0 0 0 0 0 0 0 0 0 0 0 0 0.05 0"/>
            <feBlend mode="normal" in2="BackgroundImageFix" result="effect1_dropShadow_127_495"/>
            <feBlend mode="normal" in="SourceGraphic" in2="effect1_dropShadow_127_495" result="shape"/>
        </filter>
        <linearGradient id="paint0_linear_127_495" x1="23" y1="423.774" x2="415.964" y2="548.674" gradientUnits="userSpaceOnUse">
            <stop stop-color="#2B735D"/>
            <stop offset="1" stop-color="#85B0A3"/>
        </linearGradient>
        <clipPath id="clip0_127_495">
            <rect x="5" y="5" width="375" height="812" rx="30" fill="white"/>
        </clipPath>
    </defs>
</svg>