<svg width="385" height="822" viewBox="0 0 385 822" fill="none" xmlns="http://www.w3.org/2000/svg">
    <g clip-path="url(#clip0_37_575)">
        <rect x="5" y="5" width="375" height="812" rx="30" fill="white"/>
        <path d="M183.001 280.5L165.501 263L157.806 284.211C157.593 284.767 157.546 285.374 157.671 285.956C157.795 286.539 158.085 287.073 158.507 287.495C158.928 287.916 159.462 288.206 160.045 288.331C160.628 288.455 161.234 288.408 161.79 288.195L183.001 280.5Z" fill="#2B735D"/>
        <path opacity="0.2" d="M172.999 242.375L203.624 273L219.639 267.18C220.134 267 220.576 266.698 220.923 266.302C221.27 265.905 221.511 265.428 221.624 264.913C221.737 264.399 221.718 263.864 221.569 263.359C221.42 262.854 221.146 262.395 220.772 262.024L183.975 225.227C183.605 224.853 183.145 224.579 182.64 224.43C182.135 224.281 181.6 224.262 181.086 224.375C180.571 224.488 180.094 224.729 179.697 225.076C179.301 225.423 178.999 225.865 178.819 226.36L172.999 242.375Z" fill="#2B735D"/>
        <path d="M157.806 284.211L178.822 226.36C179.002 225.865 179.304 225.423 179.7 225.076C180.096 224.729 180.574 224.488 181.088 224.375C181.603 224.262 182.137 224.281 182.643 224.43C183.148 224.579 183.607 224.853 183.978 225.227L220.775 262.024C221.149 262.395 221.423 262.854 221.572 263.359C221.721 263.864 221.74 264.399 221.627 264.913C221.514 265.428 221.273 265.905 220.926 266.302C220.579 266.698 220.137 267 219.642 267.18L161.79 288.196C161.234 288.408 160.628 288.455 160.045 288.331C159.462 288.207 158.928 287.916 158.507 287.495C158.085 287.074 157.795 286.54 157.671 285.957C157.546 285.374 157.593 284.768 157.806 284.211V284.211Z" stroke="#2B735D" stroke-width="2" stroke-linecap="round" stroke-linejoin="round"/>
        <path d="M208.625 231.125C208.625 231.125 208.625 221.75 218 221.75C227.375 221.75 227.375 212.375 227.375 212.375" stroke="#2B735D" stroke-width="2" stroke-linecap="round" stroke-linejoin="round"/>
        <path d="M183.001 280.5L165.501 263" stroke="#2B735D" stroke-width="2" stroke-linecap="round" stroke-linejoin="round"/>
        <path d="M199.25 209.25V218.625" stroke="#2B735D" stroke-width="2" stroke-linecap="round" stroke-linejoin="round"/>
        <path d="M227.375 246.75L233.625 253" stroke="#2B735D" stroke-width="2" stroke-linecap="round" stroke-linejoin="round"/>
        <path d="M227.375 234.25L236.75 231.125" stroke="#2B735D" stroke-width="2" stroke-linecap="round" stroke-linejoin="round"/>
        <path d="M172.999 242.375L203.624 273" stroke="#2B735D" stroke-width="2" stroke-linecap="round" stroke-linejoin="round"/>
        <path d="M166.066 337.2C164.972 337.2 163.926 337.047 162.926 336.74C161.926 336.42 161.132 336.013 160.546 335.52L161.446 333.5C162.006 333.94 162.699 334.307 163.526 334.6C164.352 334.893 165.199 335.04 166.066 335.04C166.799 335.04 167.392 334.96 167.846 334.8C168.299 334.64 168.632 334.427 168.846 334.16C169.059 333.88 169.166 333.567 169.166 333.22C169.166 332.793 169.012 332.453 168.706 332.2C168.399 331.933 167.999 331.727 167.506 331.58C167.026 331.42 166.486 331.273 165.886 331.14C165.299 331.007 164.706 330.853 164.106 330.68C163.519 330.493 162.979 330.26 162.486 329.98C162.006 329.687 161.612 329.3 161.306 328.82C160.999 328.34 160.846 327.727 160.846 326.98C160.846 326.22 161.046 325.527 161.446 324.9C161.859 324.26 162.479 323.753 163.306 323.38C164.146 322.993 165.206 322.8 166.486 322.8C167.326 322.8 168.159 322.907 168.986 323.12C169.812 323.333 170.532 323.64 171.146 324.04L170.326 326.06C169.699 325.687 169.052 325.413 168.386 325.24C167.719 325.053 167.079 324.96 166.466 324.96C165.746 324.96 165.159 325.047 164.706 325.22C164.266 325.393 163.939 325.62 163.726 325.9C163.526 326.18 163.426 326.5 163.426 326.86C163.426 327.287 163.572 327.633 163.866 327.9C164.172 328.153 164.566 328.353 165.046 328.5C165.539 328.647 166.086 328.793 166.686 328.94C167.286 329.073 167.879 329.227 168.466 329.4C169.066 329.573 169.606 329.8 170.086 330.08C170.579 330.36 170.972 330.74 171.266 331.22C171.572 331.7 171.726 332.307 171.726 333.04C171.726 333.787 171.519 334.48 171.106 335.12C170.706 335.747 170.086 336.253 169.246 336.64C168.406 337.013 167.346 337.2 166.066 337.2ZM178.584 337.14C177.677 337.14 176.877 336.973 176.184 336.64C175.49 336.293 174.95 335.773 174.564 335.08C174.177 334.373 173.984 333.487 173.984 332.42V326.32H176.484V332.08C176.484 333.04 176.697 333.76 177.124 334.24C177.564 334.707 178.184 334.94 178.984 334.94C179.57 334.94 180.077 334.82 180.504 334.58C180.944 334.34 181.284 333.98 181.524 333.5C181.777 333.02 181.904 332.427 181.904 331.72V326.32H184.404V337H182.024V334.12L182.444 335C182.084 335.693 181.557 336.227 180.864 336.6C180.17 336.96 179.41 337.14 178.584 337.14ZM193.597 337.14C192.73 337.14 191.937 336.94 191.217 336.54C190.51 336.14 189.944 335.54 189.517 334.74C189.104 333.927 188.897 332.9 188.897 331.66C188.897 330.407 189.097 329.38 189.497 328.58C189.91 327.78 190.47 327.187 191.177 326.8C191.884 326.4 192.69 326.2 193.597 326.2C194.65 326.2 195.577 326.427 196.377 326.88C197.19 327.333 197.83 327.967 198.297 328.78C198.777 329.593 199.017 330.553 199.017 331.66C199.017 332.767 198.777 333.733 198.297 334.56C197.83 335.373 197.19 336.007 196.377 336.46C195.577 336.913 194.65 337.14 193.597 337.14ZM187.677 340.88V326.32H190.057V328.84L189.977 331.68L190.177 334.52V340.88H187.677ZM193.317 335C193.917 335 194.45 334.867 194.917 334.6C195.397 334.333 195.777 333.947 196.057 333.44C196.337 332.933 196.477 332.34 196.477 331.66C196.477 330.967 196.337 330.373 196.057 329.88C195.777 329.373 195.397 328.987 194.917 328.72C194.45 328.453 193.917 328.32 193.317 328.32C192.717 328.32 192.177 328.453 191.697 328.72C191.217 328.987 190.837 329.373 190.557 329.88C190.277 330.373 190.137 330.967 190.137 331.66C190.137 332.34 190.277 332.933 190.557 333.44C190.837 333.947 191.217 334.333 191.697 334.6C192.177 334.867 192.717 335 193.317 335ZM206.408 337.14C205.221 337.14 204.181 336.907 203.288 336.44C202.408 335.96 201.721 335.307 201.228 334.48C200.748 333.653 200.508 332.713 200.508 331.66C200.508 330.593 200.741 329.653 201.208 328.84C201.688 328.013 202.341 327.367 203.168 326.9C204.008 326.433 204.961 326.2 206.028 326.2C207.068 326.2 207.995 326.427 208.808 326.88C209.621 327.333 210.261 327.973 210.728 328.8C211.195 329.627 211.428 330.6 211.428 331.72C211.428 331.827 211.421 331.947 211.408 332.08C211.408 332.213 211.401 332.34 211.388 332.46H202.488V330.8H210.068L209.088 331.32C209.101 330.707 208.975 330.167 208.708 329.7C208.441 329.233 208.075 328.867 207.608 328.6C207.155 328.333 206.628 328.2 206.028 328.2C205.415 328.2 204.875 328.333 204.408 328.6C203.955 328.867 203.595 329.24 203.328 329.72C203.075 330.187 202.948 330.74 202.948 331.38V331.78C202.948 332.42 203.095 332.987 203.388 333.48C203.681 333.973 204.095 334.353 204.628 334.62C205.161 334.887 205.775 335.02 206.468 335.02C207.068 335.02 207.608 334.927 208.088 334.74C208.568 334.553 208.995 334.26 209.368 333.86L210.708 335.4C210.228 335.96 209.621 336.393 208.888 336.7C208.168 336.993 207.341 337.14 206.408 337.14ZM213.829 337V326.32H216.209V329.26L215.929 328.4C216.249 327.68 216.749 327.133 217.429 326.76C218.123 326.387 218.983 326.2 220.009 326.2V328.58C219.903 328.553 219.803 328.54 219.709 328.54C219.616 328.527 219.523 328.52 219.429 328.52C218.483 328.52 217.729 328.8 217.169 329.36C216.609 329.907 216.329 330.727 216.329 331.82V337H213.829ZM222.388 332.36L221.908 323H224.868L224.368 332.36H222.388ZM223.388 337.14C222.921 337.14 222.535 336.987 222.228 336.68C221.921 336.373 221.768 336.007 221.768 335.58C221.768 335.153 221.921 334.793 222.228 334.5C222.535 334.193 222.921 334.04 223.388 334.04C223.855 334.04 224.235 334.193 224.528 334.5C224.821 334.793 224.968 335.153 224.968 335.58C224.968 336.007 224.821 336.373 224.528 336.68C224.235 336.987 223.855 337.14 223.388 337.14Z" fill="#202223"/>
        <path d="M40.887 365H45.017C48.167 365 50.309 363.012 50.309 360.1C50.309 357.188 48.167 355.2 45.017 355.2H40.887V365ZM42.287 363.782V356.418H44.933C47.355 356.418 48.909 357.902 48.909 360.1C48.909 362.298 47.355 363.782 44.933 363.782H42.287ZM57.8294 357.58V361.416C57.8294 363.012 56.9334 363.88 55.5334 363.88C54.2594 363.88 53.5314 363.152 53.5314 361.696V357.58H52.1874V361.85C52.1874 364.034 53.4614 365.084 55.3794 365.084C56.4294 365.084 57.3534 364.65 57.8994 363.88V365H59.1734V357.58H57.8294ZM69.4538 357.51C68.3198 357.51 67.3958 357.916 66.8358 358.63V354.612H65.4918V365H66.8358V361.178C66.8358 359.568 67.7598 358.714 69.1878 358.714C70.4618 358.714 71.1898 359.428 71.1898 360.884V365H72.5338V360.73C72.5338 358.546 71.2598 357.51 69.4538 357.51ZM77.7231 357.51C76.5331 357.51 75.4271 357.846 74.6571 358.462L75.2171 359.47C75.7911 358.98 76.6871 358.672 77.5691 358.672C78.8991 358.672 79.5571 359.33 79.5571 360.464V360.73H77.4291C75.2171 360.73 74.4471 361.71 74.4471 362.9C74.4471 364.188 75.5111 365.084 77.1911 365.084C78.3531 365.084 79.1791 364.692 79.6271 364.02V365H80.9011V360.52C80.9011 358.49 79.7531 357.51 77.7231 357.51ZM77.4151 364.048C76.3931 364.048 75.7771 363.586 75.7771 362.844C75.7771 362.214 76.1551 361.696 77.4851 361.696H79.5571V362.732C79.2211 363.586 78.4231 364.048 77.4151 364.048ZM85.5163 365.084C87.4903 365.084 88.7223 364.23 88.7223 362.886C88.7223 360.002 84.0183 361.43 84.0183 359.68C84.0183 359.092 84.5923 358.658 85.7683 358.658C86.4963 358.658 87.2383 358.812 87.9103 359.246L88.4843 358.182C87.8403 357.762 86.7483 357.51 85.7823 357.51C83.8783 357.51 82.6883 358.406 82.6883 359.736C82.6883 362.69 87.3783 361.248 87.3783 362.914C87.3783 363.544 86.8603 363.922 85.6143 363.922C84.6483 363.922 83.6403 363.6 83.0103 363.152L82.4503 364.216C83.0663 364.706 84.2843 365.084 85.5163 365.084ZM94.1539 363.6C93.8739 363.824 93.4959 363.95 93.1039 363.95C92.3619 363.95 91.9419 363.502 91.9419 362.704V358.686H94.0699V357.58H91.9419V355.956H90.5979V357.58H89.3379V358.686H90.5979V362.76C90.5979 364.258 91.4519 365.084 92.9499 365.084C93.5519 365.084 94.1679 364.916 94.5739 364.566L94.1539 363.6ZM105.615 354.612V358.7C104.999 357.902 104.075 357.51 103.025 357.51C100.855 357.51 99.2726 359.022 99.2726 361.29C99.2726 363.558 100.855 365.084 103.025 365.084C104.117 365.084 105.069 364.664 105.671 363.824V365H106.959V354.612H105.615ZM103.137 363.908C101.709 363.908 100.631 362.872 100.631 361.29C100.631 359.708 101.709 358.686 103.137 358.686C104.551 358.686 105.629 359.708 105.629 361.29C105.629 362.872 104.551 363.908 103.137 363.908ZM110.174 356.152C110.706 356.152 111.084 355.76 111.084 355.256C111.084 354.78 110.692 354.402 110.174 354.402C109.656 354.402 109.264 354.794 109.264 355.284C109.264 355.774 109.656 356.152 110.174 356.152ZM109.502 365H110.846V357.58H109.502V365ZM116.646 365.084C117.976 365.084 119.082 364.524 119.67 363.488L118.648 362.844C118.172 363.572 117.444 363.908 116.632 363.908C115.176 363.908 114.084 362.9 114.084 361.29C114.084 359.708 115.176 358.686 116.632 358.686C117.444 358.686 118.172 359.022 118.648 359.75L119.67 359.092C119.082 358.056 117.976 357.51 116.646 357.51C114.364 357.51 112.726 359.078 112.726 361.29C112.726 363.502 114.364 365.084 116.646 365.084ZM125.276 357.51C124.142 357.51 123.218 357.916 122.658 358.63V354.612H121.314V365H122.658V361.178C122.658 359.568 123.582 358.714 125.01 358.714C126.284 358.714 127.012 359.428 127.012 360.884V365H128.356V360.73C128.356 358.546 127.082 357.51 125.276 357.51ZM137.319 355.634C137.711 355.634 138.075 355.774 138.355 355.984L138.761 354.962C138.383 354.668 137.823 354.528 137.249 354.528C135.667 354.528 134.799 355.48 134.799 356.922V357.58H133.539V358.686H134.799V365H136.143V358.686H138.271V357.58H136.115V356.936C136.115 356.082 136.521 355.634 137.319 355.634ZM141.667 356.264C142.059 356.264 142.381 355.97 142.381 355.55C142.381 355.13 142.059 354.822 141.667 354.822C141.275 354.822 140.953 355.13 140.953 355.55C140.953 355.97 141.275 356.264 141.667 356.264ZM144.271 356.264C144.663 356.264 144.985 355.97 144.985 355.55C144.985 355.13 144.663 354.822 144.271 354.822C143.879 354.822 143.557 355.13 143.557 355.55C143.557 355.97 143.879 356.264 144.271 356.264ZM145.111 357.58V361.416C145.111 363.012 144.215 363.88 142.815 363.88C141.541 363.88 140.813 363.152 140.813 361.696V357.58H139.469V361.85C139.469 364.034 140.743 365.084 142.661 365.084C143.711 365.084 144.635 364.65 145.181 363.88V365H146.455V357.58H145.111ZM150.301 358.826V357.58H149.013V365H150.357V361.304C150.357 359.68 151.253 358.798 152.695 358.798C152.793 358.798 152.891 358.798 153.003 358.812V357.51C151.701 357.51 150.777 357.958 150.301 358.826ZM164.171 354.612V358.7C163.555 357.902 162.631 357.51 161.581 357.51C159.411 357.51 157.829 359.022 157.829 361.29C157.829 363.558 159.411 365.084 161.581 365.084C162.673 365.084 163.625 364.664 164.227 363.824V365H165.515V354.612H164.171ZM161.693 363.908C160.265 363.908 159.187 362.872 159.187 361.29C159.187 359.708 160.265 358.686 161.693 358.686C163.107 358.686 164.185 359.708 164.185 361.29C164.185 362.872 163.107 363.908 161.693 363.908ZM168.73 356.152C169.262 356.152 169.64 355.76 169.64 355.256C169.64 354.78 169.248 354.402 168.73 354.402C168.212 354.402 167.82 354.794 167.82 355.284C167.82 355.774 168.212 356.152 168.73 356.152ZM168.058 365H169.402V357.58H168.058V365ZM178.674 361.332C178.674 359.05 177.148 357.51 175.006 357.51C172.864 357.51 171.282 359.092 171.282 361.29C171.282 363.502 172.878 365.084 175.272 365.084C176.504 365.084 177.526 364.664 178.198 363.88L177.456 363.012C176.91 363.614 176.182 363.908 175.314 363.908C173.844 363.908 172.794 363.04 172.626 361.738H178.646C178.66 361.612 178.674 361.444 178.674 361.332ZM175.006 358.644C176.308 358.644 177.246 359.526 177.386 360.772H172.626C172.766 359.512 173.718 358.644 175.006 358.644ZM182.669 365.084C184.643 365.084 185.875 364.23 185.875 362.886C185.875 360.002 181.171 361.43 181.171 359.68C181.171 359.092 181.745 358.658 182.921 358.658C183.649 358.658 184.391 358.812 185.063 359.246L185.637 358.182C184.993 357.762 183.901 357.51 182.935 357.51C181.031 357.51 179.841 358.406 179.841 359.736C179.841 362.69 184.531 361.248 184.531 362.914C184.531 363.544 184.013 363.922 182.767 363.922C181.801 363.922 180.793 363.6 180.163 363.152L179.603 364.216C180.219 364.706 181.437 365.084 182.669 365.084ZM194.26 361.332C194.26 359.05 192.734 357.51 190.592 357.51C188.45 357.51 186.868 359.092 186.868 361.29C186.868 363.502 188.464 365.084 190.858 365.084C192.09 365.084 193.112 364.664 193.784 363.88L193.042 363.012C192.496 363.614 191.768 363.908 190.9 363.908C189.43 363.908 188.38 363.04 188.212 361.738H194.232C194.246 361.612 194.26 361.444 194.26 361.332ZM190.592 358.644C191.894 358.644 192.832 359.526 192.972 360.772H188.212C188.352 359.512 189.304 358.644 190.592 358.644ZM204.142 365.112C206.732 365.112 208.286 363.614 208.286 360.772V355.2H206.928V360.716C206.928 362.886 205.92 363.866 204.156 363.866C202.392 363.866 201.398 362.886 201.398 360.716V355.2H199.998V360.772C199.998 363.614 201.566 365.112 204.142 365.112ZM220.243 357.51C218.983 357.51 217.947 358.042 217.387 358.882C216.897 357.958 215.945 357.51 214.811 357.51C213.691 357.51 212.781 357.93 212.249 358.686V357.58H210.961V365H212.305V361.178C212.305 359.568 213.187 358.714 214.531 358.714C215.749 358.714 216.449 359.428 216.449 360.884V365H217.793V361.178C217.793 359.568 218.675 358.714 220.019 358.714C221.237 358.714 221.937 359.428 221.937 360.884V365H223.281V360.73C223.281 358.546 222.049 357.51 220.243 357.51ZM228.469 355.634C228.861 355.634 229.225 355.774 229.505 355.984L229.911 354.962C229.533 354.668 228.973 354.528 228.399 354.528C226.817 354.528 225.949 355.48 225.949 356.922V357.58H224.689V358.686H225.949V365H227.293V358.686H229.421V357.58H227.265V356.936C227.265 356.082 227.671 355.634 228.469 355.634ZM233.098 358.826V357.58H231.81V365H233.154V361.304C233.154 359.68 234.05 358.798 235.492 358.798C235.59 358.798 235.688 358.798 235.8 358.812V357.51C234.498 357.51 233.574 357.958 233.098 358.826ZM240.145 357.51C238.955 357.51 237.849 357.846 237.079 358.462L237.639 359.47C238.213 358.98 239.109 358.672 239.991 358.672C241.321 358.672 241.979 359.33 241.979 360.464V360.73H239.851C237.639 360.73 236.869 361.71 236.869 362.9C236.869 364.188 237.933 365.084 239.613 365.084C240.775 365.084 241.601 364.692 242.049 364.02V365H243.323V360.52C243.323 358.49 242.175 357.51 240.145 357.51ZM239.837 364.048C238.815 364.048 238.199 363.586 238.199 362.844C238.199 362.214 238.577 361.696 239.907 361.696H241.979V362.732C241.643 363.586 240.845 364.048 239.837 364.048ZM251.675 357.58V358.728C251.045 357.916 250.037 357.51 248.931 357.51C246.789 357.51 245.165 358.952 245.165 361.094C245.165 363.236 246.789 364.692 248.931 364.692C249.995 364.692 250.961 364.314 251.605 363.544V364.132C251.605 365.812 250.807 366.624 249.057 366.624C247.965 366.624 246.887 366.246 246.201 365.658L245.557 366.694C246.369 367.422 247.741 367.8 249.099 367.8C251.619 367.8 252.949 366.61 252.949 363.992V357.58H251.675ZM249.085 363.516C247.587 363.516 246.523 362.522 246.523 361.094C246.523 359.652 247.587 358.686 249.085 358.686C250.569 358.686 251.633 359.652 251.633 361.094C251.633 362.522 250.569 363.516 249.085 363.516ZM262.223 361.332C262.223 359.05 260.697 357.51 258.555 357.51C256.413 357.51 254.831 359.092 254.831 361.29C254.831 363.502 256.427 365.084 258.821 365.084C260.053 365.084 261.075 364.664 261.747 363.88L261.005 363.012C260.459 363.614 259.731 363.908 258.863 363.908C257.393 363.908 256.343 363.04 256.175 361.738H262.195C262.209 361.612 262.223 361.444 262.223 361.332ZM258.555 358.644C259.857 358.644 260.795 359.526 260.935 360.772H256.175C256.315 359.512 257.267 358.644 258.555 358.644ZM273.561 357.58V358.756C272.959 357.93 272.007 357.51 270.915 357.51C268.745 357.51 267.163 359.022 267.163 361.29C267.163 363.572 268.745 365.084 270.915 365.084C271.965 365.084 272.889 364.678 273.505 363.88V367.716H274.849V357.58H273.561ZM271.027 363.908C269.599 363.908 268.521 362.872 268.521 361.29C268.521 359.722 269.599 358.686 271.027 358.686C272.441 358.686 273.519 359.722 273.519 361.29C273.519 362.872 272.441 363.908 271.027 363.908ZM282.964 357.58V361.416C282.964 363.012 282.068 363.88 280.668 363.88C279.394 363.88 278.666 363.152 278.666 361.696V357.58H277.322V361.85C277.322 364.034 278.596 365.084 280.514 365.084C281.564 365.084 282.488 364.65 283.034 363.88V365H284.308V357.58H282.964ZM289.569 357.51C288.379 357.51 287.273 357.846 286.503 358.462L287.063 359.47C287.637 358.98 288.533 358.672 289.415 358.672C290.745 358.672 291.403 359.33 291.403 360.464V360.73H289.275C287.063 360.73 286.293 361.71 286.293 362.9C286.293 364.188 287.357 365.084 289.037 365.084C290.199 365.084 291.025 364.692 291.473 364.02V365H292.747V360.52C292.747 358.49 291.599 357.51 289.569 357.51ZM289.261 364.048C288.239 364.048 287.623 363.586 287.623 362.844C287.623 362.214 288.001 361.696 289.331 361.696H291.403V362.732C291.067 363.586 290.269 364.048 289.261 364.048ZM295.234 365H296.578V354.612H295.234V365ZM299.816 356.152C300.348 356.152 300.726 355.76 300.726 355.256C300.726 354.78 300.334 354.402 299.816 354.402C299.298 354.402 298.906 354.794 298.906 355.284C298.906 355.774 299.298 356.152 299.816 356.152ZM299.144 365H300.488V357.58H299.144V365ZM305.77 355.634C306.162 355.634 306.526 355.774 306.806 355.984L307.212 354.962C306.834 354.668 306.274 354.528 305.7 354.528C304.118 354.528 303.25 355.48 303.25 356.922V357.58H301.99V358.686H303.25V365H304.594V358.686H306.722V357.58H304.566V356.936C304.566 356.082 304.972 355.634 305.77 355.634ZM309.783 356.152C310.315 356.152 310.693 355.76 310.693 355.256C310.693 354.78 310.301 354.402 309.783 354.402C309.265 354.402 308.873 354.794 308.873 355.284C308.873 355.774 309.265 356.152 309.783 356.152ZM309.111 365H310.455V357.58H309.111V365ZM314.029 363.894L318.411 358.462V357.58H312.391V358.686H316.689L312.307 364.132V365H318.523V363.894H314.029ZM320.994 356.152C321.526 356.152 321.904 355.76 321.904 355.256C321.904 354.78 321.512 354.402 320.994 354.402C320.476 354.402 320.084 354.794 320.084 355.284C320.084 355.774 320.476 356.152 320.994 356.152ZM320.322 365H321.666V357.58H320.322V365ZM330.938 361.332C330.938 359.05 329.412 357.51 327.27 357.51C325.128 357.51 323.546 359.092 323.546 361.29C323.546 363.502 325.142 365.084 327.536 365.084C328.768 365.084 329.79 364.664 330.462 363.88L329.72 363.012C329.174 363.614 328.446 363.908 327.578 363.908C326.108 363.908 325.058 363.04 324.89 361.738H330.91C330.924 361.612 330.938 361.444 330.938 361.332ZM327.27 358.644C328.572 358.644 329.51 359.526 329.65 360.772H324.89C325.03 359.512 325.982 358.644 327.27 358.644ZM334.092 358.826V357.58H332.804V365H334.148V361.304C334.148 359.68 335.044 358.798 336.486 358.798C336.584 358.798 336.682 358.798 336.794 358.812V357.51C335.492 357.51 334.568 357.958 334.092 358.826ZM342.504 363.6C342.224 363.824 341.846 363.95 341.454 363.95C340.712 363.95 340.292 363.502 340.292 362.704V358.686H342.42V357.58H340.292V355.956H338.948V357.58H337.688V358.686H338.948V362.76C338.948 364.258 339.802 365.084 341.3 365.084C341.902 365.084 342.518 364.916 342.924 364.566L342.504 363.6ZM345.007 365.084C345.511 365.084 345.931 364.678 345.931 364.118C345.931 363.558 345.511 363.166 345.007 363.166C344.489 363.166 344.055 363.558 344.055 364.118C344.055 364.678 344.489 365.084 345.007 365.084ZM95.3489 383H99.4789C102.629 383 104.771 381.012 104.771 378.1C104.771 375.188 102.629 373.2 99.4789 373.2H95.3489V383ZM96.7489 381.782V374.418H99.3949C101.817 374.418 103.371 375.902 103.371 378.1C103.371 380.298 101.817 381.782 99.3949 381.782H96.7489ZM112.291 375.58V379.416C112.291 381.012 111.395 381.88 109.995 381.88C108.721 381.88 107.993 381.152 107.993 379.696V375.58H106.649V379.85C106.649 382.034 107.923 383.084 109.841 383.084C110.891 383.084 111.815 382.65 112.361 381.88V383H113.635V375.58H112.291ZM125.624 383H127.276L123.846 378.646L126.968 375.58H125.344L121.298 379.276V372.612H119.954V383H121.298V380.97L122.838 379.542L125.624 383ZM131.146 375.51C129.956 375.51 128.85 375.846 128.08 376.462L128.64 377.47C129.214 376.98 130.11 376.672 130.992 376.672C132.322 376.672 132.98 377.33 132.98 378.464V378.73H130.852C128.64 378.73 127.87 379.71 127.87 380.9C127.87 382.188 128.934 383.084 130.614 383.084C131.776 383.084 132.602 382.692 133.05 382.02V383H134.324V378.52C134.324 376.49 133.176 375.51 131.146 375.51ZM130.838 382.048C129.816 382.048 129.2 381.586 129.2 380.844C129.2 380.214 129.578 379.696 130.908 379.696H132.98V380.732C132.644 381.586 131.846 382.048 130.838 382.048ZM140.773 375.51C139.597 375.51 138.645 375.944 138.099 376.7V375.58H136.811V383H138.155V379.178C138.155 377.568 139.079 376.714 140.507 376.714C141.781 376.714 142.509 377.428 142.509 378.884V383H143.853V378.73C143.853 376.546 142.579 375.51 140.773 375.51ZM150.302 375.51C149.126 375.51 148.174 375.944 147.628 376.7V375.58H146.34V383H147.684V379.178C147.684 377.568 148.608 376.714 150.036 376.714C151.31 376.714 152.038 377.428 152.038 378.884V383H153.382V378.73C153.382 376.546 152.108 375.51 150.302 375.51ZM157.998 383.084C159.972 383.084 161.204 382.23 161.204 380.886C161.204 378.002 156.5 379.43 156.5 377.68C156.5 377.092 157.074 376.658 158.25 376.658C158.978 376.658 159.72 376.812 160.392 377.246L160.966 376.182C160.322 375.762 159.23 375.51 158.264 375.51C156.36 375.51 155.17 376.406 155.17 377.736C155.17 380.69 159.86 379.248 159.86 380.914C159.86 381.544 159.342 381.922 158.096 381.922C157.13 381.922 156.122 381.6 155.492 381.152L154.932 382.216C155.548 382.706 156.766 383.084 157.998 383.084ZM166.635 381.6C166.355 381.824 165.977 381.95 165.585 381.95C164.843 381.95 164.423 381.502 164.423 380.704V376.686H166.551V375.58H164.423V373.956H163.079V375.58H161.819V376.686H163.079V380.76C163.079 382.258 163.933 383.084 165.431 383.084C166.033 383.084 166.649 382.916 167.055 382.566L166.635 381.6ZM173.182 374.152C173.714 374.152 174.092 373.76 174.092 373.256C174.092 372.78 173.7 372.402 173.182 372.402C172.664 372.402 172.272 372.794 172.272 373.284C172.272 373.774 172.664 374.152 173.182 374.152ZM171.488 385.8C173.014 385.8 173.854 384.848 173.854 383.336V375.58H172.51V383.364C172.51 384.218 172.118 384.666 171.404 384.666C170.97 384.666 170.578 384.54 170.312 384.316L169.878 385.352C170.256 385.66 170.872 385.8 171.488 385.8ZM183.125 379.332C183.125 377.05 181.599 375.51 179.457 375.51C177.315 375.51 175.733 377.092 175.733 379.29C175.733 381.502 177.329 383.084 179.723 383.084C180.955 383.084 181.977 382.664 182.649 381.88L181.907 381.012C181.361 381.614 180.633 381.908 179.765 381.908C178.295 381.908 177.245 381.04 177.077 379.738H183.097C183.111 379.612 183.125 379.444 183.125 379.332ZM179.457 376.644C180.759 376.644 181.697 377.526 181.837 378.772H177.077C177.217 377.512 178.169 376.644 179.457 376.644ZM188.743 381.6C188.463 381.824 188.085 381.95 187.693 381.95C186.951 381.95 186.531 381.502 186.531 380.704V376.686H188.659V375.58H186.531V373.956H185.187V375.58H183.927V376.686H185.187V380.76C185.187 382.258 186.041 383.084 187.539 383.084C188.141 383.084 188.757 382.916 189.163 382.566L188.743 381.6ZM191.796 381.894L196.178 376.462V375.58H190.158V376.686H194.456L190.074 382.132V383H196.29V381.894H191.796ZM201.868 381.6C201.588 381.824 201.21 381.95 200.818 381.95C200.076 381.95 199.656 381.502 199.656 380.704V376.686H201.784V375.58H199.656V373.956H198.312V375.58H197.052V376.686H198.312V380.76C198.312 382.258 199.166 383.084 200.664 383.084C201.266 383.084 201.882 382.916 202.288 382.566L201.868 381.6ZM211.424 381.6C211.144 381.824 210.766 381.95 210.374 381.95C209.632 381.95 209.212 381.502 209.212 380.704V376.686H211.34V375.58H209.212V373.956H207.868V375.58H206.608V376.686H207.868V380.76C207.868 382.258 208.722 383.084 210.22 383.084C210.822 383.084 211.438 382.916 211.844 382.566L211.424 381.6ZM219.929 379.332C219.929 377.05 218.403 375.51 216.261 375.51C214.119 375.51 212.537 377.092 212.537 379.29C212.537 381.502 214.133 383.084 216.527 383.084C217.759 383.084 218.781 382.664 219.453 381.88L218.711 381.012C218.165 381.614 217.437 381.908 216.569 381.908C215.099 381.908 214.049 381.04 213.881 379.738H219.901C219.915 379.612 219.929 379.444 219.929 379.332ZM216.261 376.644C217.563 376.644 218.501 377.526 218.641 378.772H213.881C214.021 377.512 214.973 376.644 216.261 376.644ZM222.467 374.152C222.999 374.152 223.377 373.76 223.377 373.256C223.377 372.78 222.985 372.402 222.467 372.402C221.949 372.402 221.557 372.794 221.557 373.284C221.557 373.774 221.949 374.152 222.467 374.152ZM221.795 383H223.139V375.58H221.795V383ZM225.706 383H227.05V372.612H225.706V383ZM233.578 375.51C232.402 375.51 231.45 375.944 230.904 376.7V375.58H229.616V383H230.96V379.178C230.96 377.568 231.884 376.714 233.312 376.714C234.586 376.714 235.314 377.428 235.314 378.884V383H236.658V378.73C236.658 376.546 235.384 375.51 233.578 375.51ZM245.892 379.332C245.892 377.05 244.366 375.51 242.224 375.51C240.082 375.51 238.5 377.092 238.5 379.29C238.5 381.502 240.096 383.084 242.49 383.084C243.722 383.084 244.744 382.664 245.416 381.88L244.674 381.012C244.128 381.614 243.4 381.908 242.532 381.908C241.062 381.908 240.012 381.04 239.844 379.738H245.864C245.878 379.612 245.892 379.444 245.892 379.332ZM242.224 376.644C243.526 376.644 244.464 377.526 244.604 378.772H239.844C239.984 377.512 240.936 376.644 242.224 376.644ZM251.72 375.51C250.586 375.51 249.662 375.916 249.102 376.63V372.612H247.758V383H249.102V379.178C249.102 377.568 250.026 376.714 251.454 376.714C252.728 376.714 253.456 377.428 253.456 378.884V383H254.8V378.73C254.8 376.546 253.526 375.51 251.72 375.51ZM266.57 375.51C265.31 375.51 264.274 376.042 263.714 376.882C263.224 375.958 262.272 375.51 261.138 375.51C260.018 375.51 259.108 375.93 258.576 376.686V375.58H257.288V383H258.632V379.178C258.632 377.568 259.514 376.714 260.858 376.714C262.076 376.714 262.776 377.428 262.776 378.884V383H264.12V379.178C264.12 377.568 265.002 376.714 266.346 376.714C267.564 376.714 268.264 377.428 268.264 378.884V383H269.608V378.73C269.608 376.546 268.376 375.51 266.57 375.51ZM278.828 379.332C278.828 377.05 277.302 375.51 275.16 375.51C273.018 375.51 271.436 377.092 271.436 379.29C271.436 381.502 273.032 383.084 275.426 383.084C276.658 383.084 277.68 382.664 278.352 381.88L277.61 381.012C277.064 381.614 276.336 381.908 275.468 381.908C273.998 381.908 272.948 381.04 272.78 379.738H278.8C278.814 379.612 278.828 379.444 278.828 379.332ZM275.16 376.644C276.462 376.644 277.4 377.526 277.54 378.772H272.78C272.92 377.512 273.872 376.644 275.16 376.644ZM284.656 375.51C283.48 375.51 282.528 375.944 281.982 376.7V375.58H280.694V383H282.038V379.178C282.038 377.568 282.962 376.714 284.39 376.714C285.664 376.714 286.392 377.428 286.392 378.884V383H287.736V378.73C287.736 376.546 286.462 375.51 284.656 375.51ZM290.545 383.084C291.049 383.084 291.469 382.678 291.469 382.118C291.469 381.558 291.049 381.166 290.545 381.166C290.027 381.166 289.593 381.558 289.593 382.118C289.593 382.678 290.027 383.084 290.545 383.084Z" fill="#757575"/>
        <g filter="url(#filter0_d_37_575)">
            <rect x="23" y="411" width="340" height="44" rx="8" fill="url(#paint0_linear_37_575)" shape-rendering="crispEdges"/>
            <path d="M182.167 428.7L179.885 435.644L177.645 428.7H175.545L173.235 435.588L171.023 428.7H168.671L171.891 438.5H174.313L176.539 431.864L178.695 438.5H181.131L184.337 428.7H182.167ZM192.267 434.762C192.267 432.34 190.559 430.856 188.347 430.856C186.051 430.856 184.329 432.48 184.329 434.734C184.329 436.974 186.023 438.612 188.627 438.612C189.985 438.612 191.035 438.192 191.735 437.394L190.573 436.134C190.055 436.624 189.481 436.862 188.683 436.862C187.535 436.862 186.737 436.288 186.527 435.35H192.225C192.239 435.168 192.267 434.93 192.267 434.762ZM188.361 432.508C189.341 432.508 190.055 433.124 190.209 434.076H186.499C186.653 433.11 187.367 432.508 188.361 432.508ZM194.813 429.918C195.625 429.918 196.171 429.386 196.171 428.658C196.171 427.986 195.625 427.482 194.813 427.482C194.001 427.482 193.455 428.014 193.455 428.7C193.455 429.386 194.001 429.918 194.813 429.918ZM193.721 438.5H195.905V430.968H193.721V438.5ZM202.202 436.596C201.964 436.778 201.642 436.876 201.32 436.876C200.732 436.876 200.382 436.526 200.382 435.882V432.816H202.258V431.136H200.382V429.302H198.198V431.136H197.036V432.816H198.198V435.91C198.198 437.702 199.234 438.612 201.012 438.612C201.684 438.612 202.342 438.458 202.79 438.136L202.202 436.596ZM211.161 434.762C211.161 432.34 209.453 430.856 207.241 430.856C204.945 430.856 203.223 432.48 203.223 434.734C203.223 436.974 204.917 438.612 207.521 438.612C208.879 438.612 209.929 438.192 210.629 437.394L209.467 436.134C208.949 436.624 208.375 436.862 207.577 436.862C206.429 436.862 205.631 436.288 205.421 435.35H211.119C211.133 435.168 211.161 434.93 211.161 434.762ZM207.255 432.508C208.235 432.508 208.949 433.124 209.103 434.076H205.393C205.547 433.11 206.261 432.508 207.255 432.508ZM214.701 431.962V430.968H212.615V438.5H214.799V434.944C214.799 433.502 215.597 432.844 216.801 432.844C216.969 432.844 217.109 432.858 217.291 432.872V430.856C216.129 430.856 215.233 431.234 214.701 431.962Z" fill="white"/>
        </g>
        <rect x="23" y="479" width="340" height="1" fill="#F5F5F5"/>
        <path d="M96.4431 517.096C98.6631 517.096 99.9951 515.812 99.9951 513.376V508.6H98.8311V513.328C98.8311 515.188 97.9671 516.028 96.4551 516.028C94.9431 516.028 94.0911 515.188 94.0911 513.328V508.6H92.8911V513.376C92.8911 515.812 94.2351 517.096 96.4431 517.096ZM110.243 510.58C109.163 510.58 108.275 511.036 107.795 511.756C107.375 510.964 106.559 510.58 105.587 510.58C104.627 510.58 103.847 510.94 103.391 511.588V510.64H102.287V517H103.439V513.724C103.439 512.344 104.195 511.612 105.347 511.612C106.391 511.612 106.991 512.224 106.991 513.472V517H108.143V513.724C108.143 512.344 108.899 511.612 110.051 511.612C111.095 511.612 111.695 512.224 111.695 513.472V517H112.847V513.34C112.847 511.468 111.791 510.58 110.243 510.58ZM117.295 508.972C117.631 508.972 117.943 509.092 118.183 509.272L118.531 508.396C118.207 508.144 117.727 508.024 117.235 508.024C115.879 508.024 115.135 508.84 115.135 510.076V510.64H114.055V511.588H115.135V517H116.287V511.588H118.111V510.64H116.263V510.088C116.263 509.356 116.611 508.972 117.295 508.972ZM121.262 511.708V510.64H120.158V517H121.31V513.832C121.31 512.44 122.078 511.684 123.314 511.684C123.398 511.684 123.482 511.684 123.578 511.696V510.58C122.462 510.58 121.67 510.964 121.262 511.708ZM127.303 510.58C126.283 510.58 125.335 510.868 124.675 511.396L125.155 512.26C125.647 511.84 126.415 511.576 127.171 511.576C128.311 511.576 128.875 512.14 128.875 513.112V513.34H127.051C125.155 513.34 124.495 514.18 124.495 515.2C124.495 516.304 125.407 517.072 126.847 517.072C127.843 517.072 128.551 516.736 128.935 516.16V517H130.027V513.16C130.027 511.42 129.043 510.58 127.303 510.58ZM127.039 516.184C126.163 516.184 125.635 515.788 125.635 515.152C125.635 514.612 125.959 514.168 127.099 514.168H128.875V515.056C128.587 515.788 127.903 516.184 127.039 516.184ZM137.186 510.64V511.624C136.646 510.928 135.782 510.58 134.834 510.58C132.998 510.58 131.606 511.816 131.606 513.652C131.606 515.488 132.998 516.736 134.834 516.736C135.746 516.736 136.574 516.412 137.126 515.752V516.256C137.126 517.696 136.442 518.392 134.942 518.392C134.006 518.392 133.082 518.068 132.494 517.564L131.942 518.452C132.638 519.076 133.814 519.4 134.978 519.4C137.138 519.4 138.278 518.38 138.278 516.136V510.64H137.186ZM134.966 515.728C133.682 515.728 132.77 514.876 132.77 513.652C132.77 512.416 133.682 511.588 134.966 511.588C136.238 511.588 137.15 512.416 137.15 513.652C137.15 514.876 136.238 515.728 134.966 515.728ZM146.227 513.856C146.227 511.9 144.919 510.58 143.083 510.58C141.247 510.58 139.891 511.936 139.891 513.82C139.891 515.716 141.259 517.072 143.311 517.072C144.367 517.072 145.243 516.712 145.819 516.04L145.183 515.296C144.715 515.812 144.091 516.064 143.347 516.064C142.087 516.064 141.187 515.32 141.043 514.204H146.203C146.215 514.096 146.227 513.952 146.227 513.856ZM143.083 511.552C144.199 511.552 145.003 512.308 145.123 513.376H141.043C141.163 512.296 141.979 511.552 143.083 511.552ZM155.897 508.096V511.6C155.369 510.916 154.577 510.58 153.677 510.58C151.817 510.58 150.461 511.876 150.461 513.82C150.461 515.764 151.817 517.072 153.677 517.072C154.613 517.072 155.429 516.712 155.945 515.992V517H157.049V508.096H155.897ZM153.773 516.064C152.549 516.064 151.625 515.176 151.625 513.82C151.625 512.464 152.549 511.588 153.773 511.588C154.985 511.588 155.909 512.464 155.909 513.82C155.909 515.176 154.985 516.064 153.773 516.064ZM161.545 510.58C160.525 510.58 159.577 510.868 158.917 511.396L159.397 512.26C159.889 511.84 160.657 511.576 161.413 511.576C162.553 511.576 163.117 512.14 163.117 513.112V513.34H161.293C159.397 513.34 158.737 514.18 158.737 515.2C158.737 516.304 159.649 517.072 161.089 517.072C162.085 517.072 162.793 516.736 163.177 516.16V517H164.269V513.16C164.269 511.42 163.285 510.58 161.545 510.58ZM161.281 516.184C160.405 516.184 159.877 515.788 159.877 515.152C159.877 514.612 160.201 514.168 161.341 514.168H163.117V515.056C162.829 515.788 162.145 516.184 161.281 516.184ZM171.177 510.64V513.928C171.177 515.296 170.409 516.04 169.209 516.04C168.117 516.04 167.493 515.416 167.493 514.168V510.64H166.341V514.3C166.341 516.172 167.433 517.072 169.077 517.072C169.977 517.072 170.769 516.7 171.237 516.04V517H172.329V510.64H171.177ZM180.27 513.856C180.27 511.9 178.962 510.58 177.126 510.58C175.29 510.58 173.934 511.936 173.934 513.82C173.934 515.716 175.302 517.072 177.354 517.072C178.41 517.072 179.286 516.712 179.862 516.04L179.226 515.296C178.758 515.812 178.134 516.064 177.39 516.064C176.13 516.064 175.23 515.32 175.086 514.204H180.246C180.258 514.096 180.27 513.952 180.27 513.856ZM177.126 511.552C178.242 511.552 179.046 512.308 179.166 513.376H175.086C175.206 512.296 176.022 511.552 177.126 511.552ZM182.973 511.708V510.64H181.869V517H183.021V513.832C183.021 512.44 183.789 511.684 185.025 511.684C185.109 511.684 185.193 511.684 185.289 511.696V510.58C184.173 510.58 183.381 510.964 182.973 511.708ZM190.183 515.8C189.943 515.992 189.619 516.1 189.283 516.1C188.647 516.1 188.287 515.716 188.287 515.032V511.588H190.111V510.64H188.287V509.248H187.135V510.64H186.055V511.588H187.135V515.08C187.135 516.364 187.867 517.072 189.151 517.072C189.667 517.072 190.195 516.928 190.543 516.628L190.183 515.8ZM200.906 513.856C200.906 511.9 199.598 510.58 197.762 510.58C195.926 510.58 194.57 511.936 194.57 513.82C194.57 515.716 195.938 517.072 197.99 517.072C199.046 517.072 199.922 516.712 200.498 516.04L199.862 515.296C199.394 515.812 198.77 516.064 198.026 516.064C196.766 516.064 195.866 515.32 195.722 514.204H200.882C200.894 514.096 200.906 513.952 200.906 513.856ZM197.762 511.552C198.878 511.552 199.682 512.308 199.802 513.376H195.722C195.842 512.296 196.658 511.552 197.762 511.552ZM205.722 515.8C205.482 515.992 205.158 516.1 204.822 516.1C204.186 516.1 203.826 515.716 203.826 515.032V511.588H205.65V510.64H203.826V509.248H202.674V510.64H201.594V511.588H202.674V515.08C202.674 516.364 203.406 517.072 204.69 517.072C205.206 517.072 205.734 516.928 206.082 516.628L205.722 515.8ZM215.95 510.64L214.054 515.728L212.17 510.64H211.198L209.278 515.704L207.43 510.64H206.338L208.702 517H209.806L211.666 512.176L213.502 517H214.606L216.982 510.64H215.95ZM220.267 510.58C219.247 510.58 218.299 510.868 217.639 511.396L218.119 512.26C218.611 511.84 219.379 511.576 220.135 511.576C221.275 511.576 221.839 512.14 221.839 513.112V513.34H220.015C218.119 513.34 217.459 514.18 217.459 515.2C217.459 516.304 218.371 517.072 219.811 517.072C220.807 517.072 221.515 516.736 221.899 516.16V517H222.991V513.16C222.991 511.42 222.007 510.58 220.267 510.58ZM220.003 516.184C219.127 516.184 218.599 515.788 218.599 515.152C218.599 514.612 218.923 514.168 220.063 514.168H221.839V515.056C221.551 515.788 220.867 516.184 220.003 516.184ZM227.35 508.6V509.644H229.246V517H230.434V508.6H227.35ZM235.703 517.096C237.659 517.096 239.123 515.536 239.123 512.8C239.123 510.064 237.659 508.504 235.703 508.504C233.735 508.504 232.271 510.064 232.271 512.8C232.271 515.536 233.735 517.096 235.703 517.096ZM235.703 516.028C234.383 516.028 233.471 514.948 233.471 512.8C233.471 510.652 234.383 509.572 235.703 509.572C237.011 509.572 237.923 510.652 237.923 512.8C237.923 514.948 237.011 516.028 235.703 516.028ZM253.122 517L253.11 508.6H252.126L248.67 514.504L245.166 508.6H244.182V517H245.334V510.916L248.37 515.98H248.922L251.958 510.88L251.97 517H253.122ZM256.051 509.416C256.507 509.416 256.831 509.08 256.831 508.648C256.831 508.24 256.495 507.916 256.051 507.916C255.607 507.916 255.271 508.252 255.271 508.672C255.271 509.092 255.607 509.416 256.051 509.416ZM255.475 517H256.627V510.64H255.475V517ZM262.222 510.58C261.214 510.58 260.398 510.952 259.93 511.6V510.64H258.826V517H259.978V513.724C259.978 512.344 260.77 511.612 261.994 511.612C263.086 511.612 263.71 512.224 263.71 513.472V517H264.862V513.34C264.862 511.468 263.77 510.58 262.222 510.58ZM271.77 510.64V513.928C271.77 515.296 271.002 516.04 269.802 516.04C268.71 516.04 268.086 515.416 268.086 514.168V510.64H266.934V514.3C266.934 516.172 268.026 517.072 269.67 517.072C270.57 517.072 271.362 516.7 271.83 516.04V517H272.922V510.64H271.77ZM278.331 515.8C278.091 515.992 277.767 516.1 277.431 516.1C276.795 516.1 276.435 515.716 276.435 515.032V511.588H278.259V510.64H276.435V509.248H275.283V510.64H274.203V511.588H275.283V515.08C275.283 516.364 276.015 517.072 277.299 517.072C277.815 517.072 278.343 516.928 278.691 516.628L278.331 515.8ZM285.621 513.856C285.621 511.9 284.313 510.58 282.477 510.58C280.641 510.58 279.285 511.936 279.285 513.82C279.285 515.716 280.653 517.072 282.705 517.072C283.761 517.072 284.637 516.712 285.213 516.04L284.577 515.296C284.109 515.812 283.485 516.064 282.741 516.064C281.481 516.064 280.581 515.32 280.437 514.204H285.597C285.609 514.096 285.621 513.952 285.621 513.856ZM282.477 511.552C283.593 511.552 284.397 512.308 284.517 513.376H280.437C280.557 512.296 281.373 511.552 282.477 511.552ZM290.617 510.58C289.609 510.58 288.793 510.952 288.325 511.6V510.64H287.221V517H288.373V513.724C288.373 512.344 289.165 511.612 290.389 511.612C291.481 511.612 292.105 512.224 292.105 513.472V517H293.257V513.34C293.257 511.468 292.165 510.58 290.617 510.58Z" fill="#757575"/>
        <path d="M301.5 37.5H302.5C303.052 37.5 303.5 37.9477 303.5 38.5V40.5C303.5 41.0523 303.052 41.5 302.5 41.5H301.5C300.948 41.5 300.5 41.0523 300.5 40.5V38.5C300.5 37.9477 300.948 37.5 301.5 37.5Z" fill="black"/>
        <path d="M306 35.5H307C307.552 35.5 308 35.9477 308 36.5V40.5C308 41.0523 307.552 41.5 307 41.5H306C305.448 41.5 305 41.0523 305 40.5V36.5C305 35.9477 305.448 35.5 306 35.5Z" fill="black"/>
        <path d="M310.5 33.5H311.5C312.052 33.5 312.5 33.9298 312.5 34.46V40.54C312.5 41.0702 312.052 41.5 311.5 41.5H310.5C309.948 41.5 309.5 41.0702 309.5 40.54V34.46C309.5 33.9298 309.948 33.5 310.5 33.5Z" fill="black"/>
        <path d="M315 30.5H316C316.552 30.5 317 30.9617 317 31.5312V40.4688C317 41.0383 316.552 41.5 316 41.5H315C314.448 41.5 314 41.0383 314 40.4688V31.5312C314 30.9617 314.448 30.5 315 30.5V30.5Z" fill="black" fill-opacity="0.2"/>
        <path fill-rule="evenodd" clip-rule="evenodd" d="M329.5 32.7845C331.677 32.7846 333.77 33.6387 335.347 35.1703C335.466 35.2885 335.656 35.287 335.773 35.1669L336.908 33.9966C336.967 33.9357 337 33.8532 337 33.7673C337 33.6815 336.966 33.5994 336.906 33.5392C332.766 29.4869 326.234 29.4869 322.095 33.5392C322.035 33.5993 322.001 33.6814 322 33.7673C321.999 33.8531 322.032 33.9356 322.092 33.9966L323.227 35.1669C323.344 35.2872 323.534 35.2887 323.653 35.1703C325.23 33.6386 327.324 32.7845 329.5 32.7845ZM329.5 36.592C330.696 36.5919 331.849 37.0459 332.736 37.8657C332.856 37.982 333.044 37.9795 333.161 37.86L334.295 36.6897C334.355 36.6283 334.388 36.545 334.387 36.4585C334.387 36.3719 334.352 36.2893 334.291 36.2292C331.592 33.6648 327.412 33.6648 324.712 36.2292C324.651 36.2893 324.617 36.372 324.616 36.4585C324.615 36.5451 324.648 36.6284 324.708 36.6897L325.842 37.86C325.959 37.9795 326.148 37.982 326.267 37.8657C327.153 37.0464 328.305 36.5925 329.5 36.592ZM331.772 39.1539C331.774 39.2407 331.74 39.3243 331.68 39.3851L329.718 41.4071C329.661 41.4665 329.582 41.5 329.5 41.5C329.419 41.5 329.34 41.4665 329.283 41.4071L327.321 39.3851C327.26 39.3243 327.227 39.2406 327.228 39.1538C327.23 39.067 327.267 38.9849 327.33 38.9267C328.583 37.8444 330.418 37.8444 331.671 38.9267C331.734 38.9849 331.77 39.0671 331.772 39.1539Z" fill="black"/>
        <rect x="342.5" y="30.5" width="21.6077" height="11" rx="2.16667" stroke="black" stroke-opacity="0.6"/>
        <path d="M365.635 33.8823V38.1176C366.462 37.7589 367 36.9245 367 36C367 35.0755 366.462 34.241 365.635 33.8823Z" fill="black" fill-opacity="0.6"/>
        <rect x="344.055" y="32.1177" width="18.4972" height="7.76471" rx="1.33333" fill="black"/>
        <path d="M36.2414 41.2637C38.7536 41.2637 40.277 39.1323 40.277 35.7192V35.7046C40.277 32.2915 38.7536 30.1675 36.2414 30.1675C33.7292 30.1675 32.2204 32.2915 32.2204 35.7046V35.7192C32.2204 39.1323 33.7292 41.2637 36.2414 41.2637ZM36.2414 39.7329C34.8937 39.7329 34.1247 38.2241 34.1247 35.7192V35.7046C34.1247 33.1997 34.8937 31.7056 36.2414 31.7056C37.589 31.7056 38.3727 33.1997 38.3727 35.7046V35.7192C38.3727 38.2241 37.589 39.7329 36.2414 39.7329ZM45.9224 30.1675C43.63 30.1675 41.9967 31.7349 41.9967 33.8809V33.8955C41.9967 35.9023 43.4176 37.3818 45.4464 37.3818C46.8966 37.3818 47.8194 36.6421 48.2076 35.8071H48.3541C48.3541 35.8877 48.3468 35.9683 48.3468 36.0488C48.2662 38.0703 47.5557 39.7109 45.8785 39.7109C44.9483 39.7109 44.2965 39.2275 44.0181 38.4878L43.9962 38.4146H42.1358L42.1505 38.4951C42.4874 40.1138 43.9376 41.2637 45.8785 41.2637C48.5372 41.2637 50.1412 39.1543 50.1412 35.5947V35.5801C50.1412 31.7715 48.1783 30.1675 45.9224 30.1675ZM45.9151 35.9316C44.7139 35.9316 43.8424 35.0527 43.8424 33.8296V33.8149C43.8424 32.6357 44.7725 31.7056 45.9371 31.7056C47.109 31.7056 48.0245 32.6504 48.0245 33.8589V33.8735C48.0245 35.0674 47.109 35.9316 45.9151 35.9316ZM53.2964 34.1519C53.9702 34.1519 54.4609 33.6392 54.4609 32.9946C54.4609 32.3428 53.9702 31.8374 53.2964 31.8374C52.6299 31.8374 52.1318 32.3428 52.1318 32.9946C52.1318 33.6392 52.6299 34.1519 53.2964 34.1519ZM53.2964 39.5864C53.9702 39.5864 54.4609 39.0811 54.4609 38.4292C54.4609 37.7773 53.9702 37.272 53.2964 37.272C52.6299 37.272 52.1318 37.7773 52.1318 38.4292C52.1318 39.0811 52.6299 39.5864 53.2964 39.5864ZM61.5785 41H63.3876V38.9712H64.8085V37.4111H63.3876V30.4312H60.7143C59.2787 32.6138 57.7773 35.0454 56.4076 37.4258V38.9712H61.5785V41ZM58.1654 37.4551V37.3452C59.1908 35.5508 60.414 33.5952 61.498 31.9399H61.6078V37.4551H58.1654ZM69.0184 41H70.908V30.4312H69.0257L66.2645 32.3721V34.1519L68.8939 32.2915H69.0184V41Z" fill="black"/>
        <rect x="135" y="799" width="114" height="4" rx="2" fill="#202223"/>
    </g>
    <rect x="2.5" y="2.5" width="380" height="817" rx="32.5" stroke="#202223" stroke-width="5"/>
    <defs>
        <filter id="filter0_d_37_575" x="23" y="411" width="340" height="45" filterUnits="userSpaceOnUse" color-interpolation-filters="sRGB">
            <feFlood flood-opacity="0" result="BackgroundImageFix"/>
            <feColorMatrix in="SourceAlpha" type="matrix" values="0 0 0 0 0 0 0 0 0 0 0 0 0 0 0 0 0 0 127 0" result="hardAlpha"/>
            <feOffset dy="1"/>
            <feComposite in2="hardAlpha" operator="out"/>
            <feColorMatrix type="matrix" values="0 0 0 0 0 0 0 0 0 0 0 0 0 0 0 0 0 0 0.05 0"/>
            <feBlend mode="normal" in2="BackgroundImageFix" result="effect1_dropShadow_37_575"/>
            <feBlend mode="normal" in="SourceGraphic" in2="effect1_dropShadow_37_575" result="shape"/>
        </filter>
        <linearGradient id="paint0_linear_37_575" x1="23" y1="423.774" x2="415.964" y2="548.674" gradientUnits="userSpaceOnUse">
            <stop stop-color="#2B735D"/>
            <stop offset="1" stop-color="#85B0A3"/>
        </linearGradient>
        <clipPath id="clip0_37_575">
            <rect x="5" y="5" width="375" height="812" rx="30" fill="white"/>
        </clipPath>
    </defs>
</svg>