<svg xmlns="http://www.w3.org/2000/svg" xmlns:xlink="http://www.w3.org/1999/xlink" viewBox="0 0 275.58 319.27"><defs><style>.cls-1{isolation:isolate;}.cls-2{fill:#266bd7;}.cls-10,.cls-11,.cls-12,.cls-13,.cls-14,.cls-15,.cls-16,.cls-17,.cls-18,.cls-19,.cls-20,.cls-21,.cls-22,.cls-23,.cls-24,.cls-25,.cls-26,.cls-29,.cls-3,.cls-31,.cls-33,.cls-34,.cls-35,.cls-36,.cls-4,.cls-5,.cls-6,.cls-7,.cls-8,.cls-9{mix-blend-mode:multiply;}.cls-3{fill:url(#linear-gradient);}.cls-4{fill:url(#linear-gradient-2);}.cls-5{fill:url(#linear-gradient-3);}.cls-6{fill:url(#linear-gradient-4);}.cls-7{fill:url(#linear-gradient-5);}.cls-8{fill:url(#linear-gradient-6);}.cls-9{fill:url(#linear-gradient-7);}.cls-10{fill:url(#linear-gradient-8);}.cls-11{fill:url(#linear-gradient-9);}.cls-12{fill:url(#linear-gradient-10);}.cls-13{fill:url(#linear-gradient-11);}.cls-14{fill:url(#linear-gradient-12);}.cls-15{fill:url(#linear-gradient-13);}.cls-16{fill:url(#linear-gradient-14);}.cls-17{fill:url(#linear-gradient-15);}.cls-18{fill:url(#linear-gradient-16);}.cls-19{fill:url(#linear-gradient-17);}.cls-20{fill:url(#linear-gradient-18);}.cls-21{fill:url(#linear-gradient-19);}.cls-22{fill:url(#linear-gradient-20);}.cls-23{fill:url(#linear-gradient-21);}.cls-24{fill:url(#linear-gradient-22);}.cls-25{fill:url(#linear-gradient-23);}.cls-26{fill:url(#linear-gradient-24);}.cls-27,.cls-28,.cls-30,.cls-32{mix-blend-mode:screen;}.cls-27{fill:url(#linear-gradient-27);}.cls-28{fill:url(#linear-gradient-28);}.cls-29{fill:url(#linear-gradient-30);}.cls-30{fill:url(#linear-gradient-31);}.cls-31{fill:url(#linear-gradient-32);}.cls-32{fill:url(#linear-gradient-33);}.cls-33{fill:url(#linear-gradient-34);}.cls-34{fill:url(#linear-gradient-35);}.cls-35{fill:url(#linear-gradient-36);}.cls-36{fill:url(#linear-gradient-37);}</style><linearGradient id="linear-gradient" x1="-231.92" y1="-83.07" x2="292.53" y2="188.89" gradientUnits="userSpaceOnUse"><stop offset="0" stop-color="#262fd6"/><stop offset="1" stop-color="#2657d7" stop-opacity="0"/></linearGradient><linearGradient id="linear-gradient-2" x1="-101.29" y1="-65.31" x2="271.98" y2="196.52" xlink:href="#linear-gradient"/><linearGradient id="linear-gradient-3" x1="671.8" y1="318.96" x2="13.32" y2="64.15" xlink:href="#linear-gradient"/><linearGradient id="linear-gradient-4" x1="355.76" y1="-184.41" x2="148.27" y2="114.31" xlink:href="#linear-gradient"/><linearGradient id="linear-gradient-5" x1="591.63" y1="-142.98" x2="154.26" y2="108.09" gradientUnits="userSpaceOnUse"><stop offset="0" stop-color="#260075"/><stop offset="1" stop-color="#260076" stop-opacity="0"/></linearGradient><linearGradient id="linear-gradient-6" x1="435.15" y1="40.4" x2="-60.46" y2="311.58" gradientUnits="userSpaceOnUse"><stop offset="0" stop-color="#265ad7"/><stop offset="1" stop-color="#2647d7" stop-opacity="0"/></linearGradient><linearGradient id="linear-gradient-7" x1="461.33" y1="458.25" x2="-0.77" y2="120.05" xlink:href="#linear-gradient-6"/><linearGradient id="linear-gradient-8" x1="325.48" y1="481.23" x2="60.49" y2="132.52" xlink:href="#linear-gradient-6"/><linearGradient id="linear-gradient-9" x1="252.15" y1="513.9" x2="96.95" y2="164.57" xlink:href="#linear-gradient-6"/><linearGradient id="linear-gradient-10" x1="163.99" y1="412.56" x2="22.95" y2="53.32" gradientUnits="userSpaceOnUse"><stop offset="0" stop-color="#2637d7"/><stop offset="1" stop-color="#265fd7" stop-opacity="0"/></linearGradient><linearGradient id="linear-gradient-11" x1="228.46" y1="403.84" x2="-78.57" y2="-75.41" xlink:href="#linear-gradient-10"/><linearGradient id="linear-gradient-12" x1="-371.07" y1="-133.12" x2="70.05" y2="141.68" xlink:href="#linear-gradient-10"/><linearGradient id="linear-gradient-13" x1="361.94" y1="473.72" x2="30.84" y2="105.66" xlink:href="#linear-gradient-10"/><linearGradient id="linear-gradient-14" x1="-385.2" y1="-233.54" x2="42.45" y2="121.89" xlink:href="#linear-gradient-10"/><linearGradient id="linear-gradient-15" x1="-205.48" y1="262.21" x2="71.64" y2="101.06" xlink:href="#linear-gradient-10"/><linearGradient id="linear-gradient-16" x1="-283.9" y1="83.88" x2="57.06" y2="133.15" xlink:href="#linear-gradient-10"/><linearGradient id="linear-gradient-17" x1="-218.97" y1="355.72" x2="52.72" y2="98.64" xlink:href="#linear-gradient-10"/><linearGradient id="linear-gradient-18" x1="122.14" y1="-173.04" x2="52.97" y2="46.98" xlink:href="#linear-gradient-10"/><linearGradient id="linear-gradient-19" x1="-426.6" y1="344.17" x2="64.49" y2="110.36" xlink:href="#linear-gradient-10"/><linearGradient id="linear-gradient-20" x1="-42.4" y1="109.72" x2="99.92" y2="5.68" gradientUnits="userSpaceOnUse"><stop offset="0" stop-color="#2625d6"/><stop offset="1" stop-color="#265bd7" stop-opacity="0"/></linearGradient><linearGradient id="linear-gradient-21" x1="170.47" y1="271.79" x2="-18.08" y2="226.65" gradientUnits="userSpaceOnUse"><stop offset="0" stop-color="#263fd7"/><stop offset="1" stop-color="#265bd7" stop-opacity="0"/></linearGradient><linearGradient id="linear-gradient-22" x1="-85.17" y1="128.8" x2="74.4" y2="24.81" gradientUnits="userSpaceOnUse"><stop offset="0" stop-color="#2613bd"/><stop offset="1" stop-color="#2661d7" stop-opacity="0"/></linearGradient><linearGradient id="linear-gradient-23" x1="551.96" y1="114.01" x2="135.1" y2="173.18" gradientUnits="userSpaceOnUse"><stop offset="0" stop-color="#265ed7"/><stop offset="1" stop-color="#2646d7" stop-opacity="0"/></linearGradient><linearGradient id="linear-gradient-24" x1="384.36" y1="302.58" x2="-14.56" y2="229.96" gradientUnits="userSpaceOnUse"><stop offset="0" stop-color="#261fd0"/><stop offset="1" stop-color="#264ed7" stop-opacity="0"/></linearGradient><linearGradient id="linear-gradient-27" x1="381.61" y1="500.06" x2="146.14" y2="61.02" gradientUnits="userSpaceOnUse"><stop offset="0" stop-color="#fff5ff"/><stop offset="1" stop-color="#2652c7" stop-opacity="0"/></linearGradient><linearGradient id="linear-gradient-28" x1="712.89" y1="110.88" x2="149.96" y2="117.75" xlink:href="#linear-gradient-27"/><linearGradient id="linear-gradient-30" x1="358.65" y1="341.97" x2="78.9" y2="185.02" gradientUnits="userSpaceOnUse"><stop offset="0" stop-color="#260051"/><stop offset="1" stop-color="#260066" stop-opacity="0"/></linearGradient><linearGradient id="linear-gradient-31" x1="-211.42" y1="154.58" x2="150.24" y2="213.12" xlink:href="#linear-gradient-27"/><linearGradient id="linear-gradient-32" x1="-231.01" y1="340.82" x2="56.26" y2="99.54" gradientUnits="userSpaceOnUse"><stop offset="0" stop-color="#260064"/><stop offset="1" stop-color="#260066" stop-opacity="0"/></linearGradient><linearGradient id="linear-gradient-33" x1="337.65" y1="-57.49" x2="-56.89" y2="176.67" xlink:href="#linear-gradient-27"/><linearGradient id="linear-gradient-34" x1="350" y1="206.51" x2="174.54" y2="167.02" gradientUnits="userSpaceOnUse"><stop offset="0" stop-color="#2609b2"/><stop offset="1" stop-color="#2631c7" stop-opacity="0"/></linearGradient><linearGradient id="linear-gradient-35" x1="393.54" y1="239.31" x2="113.45" y2="148.92" gradientUnits="userSpaceOnUse"><stop offset="0" stop-color="#262ab2"/><stop offset="1" stop-color="#2652c7" stop-opacity="0"/></linearGradient><linearGradient id="linear-gradient-36" x1="-3.02" y1="83.68" x2="128.68" y2="-0.98" xlink:href="#linear-gradient-35"/><linearGradient id="linear-gradient-37" x1="182.88" y1="272.09" x2="-43.51" y2="207.71" xlink:href="#linear-gradient-35"/></defs><g class="cls-1"><g id="Warstwa_2" data-name="Warstwa 2"><g id="Layer_1" data-name="Layer 1"><path class="cls-2" d="M157.54,0a118,118,0,1,1,0,236H125.16c57.34,0,122.76-64.1,99.66-137.67-.24-.89-.54-1.79-.84-2.69-.54-1.68-1.14-3.23-1.79-4.85a70.3,70.3,0,0,0-64.65-42.86H59.86A11.92,11.92,0,0,0,47.94,58.66C48.24,20.89,66.74,0,104.69,0Z"/><path class="cls-2" d="M224.82,98.28C247.92,171.85,182.5,236,125.16,236h-10.3L47.88,305l-7.06,7.24A23.91,23.91,0,0,1,0,295.33V253.55C0,264.2,11.25,274,26.76,258L58.18,225.6l36.33-37.53h63c1.32,0,2.57-.06,3.83-.12a70.22,70.22,0,0,0,66.32-70A69.26,69.26,0,0,0,224.82,98.28Z"/><path class="cls-2" d="M47.88,0h56.81C66.74,0,48.24,20.89,47.94,58.66a8,8,0,0,0-.06,1.2V221.17a6.1,6.1,0,0,0,10.3,4.43L26.76,258C11.25,274,0,264.2,0,253.55V23.94A23.93,23.93,0,0,1,23.94,0Z"/><path class="cls-3" d="M157.54,0a118,118,0,1,1,0,236H125.16c57.34,0,122.76-64.1,99.66-137.67-.24-.89-.54-1.79-.84-2.69-.54-1.68-1.14-3.23-1.79-4.85a70.3,70.3,0,0,0-64.65-42.86H59.86A11.92,11.92,0,0,0,47.94,58.66C48.24,20.89,66.74,0,104.69,0Z"/><path class="cls-4" d="M157.54,0a118,118,0,1,1,0,236H125.16c57.34,0,122.76-64.1,99.66-137.67-.24-.89-.54-1.79-.84-2.69-.54-1.68-1.14-3.23-1.79-4.85a70.3,70.3,0,0,0-64.65-42.86H59.86A11.92,11.92,0,0,0,47.94,58.66C48.24,20.89,66.74,0,104.69,0Z"/><path class="cls-5" d="M157.54,0a118,118,0,1,1,0,236H125.16c57.34,0,122.76-64.1,99.66-137.67-.24-.89-.54-1.79-.84-2.69-.54-1.68-1.14-3.23-1.79-4.85a70.3,70.3,0,0,0-64.65-42.86H59.86A11.92,11.92,0,0,0,47.94,58.66C48.24,20.89,66.74,0,104.69,0Z"/><path class="cls-6" d="M157.54,0a118,118,0,1,1,0,236H125.16c57.34,0,122.76-64.1,99.66-137.67-.24-.89-.54-1.79-.84-2.69-.54-1.68-1.14-3.23-1.79-4.85a70.3,70.3,0,0,0-64.65-42.86H59.86A11.92,11.92,0,0,0,47.94,58.66C48.24,20.89,66.74,0,104.69,0Z"/><path class="cls-7" d="M157.54,0a118,118,0,1,1,0,236H125.16c57.34,0,122.76-64.1,99.66-137.67-.24-.89-.54-1.79-.84-2.69-.54-1.68-1.14-3.23-1.79-4.85a70.3,70.3,0,0,0-64.65-42.86H59.86A11.92,11.92,0,0,0,47.94,58.66C48.24,20.89,66.74,0,104.69,0Z"/><path class="cls-8" d="M224.82,98.28C247.92,171.85,182.5,236,125.16,236h-10.3L47.88,305l-7.06,7.24A23.91,23.91,0,0,1,0,295.33V253.55C0,264.2,11.25,274,26.76,258L58.18,225.6l36.33-37.53h63c1.32,0,2.57-.06,3.83-.12a70.22,70.22,0,0,0,66.32-70A69.26,69.26,0,0,0,224.82,98.28Z"/><path class="cls-9" d="M224.82,98.28C247.92,171.85,182.5,236,125.16,236h-10.3L47.88,305l-7.06,7.24A23.91,23.91,0,0,1,0,295.33V253.55C0,264.2,11.25,274,26.76,258L58.18,225.6l36.33-37.53h63c1.32,0,2.57-.06,3.83-.12a70.22,70.22,0,0,0,66.32-70A69.26,69.26,0,0,0,224.82,98.28Z"/><path class="cls-10" d="M224.82,98.28C247.92,171.85,182.5,236,125.16,236h-10.3L47.88,305l-7.06,7.24A23.91,23.91,0,0,1,0,295.33V253.55C0,264.2,11.25,274,26.76,258L58.18,225.6l36.33-37.53h63c1.32,0,2.57-.06,3.83-.12a70.22,70.22,0,0,0,66.32-70A69.26,69.26,0,0,0,224.82,98.28Z"/><path class="cls-11" d="M224.82,98.28C247.92,171.85,182.5,236,125.16,236h-10.3L47.88,305l-7.06,7.24A23.91,23.91,0,0,1,0,295.33V253.55C0,264.2,11.25,274,26.76,258L58.18,225.6l36.33-37.53h63c1.32,0,2.57-.06,3.83-.12a70.22,70.22,0,0,0,66.32-70A69.26,69.26,0,0,0,224.82,98.28Z"/><path class="cls-12" d="M47.88,0h56.81C66.74,0,48.24,20.89,47.94,58.66a8,8,0,0,0-.06,1.2V221.17a6.1,6.1,0,0,0,10.3,4.43L26.76,258C11.25,274,0,264.2,0,253.55V23.94A23.93,23.93,0,0,1,23.94,0Z"/><path class="cls-13" d="M47.88,0h56.81C66.74,0,48.24,20.89,47.94,58.66a8,8,0,0,0-.06,1.2V221.17a6.1,6.1,0,0,0,10.3,4.43L26.76,258C11.25,274,0,264.2,0,253.55V23.94A23.93,23.93,0,0,1,23.94,0Z"/><path class="cls-14" d="M47.88,0h56.81C66.74,0,48.24,20.89,47.94,58.66a8,8,0,0,0-.06,1.2V221.17a6.1,6.1,0,0,0,10.3,4.43L26.76,258C11.25,274,0,264.2,0,253.55V23.94A23.93,23.93,0,0,1,23.94,0Z"/><path class="cls-15" d="M47.88,0h56.81C66.74,0,48.24,20.89,47.94,58.66a8,8,0,0,0-.06,1.2V221.17a6.1,6.1,0,0,0,10.3,4.43L26.76,258C11.25,274,0,264.2,0,253.55V23.94A23.93,23.93,0,0,1,23.94,0Z"/><path class="cls-16" d="M47.88,0h56.81C66.74,0,48.24,20.89,47.94,58.66a8,8,0,0,0-.06,1.2V221.17a6.1,6.1,0,0,0,10.3,4.43L26.76,258C11.25,274,0,264.2,0,253.55V23.94A23.93,23.93,0,0,1,23.94,0Z"/><path class="cls-17" d="M47.88,0h56.81C66.74,0,48.24,20.89,47.94,58.66a8,8,0,0,0-.06,1.2V221.17a6.1,6.1,0,0,0,10.3,4.43L26.76,258C11.25,274,0,264.2,0,253.55V23.94A23.93,23.93,0,0,1,23.94,0Z"/><path class="cls-18" d="M47.88,0h56.81C66.74,0,48.24,20.89,47.94,58.66a8,8,0,0,0-.06,1.2V221.17a6.1,6.1,0,0,0,10.3,4.43L26.76,258C11.25,274,0,264.2,0,253.55V23.94A23.93,23.93,0,0,1,23.94,0Z"/><path class="cls-19" d="M47.88,0h56.81C66.74,0,48.24,20.89,47.94,58.66a8,8,0,0,0-.06,1.2V221.17a6.1,6.1,0,0,0,10.3,4.43L26.76,258C11.25,274,0,264.2,0,253.55V23.94A23.93,23.93,0,0,1,23.94,0Z"/><path class="cls-20" d="M47.88,0h56.81C66.74,0,48.24,20.89,47.94,58.66a8,8,0,0,0-.06,1.2V221.17a6.1,6.1,0,0,0,10.3,4.43L26.76,258C11.25,274,0,264.2,0,253.55V23.94A23.93,23.93,0,0,1,23.94,0Z"/><path class="cls-21" d="M47.88,0h56.81C66.74,0,48.24,20.89,47.94,58.66a8,8,0,0,0-.06,1.2V221.17a6.1,6.1,0,0,0,10.3,4.43L26.76,258C11.25,274,0,264.2,0,253.55V23.94A23.93,23.93,0,0,1,23.94,0Z"/><path class="cls-22" d="M104.69,0C74.94,6.51,68,29.16,68.11,47.88H59.86A11.92,11.92,0,0,0,47.94,58.66C48.24,20.89,66.74,0,104.69,0Z"/><path class="cls-23" d="M58.18,225.6,26.76,258c-11.08,11.42-20,9.64-24.15,3.82a9.58,9.58,0,0,0,12.57,1.41c10-6.8,22.43-30.33,32.7-53.88v11.78a6.1,6.1,0,0,0,10.3,4.43Z"/><path class="cls-24" d="M104.69,0C74.94,6.51,68,29.16,68.11,47.88H59.86A11.92,11.92,0,0,0,47.94,58.66C48.24,20.89,66.74,0,104.69,0Z"/><path class="cls-25" d="M125.16,236c6.29,0,65-9.79,78-64.8a69.66,69.66,0,0,0,21.68-72.87C247.92,171.85,182.5,236,125.16,236Z"/><path class="cls-26" d="M58.18,225.6,26.76,258c-11.08,11.42-20,9.64-24.15,3.82a9.58,9.58,0,0,0,12.57,1.41c10-6.8,22.43-30.33,32.7-53.88v11.78a6.1,6.1,0,0,0,10.3,4.43Z"/><path class="cls-22" d="M104.69,0C74.94,6.51,68,29.16,68.11,47.88H59.86A11.92,11.92,0,0,0,47.94,58.66C48.24,20.89,66.74,0,104.69,0Z"/><path class="cls-23" d="M58.18,225.6,26.76,258c-11.08,11.42-20,9.64-24.15,3.82a9.58,9.58,0,0,0,12.57,1.41c10-6.8,22.43-30.33,32.7-53.88v11.78a6.1,6.1,0,0,0,10.3,4.43Z"/><path class="cls-27" d="M157.54,0a118,118,0,1,1,0,236H125.16c57.34,0,122.76-64.1,99.66-137.67-.24-.89-.54-1.79-.84-2.69-.54-1.68-1.14-3.23-1.79-4.85a70.3,70.3,0,0,0-64.65-42.86H59.86A11.92,11.92,0,0,0,47.94,58.66C48.24,20.89,66.74,0,104.69,0Z"/><path class="cls-28" d="M157.54,0a118,118,0,1,1,0,236H125.16c57.34,0,122.76-64.1,99.66-137.67-.24-.89-.54-1.79-.84-2.69-.54-1.68-1.14-3.23-1.79-4.85a70.3,70.3,0,0,0-64.65-42.86H59.86A11.92,11.92,0,0,0,47.94,58.66C48.24,20.89,66.74,0,104.69,0Z"/><path class="cls-11" d="M224.82,98.28C247.92,171.85,182.5,236,125.16,236h-10.3L47.88,305l-7.06,7.24A23.91,23.91,0,0,1,0,295.33V253.55C0,264.2,11.25,274,26.76,258L58.18,225.6l36.33-37.53h63c1.32,0,2.57-.06,3.83-.12a70.22,70.22,0,0,0,66.32-70A69.26,69.26,0,0,0,224.82,98.28Z"/><path class="cls-29" d="M224.82,98.28C247.92,171.85,182.5,236,125.16,236h-10.3L47.88,305l-7.06,7.24A23.91,23.91,0,0,1,0,295.33V253.55C0,264.2,11.25,274,26.76,258L58.18,225.6l36.33-37.53h63c1.32,0,2.57-.06,3.83-.12a70.22,70.22,0,0,0,66.32-70A69.26,69.26,0,0,0,224.82,98.28Z"/><path class="cls-30" d="M224.82,98.28C247.92,171.85,182.5,236,125.16,236h-10.3L47.88,305l-7.06,7.24A23.91,23.91,0,0,1,0,295.33V253.55C0,264.2,11.25,274,26.76,258L58.18,225.6l36.33-37.53h63c1.32,0,2.57-.06,3.83-.12a70.22,70.22,0,0,0,66.32-70A69.26,69.26,0,0,0,224.82,98.28Z"/><path class="cls-31" d="M47.88,0h56.81C66.74,0,48.24,20.89,47.94,58.66a8,8,0,0,0-.06,1.2V221.17a6.1,6.1,0,0,0,10.3,4.43L26.76,258C11.25,274,0,264.2,0,253.55V23.94A23.93,23.93,0,0,1,23.94,0Z"/><path class="cls-32" d="M47.88,0h56.81C66.74,0,48.24,20.89,47.94,58.66a8,8,0,0,0-.06,1.2V221.17a6.1,6.1,0,0,0,10.3,4.43L26.76,258C11.25,274,0,264.2,0,253.55V23.94A23.93,23.93,0,0,1,23.94,0Z"/><path class="cls-33" d="M125.16,236c6.29,0,65-9.79,78-64.8a69.66,69.66,0,0,0,21.68-72.87C247.92,171.85,182.5,236,125.16,236Z"/><path class="cls-34" d="M125.16,236h-10.3s38.68-8.17,53.32-48.7A70.24,70.24,0,0,0,227.69,118a69.26,69.26,0,0,0-2.87-19.7C247.92,171.85,182.5,236,125.16,236Z"/><path class="cls-35" d="M96.3,47.88H59.86A11.92,11.92,0,0,0,47.94,58.66C48.24,20.89,66.74,0,104.69,0h10C100.54,13.36,96.59,32.1,96.3,47.88Z"/><path class="cls-36" d="M0,253.55V225.41c17.39-6,36.48-16.65,47.88-35.3v31.06a6.1,6.1,0,0,0,10.3,4.43L26.76,258C11.25,274,0,264.2,0,253.55Z"/></g></g></g></svg>